<svg width="304" height="190" viewBox="0 0 304 190" fill="none" xmlns="http://www.w3.org/2000/svg">
<rect width="304" height="190" fill="#E5E5E5"/>
<rect x="-200" y="-80" width="704" height="362" fill="white"/>
<g clip-path="url(#clip0)">
<path d="M304.001 95.0003C304.001 145.184 263.467 186.2 212.801 186.2C162.616 186.2 121.601 145.184 121.601 95.0003C121.601 44.8162 162.134 3.80029 212.318 3.80029C263.467 3.80029 304.001 44.8162 304.001 95.0003Z" fill="#FFB600"/>
<path d="M212.801 3.80029C262.985 3.80029 304.001 44.8162 304.001 95.0003C304.001 145.184 263.467 186.2 212.801 186.2C162.616 186.2 121.601 145.184 121.601 95.0003" fill="#F7981D"/>
<path d="M212.8 3.80029C262.984 3.80029 304 44.8162 304 95.0003C304 145.184 263.466 186.2 212.8 186.2" fill="#FF8500"/>
<path d="M90.2349 3.80029C40.5333 4.28283 0 44.8162 0 95.0003C0 145.184 40.5333 186.2 91.2 186.2C114.844 186.2 136.076 177.032 152.483 162.556C155.86 159.661 158.756 156.283 161.651 152.905H142.832C140.419 150.01 138.006 146.632 136.076 143.737H168.406C170.337 140.842 172.267 137.464 173.714 134.086H130.768C129.321 131.191 127.873 127.813 126.908 124.435H177.092C179.987 115.267 181.917 105.616 181.917 95.4828C181.917 88.7273 180.952 82.4543 179.987 76.1812H124.013C124.495 72.8035 125.46 69.9082 126.425 66.5304H176.61C175.644 63.1527 174.197 59.7749 172.749 56.8797H130.286C131.733 53.5019 133.663 50.6066 135.594 47.2289H167.924C165.994 43.8511 163.581 40.4733 160.686 37.5781H142.832C145.727 34.2003 148.622 31.3051 152 28.4098C136.076 13.4511 114.362 4.76537 90.7175 4.76537C90.7175 3.80029 90.7175 3.80029 90.2349 3.80029Z" fill="#FF5050"/>
<path d="M0 95.0001C0 145.184 40.5333 186.2 91.2 186.2C114.844 186.2 136.076 177.032 152.483 162.556C155.86 159.66 158.756 156.283 161.651 152.905H142.832C140.419 150.01 138.006 146.632 136.076 143.737H168.406C170.337 140.841 172.267 137.464 173.714 134.086H130.768C129.321 131.191 127.873 127.813 126.908 124.435H177.092C179.987 115.267 181.917 105.616 181.917 95.4826C181.917 88.727 180.952 82.454 179.987 76.181H124.013C124.495 72.8032 125.46 69.908 126.425 66.5302H176.61C175.644 63.1524 174.197 59.7747 172.749 56.8794H130.286C131.733 53.5016 133.663 50.6064 135.594 47.2286H167.924C165.994 43.8508 163.581 40.4731 160.686 37.5778H142.832C145.727 34.2001 148.622 31.3048 152 28.4096C136.076 13.4509 114.362 4.76514 90.7175 4.76514H90.2349" fill="#E52836"/>
<path d="M91.2004 186.2C114.845 186.2 136.077 177.032 152.483 162.556C155.861 159.66 158.756 156.283 161.651 152.905H142.832C140.419 150.01 138.007 146.632 136.077 143.737H168.407C170.337 140.841 172.267 137.464 173.715 134.086H130.769C129.321 131.191 127.873 127.813 126.908 124.435H177.092C179.988 115.267 181.918 105.616 181.918 95.4826C181.918 88.727 180.953 82.454 179.988 76.181H124.013C124.496 72.8032 125.461 69.908 126.426 66.5302H176.61C175.645 63.1524 174.197 59.7747 172.75 56.8794H130.286C131.734 53.5016 133.664 50.6064 135.594 47.2286H167.924C165.994 43.8508 163.581 40.4731 160.686 37.5778H142.832C145.727 34.2001 148.623 31.3048 152 28.4096C136.077 13.4509 114.362 4.76514 90.7179 4.76514H90.2354" fill="#CB2026"/>
<path d="M123.53 118.162L124.977 109.959C124.495 109.959 123.53 110.441 122.565 110.441C119.187 110.441 118.704 108.511 119.187 107.546L122.082 90.657H127.39L128.838 81.4887H124.012L124.977 75.6982H115.327C115.327 75.6982 109.536 107.546 109.536 111.406C109.536 117.197 112.914 119.609 117.257 119.609C120.152 119.609 122.565 118.644 123.53 118.162Z" fill="white"/>
<path d="M126.908 102.721C126.908 116.232 136.076 119.61 143.797 119.61C151.035 119.61 153.93 118.162 153.93 118.162L155.861 108.994C155.861 108.994 150.553 111.406 145.727 111.406C135.111 111.406 137.042 103.686 137.042 103.686H156.826C156.826 103.686 158.273 97.4127 158.273 95C158.273 88.727 154.896 81.0064 144.28 81.0064C134.146 80.0413 126.908 90.6572 126.908 102.721ZM143.797 88.727C149.105 88.727 148.14 95 148.14 95.4826H137.524C137.524 95 138.489 88.727 143.797 88.727Z" fill="white"/>
<path d="M205.08 118.162L207.01 107.546C207.01 107.546 202.184 109.959 198.807 109.959C192.051 109.959 189.156 104.651 189.156 98.8602C189.156 87.2793 194.946 81.0063 201.702 81.0063C206.527 81.0063 210.388 83.9015 210.388 83.9015L211.835 73.7682C211.835 73.7682 206.045 71.3555 200.737 71.3555C189.638 71.3555 178.54 81.0063 178.54 99.3428C178.54 111.406 184.331 119.609 195.911 119.609C199.772 119.609 205.08 118.162 205.08 118.162Z" fill="white"/>
<path d="M70.4508 80.041C63.6952 80.041 58.8698 81.9712 58.8698 81.9712L57.4222 90.1744C57.4222 90.1744 61.7651 88.2442 68.0381 88.2442C71.4159 88.2442 74.3111 88.7267 74.3111 91.622C74.3111 93.5521 73.8286 94.0347 73.8286 94.0347C73.8286 94.0347 70.9333 94.0347 69.4857 94.0347C61.2825 94.0347 52.1143 97.4124 52.1143 108.511C52.1143 117.197 57.9047 119.127 61.2825 119.127C68.0381 119.127 70.9333 114.784 71.4159 114.784L70.9333 118.644H79.619L83.4793 92.1045C83.4793 80.5236 73.8286 80.041 70.4508 80.041ZM72.3809 101.755C72.3809 103.203 71.4159 110.924 65.6254 110.924C62.7301 110.924 61.7651 108.511 61.7651 107.063C61.7651 104.651 63.2127 101.273 70.4508 101.273C71.8984 101.755 72.3809 101.755 72.3809 101.755Z" fill="white"/>
<path d="M92.6472 119.127C95.0599 119.127 107.123 119.609 107.123 106.581C107.123 94.5173 95.5425 96.93 95.5425 92.1046C95.5425 89.6919 97.4726 88.7269 100.85 88.7269C102.298 88.7269 107.606 89.2094 107.606 89.2094L109.054 80.5237C109.054 80.5237 105.676 79.5586 99.8853 79.5586C92.6472 79.5586 85.4092 82.4538 85.4092 92.1046C85.4092 103.203 97.4726 102.238 97.4726 106.581C97.4726 109.476 94.0949 109.959 91.6822 109.959C87.3393 109.959 82.9965 108.511 82.9965 108.511L81.5488 117.197C82.0314 118.162 84.4441 119.127 92.6472 119.127Z" fill="white"/>
<path d="M285.181 72.3203L283.25 85.3489C283.25 85.3489 279.39 80.5235 274.082 80.5235C265.396 80.5235 257.676 91.1394 257.676 103.685C257.676 111.406 261.536 119.609 269.739 119.609C275.53 119.609 278.908 115.749 278.908 115.749L278.425 119.127H288.076L295.314 72.8029L285.181 72.3203ZM280.838 97.8949C280.838 103.203 278.425 109.958 273.117 109.958C269.739 109.958 267.809 107.063 267.809 102.238C267.809 94.5171 271.187 89.6917 275.53 89.6917C278.908 89.6917 280.838 92.1044 280.838 97.8949Z" fill="white"/>
<path d="M17.8538 118.644L23.6443 83.9013L24.6094 118.644H31.3649L43.9109 83.9013L38.603 118.644H48.7363L56.457 72.3203H40.5332L30.8824 100.79L30.3998 72.3203H16.4062L8.68555 118.644H17.8538Z" fill="white"/>
<path d="M167.441 118.644C170.336 102.721 170.819 89.6921 177.574 92.1048C178.539 85.8317 179.987 83.419 180.952 81.0063C180.952 81.0063 180.47 81.0063 179.022 81.0063C174.679 81.0063 171.301 86.7968 171.301 86.7968L172.266 81.4889H163.098L156.825 119.127H167.441V118.644Z" fill="white"/>
<path d="M227.276 80.041C220.52 80.041 215.695 81.9712 215.695 81.9712L214.247 90.1744C214.247 90.1744 218.59 88.2442 224.863 88.2442C228.241 88.2442 231.136 88.7267 231.136 91.622C231.136 93.5521 230.654 94.0347 230.654 94.0347C230.654 94.0347 227.759 94.0347 226.311 94.0347C218.108 94.0347 208.939 97.4124 208.939 108.511C208.939 117.197 214.73 119.127 218.108 119.127C224.863 119.127 227.759 114.784 228.241 114.784L227.759 118.644H236.444L240.305 92.1045C240.787 80.5236 230.654 80.041 227.276 80.041ZM229.689 101.755C229.689 103.203 228.724 110.924 222.933 110.924C220.038 110.924 219.073 108.511 219.073 107.063C219.073 104.651 220.52 101.273 227.759 101.273C229.206 101.755 229.206 101.755 229.689 101.755Z" fill="white"/>
<path d="M248.507 118.644C251.403 102.721 251.885 89.6921 258.641 92.1048C259.606 85.8317 261.054 83.419 262.019 81.0063C262.019 81.0063 261.536 81.0063 260.088 81.0063C255.746 81.0063 252.368 86.7968 252.368 86.7968L253.333 81.4889H244.165L237.892 119.127H248.507V118.644Z" fill="white"/>
<path d="M108.571 111.406C108.571 117.197 111.949 119.609 116.292 119.609C119.67 119.609 122.565 118.644 123.53 118.162L124.978 109.959C124.495 109.959 123.53 110.441 122.565 110.441C119.187 110.441 118.705 108.511 119.187 107.546L122.082 90.657H127.39L128.838 81.4887H124.013L124.978 75.6982" fill="#DCE5E5"/>
<path d="M131.733 102.721C131.733 116.232 136.076 119.61 143.797 119.61C151.035 119.61 153.93 118.162 153.93 118.162L155.86 108.994C155.86 108.994 150.552 111.406 145.727 111.406C135.111 111.406 137.041 103.686 137.041 103.686H156.825C156.825 103.686 158.273 97.4127 158.273 95C158.273 88.727 154.895 81.0064 144.279 81.0064C134.146 80.0413 131.733 90.6572 131.733 102.721ZM143.797 88.727C149.105 88.727 150.07 95 150.07 95.4826H137.524C137.524 95 138.489 88.727 143.797 88.727Z" fill="#DCE5E5"/>
<path d="M205.08 118.162L207.01 107.546C207.01 107.546 202.184 109.959 198.807 109.959C192.051 109.959 189.156 104.651 189.156 98.8602C189.156 87.2793 194.946 81.0063 201.702 81.0063C206.527 81.0063 210.387 83.9015 210.387 83.9015L211.835 73.7682C211.835 73.7682 206.045 71.3555 200.737 71.3555C189.638 71.3555 183.365 81.0063 183.365 99.3428C183.365 111.406 184.33 119.609 195.911 119.609C199.772 119.609 205.08 118.162 205.08 118.162Z" fill="#DCE5E5"/>
<path d="M57.4222 90.6571C57.4222 90.6571 61.7651 88.727 68.0381 88.727C71.4159 88.727 74.3111 89.2095 74.3111 92.1048C74.3111 94.0349 73.8286 94.5175 73.8286 94.5175C73.8286 94.5175 70.9333 94.5175 69.4857 94.5175C61.2825 94.5175 52.1143 97.8952 52.1143 108.994C52.1143 117.679 57.9047 119.61 61.2825 119.61C68.0381 119.61 70.9333 115.267 71.4159 115.267L70.9333 119.127H79.619L83.4793 92.5873C83.4793 81.4889 73.8286 81.0063 69.9682 81.0063L57.4222 90.6571ZM77.2063 101.756C77.2063 103.203 71.4159 110.924 65.6254 110.924C62.7301 110.924 61.7651 108.511 61.7651 107.063C61.7651 104.651 63.2127 101.273 70.4508 101.273C71.8984 101.756 77.2063 101.756 77.2063 101.756Z" fill="#DCE5E5"/>
<path d="M82.0312 118.162C82.0312 118.162 84.9265 119.127 93.1297 119.127C95.5424 119.127 107.606 119.609 107.606 106.581C107.606 94.5173 96.0249 96.93 96.0249 92.1046C96.0249 89.6919 97.9551 88.7269 101.333 88.7269C102.78 88.7269 108.088 89.2094 108.088 89.2094L109.536 80.5237C109.536 80.5237 106.158 79.5586 100.368 79.5586C93.1297 79.5586 90.717 82.4538 90.717 92.1046C90.717 103.203 97.9551 102.238 97.9551 106.581C97.9551 109.476 94.5773 109.959 92.1646 109.959" fill="#DCE5E5"/>
<path d="M283.251 85.3493C283.251 85.3493 279.391 80.5239 274.083 80.5239C265.397 80.5239 262.502 91.1397 262.502 103.686C262.502 111.406 261.537 119.61 269.74 119.61C275.53 119.61 278.908 115.749 278.908 115.749L278.426 119.127H288.076L295.314 72.8032L283.251 85.3493ZM282.768 97.8953C282.768 103.203 278.426 109.959 273.118 109.959C269.74 109.959 267.81 107.064 267.81 102.238C267.81 94.5175 271.188 89.6921 275.53 89.6921C278.908 89.6921 282.768 92.1048 282.768 97.8953Z" fill="#DCE5E5"/>
<path d="M17.8538 118.644L23.6443 83.9013L24.6094 118.644H31.3649L43.9109 83.9013L38.603 118.644H48.7363L56.457 72.3203H44.3935L30.8824 100.79L30.3998 72.3203H25.0919L8.68555 118.644H17.8538Z" fill="#DCE5E5"/>
<path d="M157.308 118.644H167.441C170.336 102.721 170.819 89.6921 177.574 92.1048C178.539 85.8317 179.987 83.419 180.952 81.0063C180.952 81.0063 180.47 81.0063 179.022 81.0063C174.679 81.0063 171.301 86.7968 171.301 86.7968L172.266 81.4889" fill="#DCE5E5"/>
<path d="M214.247 90.6571C214.247 90.6571 218.59 88.727 224.863 88.727C228.241 88.727 231.136 89.2095 231.136 92.1048C231.136 94.0349 230.654 94.5175 230.654 94.5175C230.654 94.5175 227.759 94.5175 226.311 94.5175C218.108 94.5175 208.939 97.8952 208.939 108.994C208.939 117.679 214.73 119.61 218.108 119.61C224.863 119.61 227.759 115.267 228.241 115.267L227.759 119.127H236.444L240.305 92.5873C240.305 81.4889 230.654 81.0063 226.793 81.0063L214.247 90.6571ZM234.032 101.756C234.032 103.203 228.241 110.924 222.451 110.924C219.555 110.924 218.59 108.511 218.59 107.063C218.59 104.651 220.038 101.273 227.276 101.273C229.206 101.756 234.032 101.756 234.032 101.756Z" fill="#DCE5E5"/>
<path d="M238.375 118.644H248.508C251.404 102.721 251.886 89.6921 258.642 92.1048C259.607 85.8317 261.054 83.419 262.019 81.0063C262.019 81.0063 261.537 81.0063 260.089 81.0063C255.746 81.0063 252.369 86.7968 252.369 86.7968L253.334 81.4889" fill="#DCE5E5"/>
</g>
<defs>
<clipPath id="clip0">
<rect width="304" height="304" fill="white" transform="translate(0 -57)"/>
</clipPath>
</defs>
</svg>
