<svg width="504" height="134" viewBox="0 0 504 134" fill="none" xmlns="http://www.w3.org/2000/svg">
<rect width="504" height="134" fill="#E5E5E5"/>
<rect x="-63" y="-90" width="704" height="362" fill="white"/>
<path d="M389.6 38.2002H362.4C360.8 38.2002 359.2 39.8002 358.4 41.4002L347.2 111.8C347.2 113.4 348 114.2 349.6 114.2H364C365.6 114.2 366.4 113.4 366.4 111.8L369.6 91.8002C369.6 90.2002 371.2 88.6002 373.6 88.6002H382.4C400.8 88.6002 411.2 79.8002 413.6 62.2002C415.2 55.0002 413.6 48.6002 410.4 44.6002C405.6 40.6002 398.4 38.2002 389.6 38.2002ZM392.8 64.6002C391.2 74.2002 384 74.2002 376.8 74.2002H372L375.2 55.8002C375.2 55.0002 376 54.2002 377.6 54.2002H379.2C384 54.2002 388.8 54.2002 391.2 57.4002C392.8 58.2002 392.8 60.6002 392.8 64.6002Z" fill="#139AD6"/>
<path d="M193.6 38.2002H166.4C164.8 38.2002 163.2 39.8002 162.4 41.4002L151.2 111.8C151.2 113.4 152 114.2 153.6 114.2H166.4C168 114.2 169.6 112.6 170.4 111L173.6 91.8002C173.6 90.2002 175.2 88.6002 177.6 88.6002H186.4C204.8 88.6002 215.2 79.8002 217.6 62.2002C219.2 55.0002 217.6 48.6002 214.4 44.6002C209.6 40.6002 203.2 38.2002 193.6 38.2002ZM196.8 64.6002C195.2 74.2002 188 74.2002 180.8 74.2002H176.8L180 55.8002C180 55.0002 180.8 54.2002 182.4 54.2002H184C188.8 54.2002 193.6 54.2002 196 57.4002C196.8 58.2002 197.6 60.6002 196.8 64.6002Z" fill="#263B80"/>
<path d="M276.001 63.8002H263.201C262.401 63.8002 260.801 64.6002 260.801 65.4002L260.001 69.4002L259.201 67.8002C256.001 63.8002 250.401 62.2002 244.001 62.2002C229.601 62.2002 216.801 73.4002 214.401 88.6002C212.801 96.6002 215.201 103.8 219.201 108.6C223.201 113.4 228.801 115 236.001 115C248.001 115 254.401 107.8 254.401 107.8L253.601 111.8C253.601 113.4 254.401 114.2 256.001 114.2H268.001C269.601 114.2 271.201 112.6 272.001 111L279.201 66.2002C278.401 65.4002 276.801 63.8002 276.001 63.8002ZM257.601 89.4002C256.001 96.6002 250.401 102.2 242.401 102.2C238.401 102.2 235.201 100.6 233.601 99.0002C232.001 96.6002 231.201 93.4002 231.201 89.4002C232.001 82.2002 238.401 76.6002 245.601 76.6002C249.601 76.6002 252.001 78.2002 254.401 79.8002C256.801 82.2002 257.601 86.2002 257.601 89.4002Z" fill="#263B80"/>
<path d="M471.2 63.8002H458.4C457.6 63.8002 456 64.6002 456 65.4002L455.2 69.4002L454.4 67.8002C451.2 63.8002 445.6 62.2002 439.2 62.2002C424.8 62.2002 412 73.4002 409.6 88.6002C408 96.6002 410.4 103.8 414.4 108.6C418.4 113.4 424 115 431.2 115C443.2 115 449.6 107.8 449.6 107.8L448.8 111.8C448.8 113.4 449.6 114.2 451.2 114.2H463.2C464.8 114.2 466.4 112.6 467.2 111L474.4 66.2002C473.6 65.4002 472.8 63.8002 471.2 63.8002ZM452.8 89.4002C451.2 96.6002 445.6 102.2 437.6 102.2C433.6 102.2 430.4 100.6 428.8 99.0002C427.2 96.6002 426.4 93.4002 426.4 89.4002C427.2 82.2002 433.6 76.6002 440.8 76.6002C444.8 76.6002 447.2 78.2002 449.6 79.8002C452.8 82.2002 453.6 86.2002 452.8 89.4002Z" fill="#139AD6"/>
<path d="M345.6 63.7998H332C330.4 63.7998 329.6 64.5998 328.8 65.3998L311.2 92.5998L303.2 66.9998C302.4 65.3998 301.6 64.5998 299.2 64.5998H286.4C284.8 64.5998 284 66.1998 284 67.7998L298.4 110.2L284.8 129.4C284 131 284.8 133.4 286.4 133.4H299.2C300.8 133.4 301.6 132.6 302.4 131.8L346.4 68.5998C348.8 66.1998 347.2 63.7998 345.6 63.7998Z" fill="#263B80"/>
<path d="M486.4 40.5999L475.2 112.6C475.2 114.2 476 115 477.6 115H488.8C490.4 115 492 113.4 492.8 111.8L504 41.3999C504 39.7999 503.2 38.9999 501.6 38.9999H488.8C488 38.1999 487.2 38.9999 486.4 40.5999Z" fill="#139AD6"/>
<path d="M92 14.2001C86.4 7.80009 76 4.6001 61.6 4.6001H21.6C19.2 4.6001 16.8 7.00009 16 9.40009L0 114.2C0 116.6 1.6 118.2 3.2 118.2H28L34.4 79.0001V80.6001C35.2 78.2001 37.6 75.8001 40 75.8001H52C75.2 75.8001 92.8 66.2001 98.4 39.8001C98.4 39.0001 98.4 38.2001 98.4 37.4001C97.6 37.4001 97.6 37.4001 98.4 37.4001C99.2 27.0001 97.6 20.6001 92 14.2001Z" fill="#263B80"/>
<path d="M97.5996 37.3999C97.5996 38.1999 97.5996 38.9999 97.5996 39.7999C91.9996 66.9999 74.3996 75.7999 51.1996 75.7999H39.1996C36.7996 75.7999 34.3996 78.1999 33.5996 80.5999L25.5996 129.4C25.5996 131 26.3996 132.6 28.7996 132.6H49.5996C51.9996 132.6 54.3996 131 54.3996 128.6V127.8L58.3996 103V101.4C58.3996 98.9999 60.7996 97.3999 63.1996 97.3999H66.3996C86.3996 97.3999 102.4 89.3999 106.4 65.3999C108 55.7999 107.2 46.9999 102.4 41.3999C101.6 39.7999 99.9996 38.1999 97.5996 37.3999Z" fill="#139AD6"/>
<path d="M92.0004 35.0001C91.2004 35.0001 90.4004 34.2001 89.6004 34.2001C88.8004 34.2001 88.0004 34.2001 87.2004 33.4001C84.0004 32.6001 80.8004 32.6001 76.8004 32.6001H45.6004C44.8004 32.6001 44.0004 32.6001 43.2004 33.4001C41.6004 34.2001 40.8004 35.8001 40.8004 37.4001L34.4004 79.0001V80.6001C35.2004 78.2001 37.6004 75.8001 40.0004 75.8001H52.0004C75.2004 75.8001 92.8004 66.2001 98.4004 39.8001C98.4004 39.0001 98.4004 38.2001 99.2004 37.4001C97.6004 36.6001 96.8004 35.8001 95.2004 35.8001C92.8004 35.0001 92.8004 35.0001 92.0004 35.0001Z" fill="#232C65"/>
</svg>
