<svg width="504" height="155" viewBox="0 0 504 155" fill="none" xmlns="http://www.w3.org/2000/svg">
<rect width="504" height="155" fill="#E5E5E5"/>
<rect x="-100" y="-91" width="704" height="362" fill="white"/>
<path d="M184.8 150.4L210.4 6.3999H250.4L225.6 150.4H184.8Z" fill="#3C58BF"/>
<path d="M184.8 150.4L217.6 6.3999H250.4L225.6 150.4H184.8Z" fill="#293688"/>
<path d="M370.4 8.00009C362.4 4.80009 349.6 1.6001 333.6 1.6001C293.6 1.6001 264.8 21.6001 264.8 50.4001C264.8 72.0001 284.8 83.2001 300.8 90.4001C316.8 97.6001 321.6 102.4 321.6 108.8C321.6 118.4 308.8 123.2 297.6 123.2C281.6 123.2 272.8 120.8 259.2 115.2L253.6 112.8L248 145.6C257.6 149.6 275.2 153.6 293.6 153.6C336 153.6 364 133.6 364 103.2C364 86.4001 353.6 73.6001 329.6 63.2001C315.2 56.0001 306.4 52.0001 306.4 44.8001C306.4 38.4001 313.6 32.0001 329.6 32.0001C343.2 32.0001 352.8 34.4001 360 37.6001L364 39.2001L370.4 8.00009Z" fill="#3C58BF"/>
<path d="M370.4 8.00009C362.4 4.80009 349.6 1.6001 333.6 1.6001C293.6 1.6001 272 21.6001 272 50.4001C272 72.0001 284.8 83.2001 300.8 90.4001C316.8 97.6001 321.6 102.4 321.6 108.8C321.6 118.4 308.8 123.2 297.6 123.2C281.6 123.2 272.8 120.8 259.2 115.2L253.6 112.8L248 145.6C257.6 149.6 275.2 153.6 293.6 153.6C336 153.6 364 133.6 364 103.2C364 86.4001 353.6 73.6001 329.6 63.2001C315.2 56.0001 306.4 52.0001 306.4 44.8001C306.4 38.4001 313.6 32.0001 329.6 32.0001C343.2 32.0001 352.8 34.4001 360 37.6001L364 39.2001L370.4 8.00009Z" fill="#293688"/>
<path d="M439.2 6.3999C429.6 6.3999 422.4 7.19991 418.4 16.7999L358.4 150.4H401.6L409.6 126.4H460.8L465.6 150.4H504L470.4 6.3999H439.2V6.3999ZM420.8 102.4C423.2 95.1999 436.8 59.9999 436.8 59.9999C436.8 59.9999 440 51.1999 442.4 45.5999L444.8 59.1999C444.8 59.1999 452.8 95.1999 454.4 103.2H420.8V102.4Z" fill="#3C58BF"/>
<path d="M448.8 6.3999C439.2 6.3999 432 7.19991 428 16.7999L358.4 150.4H401.6L409.6 126.4H460.8L465.6 150.4H504L470.4 6.3999H448.8V6.3999ZM420.8 102.4C424 94.3999 436.8 59.9999 436.8 59.9999C436.8 59.9999 440 51.1999 442.4 45.5999L444.8 59.1999C444.8 59.1999 452.8 95.1999 454.4 103.2H420.8V102.4Z" fill="#293688"/>
<path d="M111.2 107.2L107.2 86.4002C100 62.4002 76.8002 36.0002 51.2002 23.2002L87.2002 151.2H130.4L195.2 7.2002H152L111.2 107.2Z" fill="#3C58BF"/>
<path d="M111.2 107.2L107.2 86.4002C100 62.4002 76.8002 36.0002 51.2002 23.2002L87.2002 151.2H130.4L195.2 7.2002H160L111.2 107.2Z" fill="#293688"/>
<path d="M0 6.3999L7.2 7.99991C58.4 19.9999 93.6 50.3999 107.2 86.3999L92.8 18.3999C90.4 8.7999 83.2 6.3999 74.4 6.3999H0V6.3999Z" fill="#FFBC00"/>
<path d="M0 6.3999C51.2 18.3999 93.6 49.5999 107.2 85.5999L93.6 28.7999C91.2 19.1999 83.2 13.5999 74.4 13.5999L0 6.3999Z" fill="#F7981D"/>
<path d="M0 6.3999C51.2 18.3999 93.6 49.5999 107.2 85.5999L97.6 54.3999C95.2 44.7999 92 35.1999 80.8 31.1999L0 6.3999Z" fill="#ED7C00"/>
<path d="M151.2 102.4L124 75.1999L111.2 105.6L108 85.5999C100.8 61.5999 77.6 35.1999 52 22.3999L88 150.4H131.2L151.2 102.4Z" fill="#051244"/>
<path d="M225.6 150.4L191.2 115.2L184.8 150.4H225.6Z" fill="#051244"/>
<path d="M317.6 100.8C320.8 104 322.4 106.4 321.6 109.6C321.6 119.2 308.8 124 297.6 124C281.6 124 272.8 121.6 259.2 116L253.6 113.6L248 146.4C257.6 150.4 275.2 154.4 293.6 154.4C319.2 154.4 340 147.2 352 134.4L317.6 100.8Z" fill="#051244"/>
<path d="M364 150.4H401.6L409.6 126.4H460.8L465.6 150.4H504L490.4 92.0001L442.4 45.6001L444.8 58.4001C444.8 58.4001 452.8 94.4001 454.4 102.4H420.8C424 94.4001 436.8 60.0001 436.8 60.0001C436.8 60.0001 440 51.2001 442.4 45.6001" fill="#051244"/>
</svg>
