<svg width="124" height="24" viewBox="0 0 124 24" fill="none" xmlns="http://www.w3.org/2000/svg">
<path d="M123.613 12.2529C122.775 13.5413 120.914 14.2668 118.91 13.9468C116.906 13.6268 115.364 12.358 114.969 10.8728C115.807 9.58438 117.668 8.85887 119.672 9.17888C121.676 9.4989 123.218 10.7677 123.613 12.2529Z" fill="#2FC8B4"/>
<path d="M114.285 11.0987C114.36 11.2035 114.491 11.2623 114.628 11.2394C114.665 11.2332 118.255 10.6581 121.384 12.241C121.557 12.3288 121.769 12.2593 121.856 12.086C121.944 11.9127 121.875 11.7011 121.701 11.6134C118.361 9.92316 114.667 10.5195 114.511 10.5457C114.32 10.5779 114.191 10.7594 114.223 10.9509C114.232 11.0062 114.254 11.0563 114.285 11.0987Z" fill="#202B36"/>
<path d="M114.868 18.4094C114.092 19.3015 112.597 19.6553 111.104 19.1971C109.611 18.739 108.572 17.6071 108.43 16.4333C109.206 15.5412 110.701 15.1874 112.194 15.6456C113.687 16.1037 114.726 17.2355 114.868 18.4094Z" fill="#2FC8B4"/>
<path d="M107.838 16.6116C107.904 16.7025 108.012 16.7603 108.133 16.7571C108.171 16.7561 110.938 16.7064 113.125 18.2285C113.284 18.3395 113.503 18.3001 113.614 18.1407C113.725 17.9813 113.686 17.7621 113.527 17.6512C111.141 15.9909 108.236 16.0506 108.114 16.0539C107.919 16.0592 107.766 16.221 107.772 16.4151C107.774 16.4887 107.798 16.5562 107.838 16.6116Z" fill="#202B36"/>
<path d="M111.692 4.00407C110.359 4.35837 109.219 5.74268 108.932 7.5415C108.645 9.34029 109.296 11.0104 110.453 11.7623C111.786 11.408 112.925 10.0236 113.212 8.22483C113.499 6.42603 112.848 4.75583 111.692 4.00407Z" fill="#2FC8B4"/>
<path d="M110.04 12.3042C110.071 12.3467 110.112 12.383 110.161 12.409C110.333 12.4991 110.545 12.433 110.636 12.2611C110.702 12.1352 112.248 9.1407 111.738 5.80758C111.709 5.61553 111.53 5.48372 111.338 5.5131C111.146 5.54248 111.014 5.72194 111.043 5.91396C111.517 9.01279 110.028 11.9054 110.013 11.9343C109.949 12.0567 109.964 12.1995 110.04 12.3042Z" fill="#202B36"/>
<path d="M104.014 20.8041C104.697 20.4647 105.357 20.089 105.991 19.6648C107.223 18.8404 108.285 17.7337 108.936 16.3932C109.375 15.4892 109.685 14.5271 110.16 13.6399C110.713 12.6086 111.777 12.0961 112.856 11.7908C113.614 11.5765 114.391 11.4497 115.17 11.337L115.179 11.3357C115.449 11.2967 115.636 11.0463 115.597 10.7764C115.56 10.5234 115.335 10.3433 115.085 10.354C114.246 10.3899 113.4 10.4564 112.577 10.6277C111.398 10.8729 110.229 11.3164 109.407 12.235C108.554 13.1876 108.233 14.4543 107.623 15.5519C107.048 16.5876 106.199 17.4279 105.233 18.103C104.602 18.5443 103.924 18.913 103.238 19.2613C102.813 19.4773 102.643 19.9971 102.859 20.4223C103.074 20.8452 103.59 21.0152 104.014 20.8041Z" fill="#202B36"/>
<path d="M104.014 20.8041C103.59 21.0152 103.074 20.8451 102.859 20.4223C102.643 19.9971 102.813 19.4773 103.238 19.2613C103.924 18.9129 104.602 18.5442 105.233 18.103C105.408 17.9811 105.578 17.8535 105.744 17.7206C105.906 17.8991 106.06 18.088 106.204 18.2868C106.399 18.5563 106.572 18.8371 106.721 19.1252C106.486 19.3164 106.242 19.4967 105.991 19.6648C105.357 20.0889 104.697 20.4647 104.014 20.8041Z" fill="#00AE95"/>
<path d="M16.4659 18.3713C16.4129 18.5724 16.3547 18.8053 16.2912 19.0699C16.2383 19.324 16.2118 19.5674 16.2118 19.8003C16.2118 20.0121 16.2436 20.192 16.3071 20.3402C16.3706 20.4884 16.5082 20.5625 16.7199 20.5625C17.0057 20.5625 17.3445 20.4619 17.7361 20.2608C18.1384 20.0491 18.5671 19.7739 19.0223 19.4351C19.4775 19.0858 19.9485 18.6888 20.4355 18.2443C20.9224 17.7891 21.4041 17.3233 21.8804 16.847C22.3568 16.36 22.812 15.8731 23.2458 15.3861C23.6799 14.8992 24.0663 14.444 24.405 14.0206L24.9926 16.1324C24.2939 17.064 23.5742 17.9584 22.833 18.8159C22.0921 19.6733 21.3352 20.4302 20.5625 21.0865C19.8003 21.7428 19.0329 22.2668 18.2601 22.6583C17.4874 23.0502 16.7199 23.2459 15.9578 23.2459C15.5132 23.2459 15.1321 23.1719 14.8145 23.0237C14.5075 22.886 14.2588 22.6954 14.0682 22.4519C13.8777 22.1979 13.7348 21.9122 13.6395 21.5946C13.5548 21.2664 13.5125 20.9224 13.5125 20.5625C13.5125 20.4249 13.5178 20.229 13.5284 19.975C13.539 19.7209 13.5495 19.4616 13.5601 19.197C13.5813 18.9217 13.5972 18.673 13.6078 18.4507C13.6289 18.2284 13.6395 18.0855 13.6395 18.022L8.00269 18.3713L5.38277 18.403C4.93817 19.3663 4.49887 20.2185 4.06486 20.9595C3.87433 21.277 3.67321 21.5893 3.46149 21.8963C3.24978 22.2033 3.03807 22.4786 2.82636 22.722C2.61465 22.9549 2.40294 23.14 2.19122 23.2778C1.97951 23.4259 1.77308 23.5 1.57196 23.5C1.25439 23.5 0.995045 23.4524 0.793918 23.3571C0.592793 23.2618 0.434008 23.14 0.317568 22.9919C0.201125 22.8544 0.11644 22.6954 0.0635135 22.5156C0.0211712 22.3356 0 22.1663 0 22.0074C0 21.7322 0.037049 21.4623 0.111147 21.1976C0.185247 20.9224 0.291103 20.6631 0.428717 20.4196L2.52466 16.8946C2.61993 16.7464 2.81046 16.3918 3.09629 15.8308C3.39268 15.2697 3.76846 14.5816 4.22366 13.7665C4.68942 12.9409 5.224 12.0305 5.82736 11.0355C6.43074 10.0404 7.08175 9.0348 7.78041 8.01858C8.48964 6.99177 9.23593 5.99674 10.0192 5.03346C10.8132 4.07015 11.623 3.21802 12.4486 2.47702C13.2849 1.72545 14.1265 1.12737 14.9733 0.682771C15.8202 0.22759 16.6617 0 17.498 0C18.2813 0 19.0488 0.24347 19.8003 0.730407C20.5625 1.21734 21.2876 2.01656 21.9756 3.12805C22.0499 3.27624 22.0869 3.40326 22.0869 3.50913C22.0869 3.64673 22.0499 3.78435 21.9756 3.92196C21.9016 4.05958 21.801 4.1813 21.674 4.28717C21.5575 4.39301 21.4252 4.4777 21.277 4.54122C21.1288 4.60473 20.9753 4.63648 20.8165 4.63648C20.626 4.63648 20.4037 4.59413 20.1497 4.50945C19.9062 4.42477 19.6733 4.24483 19.451 3.96959C19.1229 3.58851 18.7788 3.3133 18.4189 3.14393C18.0696 2.96397 17.7203 2.874 17.3709 2.874C16.8734 2.874 16.3653 3.0169 15.8466 3.3027C15.3279 3.57792 14.8039 3.959 14.2747 4.44595C13.756 4.92231 13.2373 5.47804 12.7186 6.11317C12.1999 6.73772 11.6971 7.39932 11.2101 8.09798C10.7232 8.79662 10.2521 9.51115 9.79697 10.2416C9.34177 10.972 8.91306 11.6706 8.5108 12.3375C8.10856 13.0044 7.73807 13.6184 7.39933 14.1794C7.07116 14.7404 6.78007 15.2115 6.52602 15.5926H9.43176L14.3382 15.2274C14.4334 15.0157 14.5605 14.7299 14.7193 14.3699C14.8781 13.9994 15.0527 13.5866 15.2432 13.1314C15.4444 12.6762 15.6614 12.184 15.8943 11.6547C16.1271 11.1254 16.36 10.5962 16.5929 10.0669C16.8364 9.52703 17.0745 8.99774 17.3074 8.47906C17.5403 7.94977 17.7573 7.46285 17.9584 7.01824C18.0961 6.616 18.2972 6.33017 18.5618 6.1608C18.837 5.99143 19.1282 5.90675 19.4351 5.90675C19.5939 5.90675 19.7527 5.93321 19.9115 5.98615C20.0703 6.02849 20.2132 6.10258 20.3402 6.20845C20.4778 6.30373 20.589 6.43075 20.6736 6.58953C20.7583 6.73772 20.806 6.91768 20.8165 7.12939C20.8165 7.33051 20.7266 7.67456 20.5466 8.16148C20.3772 8.64843 20.1549 9.22004 19.8797 9.87636C19.6151 10.5327 19.3134 11.2472 18.9747 12.0199C18.6465 12.7821 18.3183 13.5496 17.9902 14.3223C17.6726 15.0845 17.3762 15.8202 17.101 16.5294C16.8258 17.2281 16.6141 17.842 16.4659 18.3713ZM27.6124 13.6395C28.0254 13.3855 28.4486 13.1526 28.8827 12.9409C29.3273 12.7292 29.7562 12.5492 30.169 12.401C30.5818 12.2422 30.9734 12.1205 31.344 12.0358C31.7249 11.9405 32.0637 11.8929 32.3602 11.8929C32.8364 11.8929 33.2016 12.0094 33.4557 12.2422C33.7203 12.4645 33.8527 12.8456 33.8527 13.3855C33.8527 13.5019 33.8475 13.629 33.8368 13.7665C33.8262 13.8936 33.805 14.0312 33.7734 14.1794C33.7203 14.4546 33.5616 14.7775 33.2969 15.148C33.0322 15.5185 32.7201 15.9048 32.3602 16.3071C32.0108 16.7094 31.6296 17.1169 31.2168 17.5297C30.8146 17.932 30.4388 18.3078 30.0895 18.6571C29.7508 18.9958 29.4649 19.2922 29.232 19.5463C29.0098 19.8003 28.8987 19.975 28.8987 20.0703C28.8987 20.155 28.9039 20.2132 28.9145 20.2449C28.9251 20.2767 28.9728 20.2926 29.0575 20.2926C29.629 20.0491 30.2643 19.758 30.9628 19.4193C31.6721 19.0699 32.376 18.7153 33.0747 18.3554C33.7734 17.9955 34.4348 17.6462 35.0595 17.3074C35.6841 16.9581 36.2132 16.6564 36.6473 16.4024C36.7426 16.3494 36.8378 16.3071 36.9331 16.2753C37.0391 16.233 37.1341 16.2118 37.2188 16.2118C37.4094 16.2118 37.5682 16.2753 37.6953 16.4024C37.8222 16.5294 37.8859 16.6988 37.8859 16.9105C37.8859 17.1539 37.78 17.4345 37.5682 17.752C37.3672 18.059 37.023 18.3819 36.5361 18.7206C36.1656 18.9535 35.7476 19.2181 35.2817 19.5145C34.8266 19.8003 34.345 20.102 33.8368 20.4196C33.3394 20.7266 32.8312 21.0283 32.3125 21.3247C31.8044 21.6211 31.3121 21.8857 30.8358 22.1186C30.3594 22.3515 29.9095 22.542 29.4861 22.6902C29.0733 22.8277 28.7133 22.8966 28.4064 22.8966C27.6761 22.8966 27.1255 22.722 26.755 22.3727C26.3952 22.0233 26.2152 21.5734 26.2152 21.023C26.2152 20.9383 26.2204 20.8748 26.231 20.8324C26.3051 20.3667 26.4429 19.9168 26.6438 19.4828C26.8451 19.0488 27.0727 18.6359 27.3267 18.2443C27.5808 17.8526 27.8455 17.4821 28.1205 17.1328C28.3958 16.7729 28.6447 16.4394 28.8669 16.1324C29.0997 15.8149 29.2903 15.5238 29.4384 15.2591C29.5868 14.9945 29.6609 14.751 29.6609 14.5287C29.6609 14.4758 29.6503 14.4229 29.629 14.3699C29.6078 14.317 29.5602 14.2905 29.4861 14.2905C29.3592 14.2905 29.1473 14.3382 28.8511 14.4335C28.5652 14.5287 28.2583 14.6557 27.9301 14.8145C27.6018 14.9733 27.2897 15.1586 26.9932 15.3703C26.6969 15.5714 26.4851 15.7884 26.3582 16.0213C26.1888 16.3177 25.993 16.6935 25.7706 17.1486C25.5484 17.6038 25.3155 18.0802 25.0719 18.5777C24.839 19.0752 24.6114 19.5674 24.3892 20.0544C24.167 20.5413 23.9764 20.9595 23.8176 21.3088C23.6905 21.6158 23.5211 21.891 23.3095 22.1344C23.1083 22.3779 22.8861 22.5843 22.6427 22.7536C22.399 22.923 22.1504 23.0554 21.8963 23.1506C21.6422 23.2459 21.4093 23.2936 21.1976 23.2936C20.9542 23.2936 20.7583 23.2301 20.6101 23.103C20.4725 22.9761 20.4037 22.7697 20.4037 22.4838C20.4037 22.3673 20.4196 22.2245 20.4513 22.0551C20.4937 21.8751 20.5731 21.6793 20.6895 21.4676C20.8801 21.1076 21.0706 20.716 21.2612 20.2926C21.4623 19.8692 21.6899 19.3875 21.944 18.8476C22.198 18.2972 22.4891 17.6726 22.8172 16.974C23.156 16.2647 23.553 15.4497 24.008 14.5287C23.8599 14.4017 23.733 14.2482 23.627 14.0682C23.5317 13.8777 23.4841 13.6448 23.4841 13.3696C23.4841 13.1155 23.5369 12.8985 23.6428 12.7186C23.7488 12.5281 23.8917 12.3746 24.0717 12.2581C24.2517 12.1417 24.4581 12.057 24.6909 12.004C24.9343 11.9405 25.1884 11.9088 25.4531 11.9088C25.7283 11.9088 26.0034 11.9353 26.2787 11.9882C26.554 12.0305 26.7974 12.0993 27.0092 12.1946C27.2314 12.2899 27.4114 12.4063 27.549 12.5439C27.6867 12.6815 27.7554 12.8403 27.7554 13.0203C27.7554 13.052 27.7447 13.0944 27.7237 13.1473C27.7025 13.2002 27.6761 13.2584 27.6443 13.322C27.623 13.3855 27.6018 13.4437 27.5808 13.4966C27.5596 13.5496 27.549 13.5919 27.549 13.6236C27.549 13.6448 27.5544 13.6554 27.5648 13.6554H27.5808L27.6124 13.6395ZM40.204 14.0682C39.8124 14.8304 39.4418 15.5767 39.0925 16.3071C38.7431 17.0269 38.415 17.6938 38.1081 18.3078C37.981 18.5618 37.8541 18.8582 37.7269 19.197C37.6106 19.5251 37.5524 19.8162 37.5524 20.0703C37.5524 20.2185 37.5842 20.3349 37.6477 20.4196C37.7217 20.5043 37.8383 20.5466 37.997 20.5466C38.2192 20.5466 38.4997 20.4831 38.8384 20.3561C39.1772 20.2185 39.5426 20.0438 39.9341 19.8321C40.3257 19.6098 40.7385 19.361 41.1726 19.0858C41.6066 18.8 42.03 18.5089 42.4428 18.2125C42.8663 17.9055 43.2687 17.6038 43.6497 17.3074C44.0306 17.0004 44.3694 16.7199 44.6659 16.4659C44.8352 16.3494 44.994 16.2912 45.1421 16.2912C45.3221 16.2912 45.4705 16.3706 45.5868 16.5294C45.7033 16.6882 45.7616 16.8893 45.7616 17.1328C45.7616 17.3762 45.7033 17.625 45.5868 17.8791C45.4705 18.1331 45.2587 18.3819 44.9518 18.6253C44.2637 19.2499 43.565 19.8427 42.8557 20.4037C42.1572 20.9647 41.4585 21.4623 40.7598 21.8963C40.0717 22.3196 39.389 22.6583 38.7115 22.9124C38.034 23.1665 37.3778 23.2936 36.7425 23.2936C36.3191 23.2936 35.9646 23.2353 35.6787 23.1188C35.3928 23.0131 35.16 22.8648 34.98 22.6744C34.8106 22.4732 34.6889 22.2455 34.6148 21.9916C34.5407 21.7269 34.5037 21.4464 34.5037 21.15C34.5037 20.6207 34.5936 20.0703 34.7736 19.4986C34.9536 18.927 35.1548 18.4136 35.377 17.9584C35.6945 17.3021 36.0068 16.6511 36.3139 16.0054C36.6314 15.3597 36.9383 14.7404 37.2348 14.1476H36.552C35.9592 14.1476 35.5518 14.0524 35.3293 13.8618C35.1071 13.6713 34.996 13.4543 34.996 13.2108C34.996 13.1049 35.0276 12.9779 35.0913 12.8297C35.1654 12.671 35.2659 12.5281 35.3928 12.401C35.5305 12.2634 35.6945 12.147 35.8851 12.0517C36.0757 11.9564 36.2927 11.9088 36.5361 11.9088H38.2511L41.6014 5.25574C41.813 4.8535 42.0725 4.56769 42.3794 4.39832C42.6969 4.21836 43.025 4.12837 43.3638 4.12837C43.6815 4.12837 43.9726 4.21305 44.2373 4.38242C44.5017 4.55179 44.634 4.83231 44.634 5.22399C44.634 5.42511 44.5864 5.63153 44.4913 5.84325C44.4066 6.04437 44.2901 6.28254 44.142 6.55778C44.0467 6.73772 43.9301 6.95474 43.7926 7.20879C43.6549 7.45225 43.5067 7.7169 43.348 8.0027C43.1998 8.27792 43.0411 8.56903 42.8717 8.87602C42.7129 9.18301 42.554 9.4794 42.3952 9.76521C42.0355 10.4427 41.6543 11.1572 41.2521 11.9088H46.4284C46.6825 11.9088 46.9153 11.9247 47.1269 11.9564C47.3387 11.9776 47.5187 12.0305 47.6669 12.1152C47.8256 12.1893 47.9473 12.2952 48.032 12.4328C48.1167 12.5704 48.1592 12.7556 48.1592 12.9885C48.1592 13.1049 48.1379 13.2214 48.0955 13.3378C48.0639 13.4543 47.995 13.5601 47.8891 13.6554C47.794 13.7507 47.6563 13.8301 47.4763 13.8936C47.3069 13.9571 47.0847 13.9994 46.8094 14.0206L40.204 14.0682ZM47.6827 9.16182C47.6827 8.91836 47.7251 8.66959 47.8098 8.41554C47.9051 8.15089 48.0426 7.91274 48.2226 7.70102C48.4026 7.48931 48.6248 7.31464 48.8895 7.17702C49.1648 7.03942 49.4877 6.97061 49.8581 6.97061C50.4721 6.97061 50.9007 7.09233 51.1441 7.33582C51.3878 7.56869 51.5095 7.86509 51.5095 8.22501C51.5095 8.42613 51.4671 8.64843 51.3824 8.89189C51.3083 9.13536 51.1918 9.36294 51.033 9.57465C50.8743 9.7758 50.6679 9.94517 50.4138 10.0828C50.1598 10.2204 49.8581 10.2892 49.5087 10.2892C48.8525 10.2892 48.392 10.1886 48.1273 9.98751C47.8627 9.7758 47.7145 9.50056 47.6827 9.16182ZM45.9361 12.7345C46.1161 12.4381 46.3225 12.2263 46.5554 12.0993C46.7882 11.9723 47.0264 11.9088 47.2699 11.9088C47.6723 11.9088 48.0162 12.0411 48.3021 12.3057C48.5984 12.5598 48.7465 12.8879 48.7465 13.2902C48.7359 13.3855 48.7201 13.4807 48.6989 13.576C48.6885 13.6713 48.6567 13.7665 48.6036 13.8618C48.4555 14.1371 48.3337 14.3699 48.2384 14.5605C48.1431 14.751 48.0533 14.931 47.9686 15.1003C47.8945 15.2591 47.8204 15.4179 47.7464 15.5767C47.6723 15.7355 47.5822 15.926 47.4763 16.1483C47.3494 16.413 47.2064 16.704 47.0477 17.0216C46.8889 17.3286 46.7353 17.6462 46.5872 17.9743C46.4494 18.3025 46.3277 18.6253 46.222 18.9429C46.1267 19.2605 46.0791 19.5516 46.0791 19.8162C46.0791 20.102 46.148 20.2926 46.2855 20.3878C46.4336 20.4725 46.64 20.5149 46.9047 20.5149C47.2012 20.5149 47.5081 20.4514 47.8256 20.3243C48.1538 20.1973 48.4819 20.0332 48.8102 19.8321C49.1384 19.631 49.4611 19.4034 49.7788 19.1493C50.0963 18.8847 50.3926 18.62 50.6679 18.3554C50.9538 18.0908 51.213 17.8367 51.4458 17.5932C51.6895 17.3498 51.8905 17.1328 52.0492 16.9422C52.2611 16.7411 52.4727 16.6405 52.6845 16.6405C52.8751 16.6405 53.0284 16.7252 53.145 16.8946C53.2719 17.064 53.3356 17.281 53.3356 17.5456C53.3356 17.7891 53.2719 18.0484 53.145 18.3236C53.0284 18.5989 52.8326 18.8582 52.5574 19.1017C52.0176 19.6521 51.4671 20.1814 50.9061 20.6895C50.3449 21.187 49.7682 21.6317 49.1754 22.0233C48.5932 22.4043 48.0056 22.7114 47.4128 22.9442C46.82 23.1771 46.222 23.2936 45.6186 23.2936C44.7612 23.2936 44.0837 23.0766 43.5862 22.6425C43.0993 22.1979 42.8557 21.5099 42.8557 20.5784C42.8557 20.0914 42.9245 19.6151 43.0621 19.1493C43.1998 18.6836 43.3638 18.2337 43.5544 17.7997C43.745 17.3551 43.9462 16.9317 44.1578 16.5294C44.3694 16.1166 44.5493 15.7249 44.6977 15.3544C44.7506 15.2168 44.8404 15.0051 44.9676 14.7193C45.1051 14.4335 45.2481 14.1423 45.3962 13.8459C45.5656 13.4966 45.7455 13.1261 45.9361 12.7345ZM56.0348 13.9571C56.6805 14.2958 57.2575 14.6822 57.7656 15.1162C58.2737 15.5502 58.7023 16.0107 59.0517 16.4976C59.4116 16.974 59.6815 17.4609 59.8615 17.9584C60.0521 18.456 60.1474 18.9429 60.1474 19.4193C60.1474 20.0226 59.9726 20.5678 59.6232 21.0547C59.2845 21.5311 58.8346 21.9386 58.2737 22.2774C57.7231 22.6055 57.0881 22.8544 56.3682 23.0237C55.6591 23.2035 54.9391 23.2936 54.2088 23.2936C53.6583 23.2936 53.1237 23.2301 52.605 23.103C52.0863 22.9867 51.61 22.8013 51.176 22.5472C50.7526 22.2932 50.3874 21.9704 50.0805 21.5787C49.7734 21.1765 49.5564 20.7001 49.4294 20.1497C49.4082 20.065 49.3976 19.9962 49.3976 19.9432C49.3976 19.6574 49.4981 19.414 49.6993 19.2128C49.9005 19.0011 50.1227 18.8953 50.3662 18.8953C50.4827 18.8953 50.6096 18.9164 50.7474 18.9588C50.8955 19.0011 51.0066 19.0964 51.0807 19.2446C51.2184 19.4986 51.4088 19.7262 51.6522 19.9274C51.9065 20.1285 52.187 20.3031 52.4939 20.4514C52.8008 20.589 53.1237 20.7001 53.4625 20.7848C53.8118 20.8589 54.1506 20.8959 54.4787 20.8959C54.8174 20.8959 55.1404 20.8642 55.4472 20.8007C55.7648 20.7372 56.04 20.6366 56.2729 20.499C56.5165 20.3614 56.7069 20.1867 56.8447 19.975C56.9822 19.7633 57.0511 19.5039 57.0511 19.197C57.0511 18.6571 56.9293 18.1596 56.6859 17.7044C56.4422 17.2492 56.1247 16.8311 55.7331 16.45C55.3519 16.0583 54.9127 15.6984 54.4152 15.3703C53.9283 15.0315 53.4412 14.7087 52.9544 14.4017C52.9015 14.3699 52.822 14.28 52.7161 14.1318C52.6104 13.973 52.5574 13.8142 52.5574 13.6554C52.5574 13.5284 52.5892 13.4278 52.6527 13.3537C52.822 13.1314 53.0178 12.9038 53.2403 12.671C53.4625 12.4381 53.7007 12.2263 53.9548 12.0358C54.2088 11.8347 54.4841 11.6759 54.7804 11.5595C55.0769 11.4324 55.3838 11.3689 55.7013 11.3689C55.9341 11.3689 56.1511 11.4007 56.3524 11.4642C56.5536 11.5277 56.7229 11.6124 56.8605 11.7182C56.998 11.8135 57.1039 11.9247 57.178 12.0517C57.2627 12.1681 57.3051 12.2793 57.3051 12.3851C57.3051 12.5333 57.2681 12.6762 57.194 12.8139C57.1197 12.9515 57.0192 13.0838 56.8923 13.2108C56.7758 13.3378 56.6383 13.4649 56.4795 13.5919C56.3311 13.7189 56.183 13.8407 56.0348 13.9571ZM65.9269 14.0682C65.5353 14.8304 65.1648 15.5767 64.8156 16.3071C64.4663 17.0269 64.1382 17.6938 63.831 18.3078C63.7041 18.5618 63.577 18.8582 63.4501 19.197C63.3335 19.5251 63.2753 19.8162 63.2753 20.0703C63.2753 20.2185 63.3071 20.3349 63.3706 20.4196C63.4446 20.5043 63.5612 20.5466 63.7199 20.5466C63.9421 20.5466 64.2228 20.4831 64.5616 20.3561C64.9003 20.2185 65.2655 20.0438 65.6571 19.8321C66.0486 19.6098 66.4617 19.361 66.8955 19.0858C67.3295 18.8 67.7529 18.5089 68.166 18.2125C68.5892 17.9055 68.9916 17.6038 69.3726 17.3074C69.7538 17.0004 70.0925 16.7199 70.3888 16.4659C70.5582 16.3494 70.7169 16.2912 70.8653 16.2912C71.0453 16.2912 71.1934 16.3706 71.3097 16.5294C71.4262 16.6882 71.4845 16.8893 71.4845 17.1328C71.4845 17.3762 71.4262 17.625 71.3097 17.8791C71.1934 18.1331 70.9816 18.3819 70.6747 18.6253C69.9866 19.2499 69.2879 19.8427 68.5788 20.4037C67.8801 20.9647 67.1814 21.4623 66.4827 21.8963C65.7948 22.3196 65.1119 22.6583 64.4344 22.9124C63.757 23.1665 63.1007 23.2936 62.4655 23.2936C62.042 23.2936 61.6875 23.2353 61.4016 23.1188C61.1159 23.0131 60.8831 22.8648 60.7031 22.6744C60.5337 22.4732 60.412 22.2455 60.3377 21.9916C60.2637 21.7269 60.2266 21.4464 60.2266 21.15C60.2266 20.6207 60.3167 20.0703 60.4967 19.4986C60.6765 18.927 60.8777 18.4136 61.0999 17.9584C61.4176 17.3021 61.7299 16.6511 62.0368 16.0054C62.3544 15.3597 62.6613 14.7404 62.9578 14.1476H62.2751C61.6823 14.1476 61.2747 14.0524 61.0525 13.8618C60.83 13.6713 60.7189 13.4543 60.7189 13.2108C60.7189 13.1049 60.7508 12.9779 60.8142 12.8297C60.8883 12.671 60.9888 12.5281 61.1159 12.401C61.2535 12.2634 61.4176 12.147 61.608 12.0517C61.7986 11.9564 62.0156 11.9088 62.2591 11.9088H63.974L67.3243 5.25574C67.5359 4.8535 67.7954 4.56769 68.1023 4.39832C68.4198 4.21836 68.7482 4.12837 69.0869 4.12837C69.4044 4.12837 69.6955 4.21305 69.9602 4.38242C70.2248 4.55179 70.3572 4.83231 70.3572 5.22399C70.3572 5.42511 70.3095 5.63153 70.2142 5.84325C70.1295 6.04437 70.013 6.28254 69.8649 6.55778C69.7696 6.73772 69.653 6.95474 69.5155 7.20879C69.378 7.45225 69.2296 7.7169 69.0709 8.0027C68.9227 8.27792 68.764 8.56903 68.5946 8.87602C68.4358 9.18301 68.2771 9.4794 68.1183 9.76521C67.7584 10.4427 67.3772 11.1572 66.975 11.9088H72.1514C72.4054 11.9088 72.6382 11.9247 72.8501 11.9564C73.0617 11.9776 73.2416 12.0305 73.3898 12.1152C73.5485 12.1893 73.6703 12.2952 73.7552 12.4328C73.8396 12.5704 73.8821 12.7556 73.8821 12.9885C73.8821 13.1049 73.8609 13.2214 73.8186 13.3378C73.7868 13.4543 73.7179 13.5601 73.6122 13.6554C73.5169 13.7507 73.3792 13.8301 73.1994 13.8936C73.03 13.9571 72.8076 13.9994 72.5323 14.0206L65.9269 14.0682ZM75.1205 13.6395C75.5333 13.3855 75.957 13.1526 76.3908 12.9409C76.8354 12.7292 77.2643 12.5492 77.6771 12.401C78.0899 12.2422 78.4815 12.1205 78.8521 12.0358C79.233 11.9405 79.5718 11.8929 79.8683 11.8929C80.3445 11.8929 80.7097 12.0094 80.9638 12.2422C81.2284 12.4645 81.3608 12.8456 81.3608 13.3855C81.3608 13.5019 81.3556 13.629 81.345 13.7665C81.3343 13.8936 81.3131 14.0312 81.2815 14.1794C81.2284 14.4546 81.0697 14.7775 80.805 15.148C80.5403 15.5185 80.2282 15.9048 79.8683 16.3071C79.5189 16.7094 79.1377 17.1169 78.7249 17.5297C78.3227 17.932 77.947 18.3078 77.5976 18.6571C77.2589 18.9958 76.9732 19.2922 76.7401 19.5463C76.5179 19.8003 76.4068 19.975 76.4068 20.0703C76.4068 20.155 76.412 20.2132 76.4226 20.2449C76.4332 20.2767 76.4809 20.2926 76.5656 20.2926C77.1371 20.0491 77.7724 19.758 78.4709 19.4193C79.1802 19.0699 79.8841 18.7153 80.5828 18.3554C81.2815 17.9955 81.9429 17.6462 82.5676 17.3074C83.1922 16.9581 83.7213 16.6564 84.1554 16.4024C84.2507 16.3494 84.3459 16.3071 84.4412 16.2753C84.5472 16.233 84.6422 16.2118 84.7269 16.2118C84.9175 16.2118 85.0763 16.2753 85.2034 16.4024C85.3303 16.5294 85.394 16.6988 85.394 16.9105C85.394 17.1539 85.2881 17.4345 85.0763 17.752C84.8753 18.059 84.5311 18.3819 84.0442 18.7206C83.6737 18.9535 83.2557 19.2181 82.7898 19.5145C82.3347 19.8003 81.8531 20.102 81.345 20.4196C80.8475 20.7266 80.3393 21.0283 79.8206 21.3247C79.3125 21.6211 78.8202 21.8857 78.344 22.1186C77.8675 22.3515 77.4176 22.542 76.9942 22.6902C76.5814 22.8277 76.2214 22.8966 75.9145 22.8966C75.1842 22.8966 74.6336 22.722 74.2633 22.3727C73.9033 22.0233 73.7233 21.5734 73.7233 21.023C73.7233 20.9383 73.7285 20.8748 73.7391 20.8324C73.8132 20.3667 73.951 19.9168 74.152 19.4828C74.3532 19.0488 74.5808 18.6359 74.8348 18.2443C75.0889 17.8526 75.3536 17.4821 75.6286 17.1328C75.9039 16.7729 76.1528 16.4394 76.375 16.1324C76.6078 15.8149 76.7984 15.5238 76.9465 15.2591C77.0949 14.9945 77.169 14.751 77.169 14.5287C77.169 14.4758 77.1584 14.4229 77.1371 14.3699C77.1159 14.317 77.0683 14.2905 76.9942 14.2905C76.8673 14.2905 76.6555 14.3382 76.3592 14.4335C76.0733 14.5287 75.7664 14.6557 75.4383 14.8145C75.1101 14.9733 74.7978 15.1586 74.5013 15.3703C74.205 15.5714 73.9932 15.7884 73.8663 16.0213C73.6969 16.3177 73.5009 16.6935 73.2787 17.1486C73.0565 17.6038 72.8234 18.0802 72.58 18.5777C72.3472 19.0752 72.1195 19.5674 71.8973 20.0544C71.6751 20.5413 71.4845 20.9595 71.3257 21.3088C71.1986 21.6158 71.0292 21.891 70.8176 22.1344C70.6164 22.3779 70.3942 22.5843 70.1508 22.7536C69.9071 22.923 69.6585 23.0554 69.4044 23.1506C69.1504 23.2459 68.9175 23.2936 68.7057 23.2936C68.4623 23.2936 68.2665 23.2301 68.1183 23.103C67.9806 22.9761 67.9117 22.7697 67.9117 22.4838C67.9117 22.3673 67.9277 22.2245 67.9594 22.0551C68.0018 21.8751 68.0811 21.6793 68.1976 21.4676C68.3882 21.1076 68.5788 20.716 68.7692 20.2926C68.9704 19.8692 69.198 19.3875 69.4521 18.8476C69.7061 18.2972 69.9972 17.6726 70.3253 16.974C70.6641 16.2647 71.0611 15.4497 71.5161 14.5287C71.368 14.4017 71.2411 14.2482 71.1351 14.0682C71.0398 13.8777 70.9922 13.6448 70.9922 13.3696C70.9922 13.1155 71.0453 12.8985 71.151 12.7186C71.2569 12.5281 71.3998 12.3746 71.5798 12.2581C71.7598 12.1417 71.9662 12.057 72.199 12.004C72.4424 11.9405 72.6965 11.9088 72.9612 11.9088C73.2365 11.9088 73.5115 11.9353 73.7868 11.9882C74.0621 12.0305 74.3055 12.0993 74.5171 12.1946C74.7395 12.2899 74.9195 12.4063 75.0571 12.5439C75.1946 12.6815 75.2635 12.8403 75.2635 13.0203C75.2635 13.052 75.2528 13.0944 75.2318 13.1473C75.2106 13.2002 75.1842 13.2584 75.1524 13.322C75.1311 13.3855 75.1101 13.4437 75.0889 13.4966C75.0677 13.5496 75.0571 13.5919 75.0571 13.6236C75.0571 13.6448 75.0625 13.6554 75.0729 13.6554H75.0889L75.1205 13.6395ZM89.5381 13.5284C89.4853 13.5178 89.4376 13.5125 89.3952 13.5125C89.353 13.5125 89.3053 13.5125 89.2522 13.5125C88.85 13.5125 88.4743 13.5919 88.1249 13.7507C87.7756 13.9094 87.4529 14.1212 87.1564 14.3858C86.8707 14.6399 86.6112 14.931 86.3784 15.2591C86.1562 15.5873 85.955 15.9154 85.775 16.2436C85.595 16.5611 85.4417 16.8681 85.3145 17.1645C85.198 17.4609 85.1081 17.7097 85.0447 17.9108C85.415 17.7203 85.7962 17.5033 86.1878 17.2598C86.59 17.0163 86.966 16.7834 87.3151 16.5611C87.6645 16.3389 87.9662 16.1377 88.2202 15.9578C88.4849 15.7778 88.6701 15.6561 88.776 15.5926C89.2522 15.2962 89.5806 15.0209 89.7604 14.7669C89.9403 14.5022 90.0304 14.2747 90.0304 14.0841C90.0304 13.9253 89.9774 13.7983 89.8717 13.703C89.7764 13.6078 89.6653 13.5496 89.5381 13.5284ZM90.1097 11.3372C90.9884 11.3372 91.6446 11.5489 92.0787 11.9723C92.5127 12.3957 92.7297 12.9832 92.7297 13.7348C92.7297 14.1794 92.6132 14.6452 92.3804 15.1321C92.1476 15.619 91.7454 16.1166 91.1736 16.6247C90.602 17.1222 89.8346 17.6356 88.8713 18.1649C87.9185 18.6836 86.7223 19.2075 85.2827 19.7368C85.3357 20.0438 85.4997 20.2873 85.775 20.4672C86.0503 20.6366 86.4154 20.7213 86.8707 20.7213C87.3576 20.7213 87.8763 20.6525 88.4266 20.5149C88.9878 20.3667 89.5381 20.1814 90.0781 19.9591C90.6284 19.7368 91.163 19.4986 91.6817 19.2446C92.2004 18.98 92.6663 18.7312 93.0791 18.4983C93.5025 18.2654 93.8519 18.0643 94.1269 17.8949C94.4128 17.7256 94.6034 17.6197 94.6987 17.5774C94.794 17.5139 94.8787 17.4768 94.9528 17.4662C95.0374 17.4556 95.1115 17.4503 95.175 17.4503C95.3021 17.4503 95.4078 17.4821 95.4925 17.5456C95.5772 17.5985 95.6461 17.6673 95.6989 17.752C95.7626 17.8261 95.8048 17.9108 95.826 18.0061C95.8473 18.0908 95.8576 18.1649 95.8576 18.2284C95.8576 18.3236 95.8473 18.4401 95.826 18.5777C95.8048 18.7047 95.7255 18.8529 95.5878 19.0223C95.5349 19.0752 95.355 19.2181 95.0481 19.451C94.7515 19.6839 94.3652 19.9591 93.8889 20.2767C93.4124 20.5943 92.8566 20.933 92.2216 21.2929C91.597 21.6422 90.9301 21.9651 90.221 22.2616C89.5223 22.5579 88.7918 22.8013 88.0296 22.9919C87.2675 23.1931 86.5159 23.2936 85.775 23.2936C85.14 23.2936 84.5736 23.1719 84.0761 22.9284C83.589 22.685 83.171 22.3566 82.8216 21.9439C82.4829 21.5311 82.2236 21.0547 82.0437 20.5149C81.8637 19.975 81.7736 19.4087 81.7736 18.8159C81.7736 18.3607 81.8637 17.8632 82.0437 17.3233C82.2236 16.7729 82.4829 16.2224 82.8216 15.672C83.1604 15.1215 83.5732 14.5869 84.0601 14.0682C84.5576 13.539 85.1133 13.0732 85.7273 12.671C86.3413 12.2687 87.0134 11.9458 87.744 11.7024C88.4849 11.4589 89.2735 11.3372 90.1097 11.3372ZM100.717 13.5284C100.664 13.5178 100.616 13.5125 100.574 13.5125C100.531 13.5125 100.484 13.5125 100.431 13.5125C100.028 13.5125 99.6527 13.5919 99.3033 13.7507C98.9539 13.9094 98.6312 14.1212 98.3347 14.3858C98.0491 14.6399 97.7896 14.931 97.5568 15.2591C97.3345 15.5873 97.1333 15.9154 96.9534 16.2436C96.7734 16.5611 96.62 16.8681 96.4929 17.1645C96.3764 17.4609 96.2865 17.7097 96.223 17.9108C96.5934 17.7203 96.9746 17.5033 97.3662 17.2598C97.7684 17.0163 98.1444 16.7834 98.4935 16.5611C98.8428 16.3389 99.1445 16.1377 99.3986 15.9578C99.6633 15.7778 99.8484 15.6561 99.9544 15.5926C100.431 15.2962 100.759 15.0209 100.939 14.7669C101.119 14.5022 101.209 14.2747 101.209 14.0841C101.209 13.9253 101.156 13.7983 101.05 13.703C100.955 13.6078 100.844 13.5496 100.717 13.5284ZM101.288 11.3372C102.167 11.3372 102.823 11.5489 103.257 11.9723C103.691 12.3957 103.908 12.9832 103.908 13.7348C103.908 14.1794 103.792 14.6452 103.559 15.1321C103.326 15.619 102.924 16.1166 102.352 16.6247C101.78 17.1222 101.013 17.6356 100.05 18.1649C99.0969 18.6836 97.9007 19.2075 96.4611 19.7368C96.5141 20.0438 96.6781 20.2873 96.9534 20.4672C97.2286 20.6366 97.5938 20.7213 98.0491 20.7213C98.5359 20.7213 99.0547 20.6525 99.605 20.5149C100.166 20.3667 100.717 20.1814 101.256 19.9591C101.807 19.7368 102.341 19.4986 102.86 19.2446C103.379 18.98 103.845 18.7312 104.257 18.4983C104.681 18.2654 105.03 18.0643 105.305 17.8949C105.591 17.7256 105.782 17.6197 105.877 17.5774C105.972 17.5139 106.057 17.4768 106.131 17.4662C106.216 17.4556 106.29 17.4503 106.353 17.4503C106.48 17.4503 106.586 17.4821 106.671 17.5456C106.756 17.5985 106.824 17.6673 106.877 17.752C106.941 17.8261 106.983 17.9108 107.004 18.0061C107.026 18.0908 107.036 18.1649 107.036 18.2284C107.036 18.3236 107.026 18.4401 107.004 18.5777C106.983 18.7047 106.904 18.8529 106.766 19.0223C106.713 19.0752 106.533 19.2181 106.226 19.451C105.93 19.6839 105.544 19.9591 105.067 20.2767C104.591 20.5943 104.035 20.933 103.4 21.2929C102.775 21.6422 102.109 21.9651 101.399 22.2616C100.701 22.5579 99.9702 22.8013 99.208 22.9919C98.4458 23.1931 97.6943 23.2936 96.9534 23.2936C96.3183 23.2936 95.752 23.1719 95.2545 22.9284C94.7674 22.685 94.3494 22.3566 94 21.9439C93.6613 21.5311 93.402 21.0547 93.222 20.5149C93.042 19.975 92.9519 19.4087 92.9519 18.8159C92.9519 18.3607 93.042 17.8632 93.222 17.3233C93.402 16.7729 93.6613 16.2224 94 15.672C94.3387 15.1215 94.7516 14.5869 95.2384 14.0682C95.7359 13.539 96.2917 13.0732 96.9057 12.671C97.5197 12.2687 98.1918 11.9458 98.9223 11.7024C99.6633 11.4589 100.452 11.3372 101.288 11.3372Z" fill="#202B36"/>
</svg>
