<svg width="120" height="23" viewBox="0 0 120 23" fill="none" xmlns="http://www.w3.org/2000/svg">
<path d="M120 11.8948C119.187 13.1456 117.381 13.8499 115.435 13.5392C113.49 13.2286 111.993 11.9968 111.609 10.5551C112.422 9.30429 114.229 8.59998 116.174 8.91065C118.12 9.22131 119.617 10.453 120 11.8948Z" fill="#9BAFC3"/>
<path d="M110.945 10.7744C111.018 10.8761 111.146 10.9332 111.278 10.911C111.314 10.905 114.8 10.3467 117.836 11.8833C118.005 11.9685 118.21 11.9011 118.295 11.7329C118.38 11.5646 118.313 11.3592 118.145 11.274C114.902 9.63321 111.316 10.2121 111.165 10.2376C110.979 10.2689 110.854 10.445 110.885 10.631C110.894 10.6846 110.915 10.7332 110.945 10.7744Z" fill="#5B6F82"/>
<path d="M111.511 17.8714C110.758 18.7375 109.306 19.0809 107.857 18.6361C106.408 18.1914 105.399 17.0926 105.261 15.953C106.015 15.087 107.466 14.7436 108.916 15.1884C110.365 15.6331 111.373 16.7319 111.511 17.8714Z" fill="#9BAFC3"/>
<path d="M104.687 16.1262C104.751 16.2144 104.856 16.2706 104.973 16.2674C105.01 16.2665 107.696 16.2182 109.819 17.6958C109.974 17.8035 110.186 17.7653 110.294 17.6106C110.402 17.4559 110.364 17.243 110.209 17.1353C107.893 15.5236 105.073 15.5816 104.954 15.5848C104.766 15.5899 104.617 15.7469 104.622 15.9354C104.624 16.0068 104.648 16.0724 104.687 16.1262Z" fill="#5B6F82"/>
<path d="M108.427 3.88708C107.133 4.23103 106.028 5.57488 105.749 7.32113C105.47 9.06735 106.102 10.6887 107.225 11.4185C108.519 11.0746 109.625 9.73073 109.904 7.98449C110.182 6.23826 109.55 4.61687 108.427 3.88708Z" fill="#9BAFC3"/>
<path d="M106.824 11.9446C106.854 11.9859 106.894 12.0211 106.942 12.0463C107.109 12.1338 107.315 12.0697 107.402 11.9028C107.467 11.7806 108.968 8.87355 108.473 5.63784C108.444 5.45141 108.27 5.32345 108.084 5.35197C107.897 5.38049 107.769 5.55471 107.798 5.74112C108.258 8.74938 106.812 11.5575 106.798 11.5855C106.736 11.7043 106.75 11.8429 106.824 11.9446Z" fill="#5B6F82"/>
<path d="M100.974 20.1961C101.637 19.8667 102.278 19.5019 102.894 19.0901C104.09 18.2898 105.121 17.2155 105.753 15.9141C106.179 15.0365 106.48 14.1026 106.941 13.2413C107.477 12.2402 108.51 11.7426 109.557 11.4462C110.293 11.2383 111.048 11.1152 111.804 11.0058L111.813 11.0045C112.075 10.9666 112.256 10.7235 112.218 10.4615C112.183 10.2159 111.965 10.041 111.722 10.0514C110.907 10.0863 110.086 10.1509 109.287 10.3171C108.142 10.5552 107.008 10.9857 106.21 11.8775C105.382 12.8023 105.07 14.0319 104.478 15.0974C103.92 16.1028 103.095 16.9186 102.158 17.574C101.545 18.0024 100.887 18.3603 100.221 18.6984C99.8083 18.9082 99.6436 19.4127 99.8532 19.8255C100.062 20.236 100.562 20.4011 100.974 20.1961Z" fill="#5B6F82"/>
<path d="M100.974 20.1961C100.562 20.4011 100.062 20.236 99.8532 19.8255C99.6436 19.4127 99.8083 18.9082 100.221 18.6985C100.887 18.3602 101.545 18.0023 102.158 17.574C102.327 17.4556 102.493 17.3318 102.654 17.2028C102.811 17.376 102.96 17.5595 103.1 17.7524C103.29 18.014 103.457 18.2866 103.602 18.5664C103.374 18.7519 103.137 18.927 102.894 19.0901C102.278 19.5018 101.637 19.8667 100.974 20.1961Z" fill="#00AE95"/>
<path d="M15.9847 17.8344C15.9333 18.0296 15.8768 18.2557 15.8151 18.5126C15.7637 18.7592 15.738 18.9956 15.738 19.2217C15.738 19.4272 15.7689 19.6019 15.8305 19.7458C15.8922 19.8896 16.0258 19.9616 16.2313 19.9616C16.5087 19.9616 16.8376 19.8639 17.2178 19.6687C17.6083 19.4632 18.0245 19.196 18.4664 18.8671C18.9082 18.528 19.3655 18.1427 19.8382 17.7111C20.311 17.2692 20.7785 16.817 21.241 16.3546C21.7034 15.8819 22.1453 15.4092 22.5665 14.9365C22.9878 14.4638 23.3629 14.0219 23.6918 13.6108L24.2622 15.661C23.5839 16.5653 22.8852 17.4336 22.1657 18.266C21.4465 19.0984 20.7117 19.8331 19.9615 20.4702C19.2217 21.1073 18.4766 21.616 17.7265 21.9962C16.9763 22.3765 16.2313 22.5666 15.4914 22.5666C15.0598 22.5666 14.6899 22.4947 14.3816 22.3509C14.0836 22.2171 13.8421 22.0321 13.6571 21.7958C13.4721 21.5492 13.3334 21.2718 13.2409 20.9635C13.1587 20.6449 13.1176 20.3109 13.1176 19.9616C13.1176 19.828 13.1227 19.6379 13.133 19.3912C13.1433 19.1446 13.1536 18.8928 13.1638 18.6359C13.1844 18.3688 13.1998 18.1273 13.2101 17.9114C13.2306 17.6956 13.2409 17.5569 13.2409 17.4953L7.76881 17.8344L5.22546 17.8652C4.79385 18.8003 4.36739 19.6276 3.94606 20.3469C3.7611 20.6552 3.56586 20.9584 3.36033 21.2564C3.15481 21.5544 2.94928 21.8216 2.74376 22.058C2.53823 22.284 2.33271 22.4638 2.12718 22.5975C1.92166 22.7413 1.72127 22.8132 1.52602 22.8132C1.21773 22.8132 0.965965 22.767 0.770715 22.6744C0.575468 22.5819 0.421324 22.4638 0.308287 22.32C0.195247 22.1864 0.113037 22.0321 0.0616573 21.8576C0.0205524 21.6829 0 21.5185 0 21.3643C0 21.0971 0.0359662 20.835 0.107899 20.5781C0.179833 20.3109 0.282595 20.0592 0.416187 19.8228L2.45087 16.4008C2.54336 16.257 2.72832 15.9127 3.0058 15.3681C3.29353 14.8235 3.65833 14.1555 4.10022 13.3642C4.55237 12.5627 5.07132 11.6789 5.65705 10.713C6.2428 9.74699 6.87479 8.77075 7.55303 7.78424C8.24153 6.78744 8.96601 5.82148 9.72643 4.88635C10.4972 3.9512 11.2833 3.12397 12.0848 2.40463C12.8967 1.67502 13.7136 1.09442 14.5357 0.662817C15.3578 0.220938 16.1748 0 16.9866 0C17.747 0 18.4921 0.236354 19.2217 0.70906C19.9615 1.18177 20.6655 1.95762 21.3333 3.03663C21.4055 3.18049 21.4414 3.3038 21.4414 3.40658C21.4414 3.54015 21.4055 3.67375 21.3333 3.80734C21.2615 3.94094 21.1639 4.0591 21.0406 4.16188C20.9275 4.26463 20.7991 4.34684 20.6552 4.40851C20.5113 4.47015 20.3623 4.50098 20.2082 4.50098C20.0232 4.50098 19.8074 4.45987 19.5608 4.37766C19.3244 4.29545 19.0983 4.12077 18.8826 3.85358C18.564 3.48364 18.23 3.21646 17.8806 3.05204C17.5415 2.87734 17.2024 2.79 16.8633 2.79C16.3803 2.79 15.887 2.92873 15.3835 3.20618C14.88 3.47335 14.3713 3.8433 13.8575 4.31601C13.3539 4.77845 12.8504 5.31794 12.3469 5.93452C11.8433 6.54081 11.3552 7.18307 10.8825 7.86132C10.4098 8.53953 9.95252 9.23319 9.51065 9.94225C9.06876 10.6513 8.65258 11.3295 8.26207 11.9769C7.87159 12.6243 7.51192 13.2204 7.18308 13.765C6.86451 14.3096 6.58192 14.7669 6.33529 15.1369H9.15612L13.9191 14.7823C14.0116 14.5768 14.1349 14.2994 14.2891 13.95C14.4432 13.5903 14.6128 13.1895 14.7977 12.7476C14.993 12.3058 15.2037 11.8279 15.4298 11.3141C15.6558 10.8003 15.8819 10.2865 16.108 9.77268C16.3443 9.2486 16.5755 8.73478 16.8016 8.23126C17.0277 7.71744 17.2384 7.24474 17.4336 6.81313C17.5672 6.42265 17.7624 6.14517 18.0193 5.98075C18.2865 5.81633 18.5691 5.73412 18.8671 5.73412C19.0213 5.73412 19.1754 5.75982 19.3296 5.8112C19.4837 5.85231 19.6224 5.92423 19.7457 6.02701C19.8793 6.1195 19.9872 6.24281 20.0695 6.39695C20.1517 6.54081 20.1979 6.71551 20.2082 6.92103C20.2082 7.11628 20.1208 7.45027 19.9461 7.92296C19.7817 8.39568 19.5659 8.95058 19.2987 9.58772C19.0418 10.2248 18.749 10.9185 18.4201 11.6687C18.1015 12.4085 17.783 13.1536 17.4644 13.9037C17.1562 14.6436 16.8684 15.3578 16.6012 16.0463C16.3341 16.7246 16.1285 17.3206 15.9847 17.8344ZM26.8054 13.2409C27.2064 12.9943 27.6172 12.7682 28.0386 12.5627C28.4702 12.3572 28.8865 12.1825 29.2873 12.0386C29.688 11.8844 30.0682 11.7663 30.4279 11.6841C30.7978 11.5916 31.1266 11.5453 31.4144 11.5453C31.8768 11.5453 32.2313 11.6584 32.4779 11.8844C32.7348 12.1002 32.8633 12.4702 32.8633 12.9943C32.8633 13.1073 32.8583 13.2306 32.848 13.3642C32.8377 13.4875 32.8171 13.6211 32.7864 13.765C32.7348 14.0322 32.5807 14.3456 32.3238 14.7053C32.0669 15.0649 31.7639 15.44 31.4144 15.8305C31.0753 16.221 30.7052 16.6167 30.3045 17.0174C29.9141 17.4079 29.5493 17.7727 29.2101 18.1118C28.8813 18.4407 28.6037 18.7284 28.3777 18.975C28.162 19.2217 28.0541 19.3912 28.0541 19.4837C28.0541 19.5659 28.0592 19.6224 28.0695 19.6533C28.0798 19.6841 28.1261 19.6995 28.2083 19.6995C28.7631 19.4632 29.3798 19.1806 30.0579 18.8517C30.7465 18.5126 31.4298 18.1684 32.1081 17.819C32.7864 17.4696 33.4285 17.1305 34.0349 16.8016C34.6412 16.4625 35.1549 16.1696 35.5762 15.923C35.6687 15.8716 35.7613 15.8305 35.8538 15.7997C35.9566 15.7586 36.0489 15.738 36.1311 15.738C36.3161 15.738 36.4702 15.7997 36.5937 15.923C36.7169 16.0463 36.7787 16.2107 36.7787 16.4163C36.7787 16.6526 36.6759 16.9249 36.4702 17.2332C36.2751 17.5312 35.941 17.8446 35.4684 18.1735C35.1086 18.3996 34.7028 18.6565 34.2506 18.9442C33.8088 19.2217 33.3412 19.5145 32.848 19.8228C32.365 20.1208 31.8717 20.4137 31.3682 20.7014C30.8749 20.9892 30.397 21.2461 29.9347 21.4722C29.4721 21.6982 29.0354 21.8833 28.6244 22.0271C28.2236 22.1606 27.8742 22.2274 27.5762 22.2274C26.8673 22.2274 26.3328 22.058 25.973 21.7188C25.6238 21.3797 25.4491 20.9429 25.4491 20.4086C25.4491 20.3264 25.4541 20.2647 25.4644 20.2236C25.5363 19.7714 25.6701 19.3347 25.8652 18.9134C26.0605 18.4921 26.2815 18.0913 26.5281 17.7111C26.7747 17.3308 27.0317 16.9712 27.2987 16.6321C27.5659 16.2827 27.8075 15.959 28.0232 15.661C28.2493 15.3527 28.4343 15.0701 28.5781 14.8132C28.7221 14.5563 28.794 14.3199 28.794 14.1041C28.794 14.0527 28.7837 14.0014 28.7631 13.95C28.7425 13.8986 28.6963 13.8729 28.6244 13.8729C28.5011 13.8729 28.2955 13.9191 28.0079 14.0116C27.7303 14.1041 27.4324 14.2274 27.1139 14.3816C26.7951 14.5357 26.4922 14.7155 26.2043 14.9211C25.9167 15.1163 25.7111 15.327 25.5879 15.5531C25.4234 15.8408 25.2334 16.2056 25.0174 16.6475C24.8017 17.0893 24.5757 17.5518 24.3391 18.0348C24.1131 18.5177 23.8921 18.9956 23.6764 19.4683C23.4607 19.941 23.2757 20.3469 23.1216 20.686C22.9981 20.984 22.8337 21.2512 22.6283 21.4876C22.433 21.7239 22.2173 21.9242 21.9809 22.0887C21.7444 22.2531 21.503 22.3816 21.2564 22.4741C21.0097 22.5666 20.7836 22.6128 20.5781 22.6128C20.3418 22.6128 20.1517 22.5512 20.0078 22.4278C19.8742 22.3046 19.8074 22.1042 19.8074 21.8267C19.8074 21.7136 19.8228 21.575 19.8536 21.4105C19.8948 21.2358 19.9718 21.0457 20.0849 20.8402C20.2698 20.4908 20.4548 20.1106 20.6398 19.6995C20.835 19.2885 21.056 18.8209 21.3026 18.2968C21.5493 17.7624 21.8319 17.1561 22.1504 16.4779C22.4792 15.7894 22.8646 14.9982 23.3064 14.1041C23.1626 13.9808 23.0394 13.8318 22.9365 13.6571C22.844 13.4721 22.7978 13.2461 22.7978 12.9789C22.7978 12.7322 22.8491 12.5216 22.9519 12.3469C23.0547 12.1619 23.1935 12.0129 23.3682 11.8999C23.5429 11.7868 23.7433 11.7046 23.9693 11.6532C24.2056 11.5916 24.4523 11.5608 24.7092 11.5608C24.9764 11.5608 25.2435 11.5864 25.5107 11.6378C25.7779 11.6789 26.0142 11.7457 26.2199 11.8382C26.4356 11.9307 26.6103 12.0437 26.7438 12.1773C26.8776 12.3109 26.9442 12.4651 26.9442 12.6397C26.9442 12.6706 26.9339 12.7117 26.9135 12.7631C26.8929 12.8144 26.8673 12.871 26.8363 12.9326C26.8157 12.9943 26.7951 13.0508 26.7747 13.1022C26.7541 13.1536 26.7438 13.1947 26.7438 13.2255C26.7438 13.2461 26.7491 13.2563 26.7592 13.2563H26.7747L26.8054 13.2409ZM39.029 13.6571C38.6489 14.397 38.2892 15.1215 37.95 15.8305C37.6109 16.5293 37.2923 17.1767 36.9944 17.7727C36.871 18.0194 36.7478 18.3071 36.6243 18.6359C36.5114 18.9545 36.4549 19.2371 36.4549 19.4837C36.4549 19.6276 36.4858 19.7406 36.5474 19.8228C36.6193 19.905 36.7324 19.9461 36.8865 19.9461C37.1023 19.9461 37.3745 19.8845 37.7034 19.7612C38.0322 19.6276 38.3869 19.458 38.7671 19.2525C39.1472 19.0367 39.5479 18.7952 39.9693 18.528C40.3907 18.2506 40.8017 17.968 41.2024 17.6802C41.6135 17.3822 42.0042 17.0893 42.374 16.8016C42.7438 16.5036 43.0727 16.2313 43.3605 15.9847C43.5249 15.8716 43.679 15.8151 43.8229 15.8151C43.9976 15.8151 44.1416 15.8922 44.2545 16.0463C44.3676 16.2005 44.4242 16.3957 44.4242 16.6321C44.4242 16.8684 44.3676 17.1099 44.2545 17.3565C44.1416 17.6032 43.936 17.8446 43.638 18.081C42.9701 18.6873 42.2918 19.2628 41.6032 19.8074C40.9251 20.352 40.2468 20.835 39.5686 21.2564C38.9006 21.6673 38.2379 21.9962 37.5802 22.2428C36.9225 22.4894 36.2854 22.6128 35.6687 22.6128C35.2577 22.6128 34.9135 22.5563 34.636 22.4432C34.3584 22.3406 34.1324 22.1965 33.9577 22.0117C33.7933 21.8164 33.6751 21.5954 33.6032 21.3488C33.5313 21.0919 33.4953 20.8196 33.4953 20.5319C33.4953 20.0181 33.5826 19.4837 33.7573 18.9288C33.932 18.3739 34.1274 17.8755 34.3431 17.4336C34.6513 16.7965 34.9545 16.1645 35.2527 15.5376C35.5609 14.9108 35.8588 14.3096 36.1467 13.7342H35.4837C34.9082 13.7342 34.5128 13.6417 34.2968 13.4567C34.0811 13.2717 33.9732 13.0611 33.9732 12.8247C33.9732 12.722 34.0039 12.5986 34.0658 12.4548C34.1377 12.3006 34.2352 12.1619 34.3584 12.0386C34.4922 11.905 34.6513 11.792 34.8363 11.6995C35.0214 11.607 35.232 11.5608 35.4684 11.5608H37.1332L40.3856 5.10214C40.591 4.71165 40.8429 4.4342 41.1408 4.26978C41.4491 4.09508 41.7676 4.00772 42.0964 4.00772C42.4049 4.00772 42.6875 4.08993 42.9444 4.25435C43.2011 4.41877 43.3296 4.69109 43.3296 5.07131C43.3296 5.26656 43.2833 5.46695 43.191 5.67248C43.1088 5.86772 42.9957 6.09894 42.8519 6.36613C42.7594 6.54081 42.6463 6.75148 42.5128 6.99811C42.379 7.23446 42.2352 7.49137 42.0811 7.76882C41.9373 8.03599 41.7832 8.3186 41.6188 8.61662C41.4646 8.91463 41.3103 9.20236 41.1562 9.47982C40.807 10.1375 40.4369 10.8311 40.0465 11.5608H45.0716C45.3182 11.5608 45.5442 11.5762 45.7496 11.607C45.9553 11.6276 46.13 11.6789 46.2738 11.7611C46.4279 11.8331 46.5461 11.9358 46.6283 12.0694C46.7105 12.203 46.7517 12.3829 46.7517 12.6089C46.7517 12.722 46.7311 12.835 46.6899 12.948C46.6592 13.0611 46.5923 13.1638 46.4895 13.2563C46.3972 13.3488 46.2635 13.4259 46.0888 13.4875C45.9244 13.5492 45.7086 13.5903 45.4414 13.6108L39.029 13.6571ZM46.2891 8.89407C46.2891 8.65772 46.3304 8.41622 46.4126 8.16959C46.5051 7.91268 46.6386 7.68148 46.8133 7.47596C46.988 7.27044 47.2038 7.10086 47.4607 6.96727C47.7279 6.83369 48.0414 6.7669 48.401 6.7669C48.997 6.7669 49.4131 6.88506 49.6494 7.12143C49.886 7.34749 50.0041 7.63523 50.0041 7.98463C50.0041 8.17987 49.9629 8.39568 49.8807 8.63203C49.8088 8.86837 49.6957 9.08931 49.5416 9.29483C49.3875 9.4901 49.1871 9.65452 48.9405 9.78809C48.6938 9.92169 48.401 9.98849 48.0618 9.98849C47.4247 9.98849 46.9777 9.89087 46.7208 9.69562C46.4639 9.4901 46.3201 9.22291 46.2891 8.89407ZM44.5937 12.3623C44.7684 12.0746 44.9688 11.869 45.1948 11.7457C45.4208 11.6224 45.6521 11.5608 45.8884 11.5608C46.2791 11.5608 46.6129 11.6892 46.8905 11.9461C47.1781 12.1927 47.3219 12.5113 47.3219 12.9018C47.3116 12.9943 47.2963 13.0868 47.2757 13.1793C47.2656 13.2717 47.2347 13.3642 47.1831 13.4567C47.0393 13.7239 46.9212 13.95 46.8287 14.1349C46.7361 14.3199 46.6489 14.4946 46.5667 14.659C46.4948 14.8132 46.4229 14.9673 46.351 15.1215C46.2791 15.2756 46.1916 15.4606 46.0888 15.6764C45.9656 15.9333 45.8268 16.2159 45.6727 16.5242C45.5186 16.8222 45.3695 17.1305 45.2257 17.449C45.092 17.7676 44.9738 18.081 44.8712 18.3893C44.7787 18.6976 44.7324 18.9802 44.7324 19.2371C44.7324 19.5145 44.7993 19.6995 44.9328 19.792C45.0766 19.8742 45.277 19.9153 45.5339 19.9153C45.8218 19.9153 46.1197 19.8537 46.4279 19.7303C46.7465 19.607 47.065 19.4477 47.3837 19.2525C47.7023 19.0573 48.0156 18.8363 48.324 18.5897C48.6322 18.3328 48.9199 18.0759 49.1871 17.819C49.4646 17.5621 49.7163 17.3154 49.9423 17.0791C50.1789 16.8427 50.374 16.6321 50.5281 16.4471C50.7337 16.2518 50.9391 16.1542 51.1448 16.1542C51.3298 16.1542 51.4787 16.2364 51.5918 16.4008C51.715 16.5653 51.7768 16.7759 51.7768 17.0328C51.7768 17.2692 51.715 17.521 51.5918 17.7881C51.4787 18.0553 51.2886 18.3071 51.0214 18.5434C50.4974 19.0778 49.9629 19.5916 49.4184 20.0849C48.8736 20.5679 48.3137 20.9995 47.7382 21.3797C47.1731 21.7495 46.6026 22.0477 46.0272 22.2737C45.4517 22.4997 44.8712 22.6128 44.2854 22.6128C43.453 22.6128 42.7953 22.4022 42.3124 21.9808C41.8397 21.5492 41.6032 20.8813 41.6032 19.977C41.6032 19.5043 41.6701 19.0418 41.8036 18.5897C41.9373 18.1375 42.0965 17.7008 42.2815 17.2795C42.4665 16.8479 42.6618 16.4368 42.8672 16.0463C43.0727 15.6455 43.2474 15.2653 43.3914 14.9057C43.4427 14.7721 43.53 14.5665 43.6534 14.2891C43.7869 14.0116 43.9257 13.729 44.0695 13.4413C44.2339 13.1022 44.4086 12.7425 44.5937 12.3623ZM54.3972 13.5492C55.024 13.878 55.5841 14.2531 56.0774 14.6744C56.5706 15.0958 56.9867 15.5428 57.3259 16.0155C57.6753 16.4779 57.9373 16.9506 58.112 17.4336C58.297 17.9166 58.3895 18.3893 58.3895 18.8517C58.3895 19.4375 58.2199 19.9667 57.8807 20.4394C57.5519 20.9018 57.1152 21.2975 56.5706 21.6263C56.0362 21.9449 55.4197 22.1864 54.7208 22.3509C54.0324 22.5254 53.3335 22.6128 52.6246 22.6128C52.0901 22.6128 51.5712 22.5512 51.0676 22.4278C50.5641 22.3149 50.1017 22.1349 49.6804 21.8883C49.2693 21.6417 48.9148 21.3283 48.6169 20.9481C48.3187 20.5576 48.1081 20.0952 47.9849 19.5608C47.9642 19.4786 47.9539 19.4118 47.9539 19.3604C47.9539 19.0829 48.0515 18.8466 48.2468 18.6513C48.4422 18.4458 48.6579 18.3431 48.8942 18.3431C49.0073 18.3431 49.1305 18.3636 49.2643 18.4047C49.4081 18.4458 49.5159 18.5383 49.5878 18.6822C49.7216 18.9288 49.9064 19.1497 50.1427 19.345C50.3895 19.5402 50.6618 19.7098 50.9598 19.8537C51.2577 19.9873 51.5712 20.0952 51.9 20.1774C52.2392 20.2493 52.568 20.2852 52.8865 20.2852C53.2154 20.2852 53.5289 20.2544 53.8268 20.1928C54.135 20.1311 54.4023 20.0335 54.6283 19.8999C54.8648 19.7663 55.0496 19.5967 55.1834 19.3912C55.3169 19.1857 55.3837 18.9339 55.3837 18.6359C55.3837 18.1118 55.2656 17.6289 55.0292 17.187C54.7927 16.7451 54.4845 16.3392 54.1043 15.9692C53.7343 15.589 53.3079 15.2396 52.8249 14.9211C52.3523 14.5922 51.8794 14.2788 51.4068 13.9808C51.3555 13.95 51.2783 13.8626 51.1755 13.7188C51.0729 13.5646 51.0214 13.4105 51.0214 13.2563C51.0214 13.133 51.0523 13.0354 51.1139 12.9635C51.2783 12.7476 51.4684 12.5267 51.6843 12.3006C51.9 12.0746 52.1313 11.869 52.3779 11.6841C52.6246 11.4888 52.8918 11.3347 53.1794 11.2216C53.4673 11.0983 53.7652 11.0367 54.0734 11.0367C54.2994 11.0367 54.5101 11.0675 54.7055 11.1291C54.9008 11.1908 55.0652 11.273 55.1987 11.3758C55.3322 11.4683 55.435 11.5762 55.5069 11.6995C55.5892 11.8125 55.6304 11.9204 55.6304 12.0232C55.6304 12.167 55.5944 12.3058 55.5225 12.4394C55.4504 12.573 55.3528 12.7014 55.2296 12.8247C55.1165 12.948 54.983 13.0714 54.8289 13.1947C54.6848 13.318 54.541 13.4362 54.3972 13.5492ZM64.0002 13.6571C63.6201 14.397 63.2603 15.1215 62.9214 15.8305C62.5822 16.5293 62.2637 17.1767 61.9656 17.7727C61.8424 18.0194 61.7189 18.3071 61.5957 18.6359C61.4826 18.9545 61.426 19.2371 61.426 19.4837C61.426 19.6276 61.457 19.7406 61.5186 19.8228C61.5905 19.905 61.7036 19.9461 61.8577 19.9461C62.0734 19.9461 62.3459 19.8845 62.6748 19.7612C63.0036 19.6276 63.3581 19.458 63.7382 19.2525C64.1184 19.0367 64.5193 18.7952 64.9405 18.528C65.3618 18.2506 65.7729 17.968 66.1738 17.6802C66.5846 17.3822 66.9753 17.0893 67.3451 16.8016C67.7152 16.5036 68.044 16.2313 68.3317 15.9847C68.4961 15.8716 68.6502 15.8151 68.7942 15.8151C68.9689 15.8151 69.1128 15.8922 69.2257 16.0463C69.3388 16.2005 69.3953 16.3957 69.3953 16.6321C69.3953 16.8684 69.3388 17.1099 69.2257 17.3565C69.1128 17.6032 68.9071 17.8446 68.6092 18.081C67.9412 18.6873 67.2629 19.2628 66.5746 19.8074C65.8963 20.352 65.218 20.835 64.5397 21.2564C63.8719 21.6673 63.209 21.9962 62.5513 22.2428C61.8937 22.4894 61.2566 22.6128 60.6399 22.6128C60.2289 22.6128 59.8847 22.5563 59.6071 22.4432C59.3298 22.3406 59.1038 22.1965 58.9291 22.0117C58.7646 21.8164 58.6465 21.5954 58.5744 21.3488C58.5024 21.0919 58.4665 20.8196 58.4665 20.5319C58.4665 20.0181 58.554 19.4837 58.7287 18.9288C58.9032 18.3739 59.0985 17.8755 59.3142 17.4336C59.6227 16.7965 59.9259 16.1645 60.2238 15.5376C60.532 14.9108 60.83 14.3096 61.1178 13.7342H60.4551C59.8796 13.7342 59.4839 13.6417 59.2682 13.4567C59.0523 13.2717 58.9444 13.0611 58.9444 12.8247C58.9444 12.722 58.9753 12.5986 59.0369 12.4548C59.1088 12.3006 59.2064 12.1619 59.3298 12.0386C59.4633 11.905 59.6227 11.792 59.8075 11.6995C59.9925 11.607 60.2032 11.5608 60.4395 11.5608H62.1043L65.3568 5.10214C65.5622 4.71165 65.8141 4.4342 66.112 4.26978C66.4202 4.09508 66.739 4.00772 67.0678 4.00772C67.3761 4.00772 67.6586 4.08993 67.9156 4.25435C68.1725 4.41877 68.301 4.69109 68.301 5.07131C68.301 5.26656 68.2547 5.46695 68.1622 5.67248C68.08 5.86772 67.9669 6.09894 67.8231 6.36613C67.7305 6.54081 67.6174 6.75148 67.4839 6.99811C67.3504 7.23446 67.2064 7.49137 67.0523 7.76882C66.9084 8.03599 66.7543 8.3186 66.5899 8.61662C66.4358 8.91463 66.2817 9.20236 66.1276 9.47982C65.7781 10.1375 65.4081 10.8311 65.0176 11.5608H70.0427C70.2894 11.5608 70.5154 11.5762 70.721 11.607C70.9264 11.6276 71.1011 11.6789 71.245 11.7611C71.3991 11.8331 71.5172 11.9358 71.5997 12.0694C71.6817 12.203 71.7229 12.3829 71.7229 12.6089C71.7229 12.722 71.7023 12.835 71.6613 12.948C71.6304 13.0611 71.5635 13.1638 71.4609 13.2563C71.3684 13.3488 71.2346 13.4259 71.0602 13.4875C70.8957 13.5492 70.6798 13.5903 70.4126 13.6108L64.0002 13.6571ZM72.9251 13.2409C73.3259 12.9943 73.7371 12.7682 74.1583 12.5627C74.5899 12.3572 75.0062 12.1825 75.407 12.0386C75.8077 11.8844 76.1878 11.7663 76.5476 11.6841C76.9174 11.5916 77.2463 11.5453 77.5341 11.5453C77.9965 11.5453 78.351 11.6584 78.5976 11.8844C78.8545 12.1002 78.983 12.4702 78.983 12.9943C78.983 13.1073 78.9779 13.2306 78.9676 13.3642C78.9573 13.4875 78.9367 13.6211 78.906 13.765C78.8545 14.0322 78.7004 14.3456 78.4435 14.7053C78.1865 15.0649 77.8836 15.44 77.5341 15.8305C77.195 16.221 76.8249 16.6167 76.4242 17.0174C76.0337 17.4079 75.6689 17.7727 75.3298 18.1118C75.001 18.4407 74.7236 18.7284 74.4974 18.975C74.2817 19.2217 74.1738 19.3912 74.1738 19.4837C74.1738 19.5659 74.1789 19.6224 74.1892 19.6533C74.1995 19.6841 74.2457 19.6995 74.3279 19.6995C74.8828 19.4632 75.4995 19.1806 76.1775 18.8517C76.8661 18.5126 77.5495 18.1684 78.2277 17.819C78.906 17.4696 79.5481 17.1305 80.1545 16.8016C80.7609 16.4625 81.2745 16.1696 81.6959 15.923C81.7884 15.8716 81.8809 15.8305 81.9734 15.7997C82.0763 15.7586 82.1686 15.738 82.2508 15.738C82.4358 15.738 82.5899 15.7997 82.7133 15.923C82.8365 16.0463 82.8984 16.2107 82.8984 16.4163C82.8984 16.6526 82.7955 16.9249 82.5899 17.2332C82.3948 17.5312 82.0607 17.8446 81.588 18.1735C81.2283 18.3996 80.8225 18.6565 80.3702 18.9442C79.9285 19.2217 79.4609 19.5145 78.9676 19.8228C78.4847 20.1208 77.9914 20.4137 77.4879 20.7014C76.9946 20.9892 76.5167 21.2461 76.0543 21.4722C75.5918 21.6982 75.1551 21.8833 74.744 22.0271C74.3433 22.1606 73.9938 22.2274 73.6959 22.2274C72.9869 22.2274 72.4525 22.058 72.0929 21.7188C71.7435 21.3797 71.5688 20.9429 71.5688 20.4086C71.5688 20.3264 71.5738 20.2647 71.5841 20.2236C71.656 19.7714 71.7897 19.3347 71.9848 18.9134C72.1802 18.4921 72.4012 18.0913 72.6478 17.7111C72.8944 17.3308 73.1514 16.9712 73.4184 16.6321C73.6856 16.2827 73.9272 15.959 74.1429 15.661C74.3689 15.3527 74.554 15.0701 74.6978 14.8132C74.8418 14.5563 74.9137 14.3199 74.9137 14.1041C74.9137 14.0527 74.9034 14.0014 74.8828 13.95C74.8622 13.8986 74.8159 13.8729 74.744 13.8729C74.6208 13.8729 74.4152 13.9191 74.1276 14.0116C73.85 14.1041 73.5521 14.2274 73.2336 14.3816C72.915 14.5357 72.6118 14.7155 72.324 14.9211C72.0364 15.1163 71.8307 15.327 71.7075 15.5531C71.5431 15.8408 71.3528 16.2056 71.1371 16.6475C70.9214 17.0893 70.6951 17.5518 70.4588 18.0348C70.2328 18.5177 70.0118 18.9956 69.7961 19.4683C69.5804 19.941 69.3953 20.3469 69.2412 20.686C69.1178 20.984 68.9534 21.2512 68.748 21.4876C68.5526 21.7239 68.3369 21.9242 68.1006 22.0887C67.8641 22.2531 67.6227 22.3816 67.3761 22.4741C67.1294 22.5666 66.9034 22.6128 66.6978 22.6128C66.4614 22.6128 66.2714 22.5512 66.1276 22.4278C65.9938 22.3046 65.927 22.1042 65.927 21.8267C65.927 21.7136 65.9425 21.575 65.9732 21.4105C66.0144 21.2358 66.0914 21.0457 66.2045 20.8402C66.3895 20.4908 66.5746 20.1106 66.7594 19.6995C66.9547 19.2885 67.1757 18.8209 67.4223 18.2968C67.6689 17.7624 67.9515 17.1561 68.2701 16.4779C68.5989 15.7894 68.9843 14.9982 69.426 14.1041C69.2822 13.9808 69.159 13.8318 69.0562 13.6571C68.9637 13.4721 68.9174 13.2461 68.9174 12.9789C68.9174 12.7322 68.969 12.5216 69.0715 12.3469C69.1744 12.1619 69.3131 12.0129 69.4879 11.8999C69.6626 11.7868 69.863 11.7046 70.089 11.6532C70.3253 11.5916 70.5719 11.5608 70.8289 11.5608C71.0961 11.5608 71.3631 11.5864 71.6304 11.6378C71.8976 11.6789 72.1339 11.7457 72.3393 11.8382C72.5553 11.9307 72.73 12.0437 72.8635 12.1773C72.997 12.3109 73.0639 12.4651 73.0639 12.6397C73.0639 12.6706 73.0536 12.7117 73.0332 12.7631C73.0126 12.8144 72.9869 12.871 72.956 12.9326C72.9354 12.9943 72.915 13.0508 72.8944 13.1022C72.8738 13.1536 72.8635 13.1947 72.8635 13.2255C72.8635 13.2461 72.8688 13.2563 72.8789 13.2563H72.8944L72.9251 13.2409ZM86.9214 13.133C86.8701 13.1227 86.8238 13.1176 86.7826 13.1176C86.7416 13.1176 86.6954 13.1176 86.6438 13.1176C86.2534 13.1176 85.8886 13.1947 85.5495 13.3488C85.2103 13.5029 84.897 13.7085 84.6092 13.9654C84.3319 14.212 84.08 14.4946 83.854 14.8132C83.6382 15.1317 83.4429 15.4503 83.2682 15.7689C83.0935 16.0771 82.9446 16.3752 82.8212 16.6629C82.7081 16.9506 82.6208 17.1921 82.5592 17.3874C82.9187 17.2024 83.2888 16.9917 83.6689 16.7554C84.0594 16.519 84.4244 16.2929 84.7633 16.0771C85.1025 15.8614 85.3953 15.6661 85.642 15.4914C85.8989 15.3167 86.0787 15.1985 86.1815 15.1369C86.6438 14.8491 86.9626 14.582 87.1371 14.3353C87.3118 14.0784 87.3993 13.8575 87.3993 13.6725C87.3993 13.5184 87.3478 13.3951 87.2452 13.3026C87.1526 13.2101 87.0448 13.1536 86.9214 13.133ZM87.4762 11.0058C88.3292 11.0058 88.9663 11.2114 89.3877 11.6224C89.809 12.0335 90.0197 12.6038 90.0197 13.3334C90.0197 13.765 89.9066 14.2172 89.6805 14.6899C89.4545 15.1626 89.0641 15.6455 88.509 16.1388C87.9541 16.6218 87.2092 17.1202 86.274 17.634C85.3491 18.1375 84.1878 18.6462 82.7903 19.16C82.8418 19.458 83.001 19.6944 83.2682 19.8691C83.5354 20.0335 83.8899 20.1157 84.3319 20.1157C84.8045 20.1157 85.3081 20.0489 85.8423 19.9153C86.3871 19.7714 86.9214 19.5916 87.4455 19.3758C87.9798 19.16 88.4987 18.9288 89.0023 18.6822C89.5058 18.4253 89.9581 18.1838 90.3588 17.9577C90.7699 17.7316 91.109 17.5364 91.376 17.372C91.6536 17.2075 91.8386 17.1048 91.9311 17.0637C92.0236 17.002 92.1058 16.966 92.1777 16.9558C92.26 16.9455 92.3319 16.9403 92.3935 16.9403C92.5169 16.9403 92.6195 16.9712 92.7017 17.0328C92.7839 17.0842 92.8508 17.151 92.9021 17.2332C92.9639 17.3052 93.0049 17.3874 93.0255 17.4799C93.0461 17.5621 93.0562 17.634 93.0562 17.6956C93.0562 17.7881 93.0461 17.9012 93.0255 18.0348C93.0049 18.1581 92.9279 18.302 92.7942 18.4664C92.7429 18.5177 92.5682 18.6565 92.2703 18.8826C91.9824 19.1086 91.6073 19.3758 91.145 19.6841C90.6824 19.9924 90.1429 20.3212 89.5264 20.6706C88.9201 21.0097 88.2727 21.3232 87.5843 21.611C86.906 21.8986 86.1968 22.1349 85.4569 22.32C84.7171 22.5153 83.9875 22.6128 83.2682 22.6128C82.6517 22.6128 82.1019 22.4947 81.6189 22.2583C81.1461 22.022 80.7403 21.7033 80.4012 21.3026C80.0723 20.9018 79.8206 20.4394 79.6459 19.9153C79.4712 19.3912 79.3837 18.8414 79.3837 18.266C79.3837 17.8241 79.4712 17.3411 79.6459 16.817C79.8206 16.2827 80.0723 15.7483 80.4012 15.2139C80.73 14.6796 81.1307 14.1606 81.6034 13.6571C82.0863 13.1433 82.6259 12.6911 83.2219 12.3006C83.818 11.9101 84.4704 11.5967 85.1796 11.3604C85.8989 11.124 86.6644 11.0058 87.4762 11.0058ZM97.7731 13.133C97.7218 13.1227 97.6755 13.1176 97.6343 13.1176C97.5933 13.1176 97.547 13.1176 97.4955 13.1176C97.1051 13.1176 96.7403 13.1947 96.4011 13.3488C96.062 13.5029 95.7487 13.7085 95.4609 13.9654C95.1836 14.212 94.9317 14.4946 94.7057 14.8132C94.4899 15.1317 94.2946 15.4503 94.1199 15.7689C93.9452 16.0771 93.7963 16.3752 93.6729 16.6629C93.5598 16.9506 93.4725 17.1921 93.4109 17.3874C93.7704 17.2024 94.1405 16.9917 94.5206 16.7554C94.9111 16.519 95.2761 16.2929 95.615 16.0771C95.9541 15.8614 96.247 15.6661 96.4937 15.4914C96.7506 15.3167 96.9304 15.1985 97.0332 15.1369C97.4955 14.8491 97.8143 14.582 97.9888 14.3353C98.1635 14.0784 98.251 13.8575 98.251 13.6725C98.251 13.5184 98.1994 13.3951 98.0969 13.3026C98.0043 13.2101 97.8965 13.1536 97.7731 13.133ZM98.3279 11.0058C99.1809 11.0058 99.818 11.2114 100.239 11.6224C100.661 12.0335 100.871 12.6038 100.871 13.3334C100.871 13.765 100.758 14.2172 100.532 14.6899C100.306 15.1626 99.9158 15.6455 99.3607 16.1388C98.8058 16.6218 98.0609 17.1202 97.1257 17.634C96.2008 18.1375 95.0395 18.6462 93.642 19.16C93.6935 19.458 93.8526 19.6944 94.1199 19.8691C94.3871 20.0335 94.7416 20.1157 95.1836 20.1157C95.6562 20.1157 96.1598 20.0489 96.694 19.9153C97.2388 19.7714 97.7731 19.5916 98.2972 19.3758C98.8315 19.16 99.3504 18.9288 99.854 18.6822C100.358 18.4253 100.81 18.1838 101.211 17.9577C101.622 17.7316 101.961 17.5364 102.228 17.372C102.505 17.2075 102.69 17.1048 102.783 17.0637C102.875 17.002 102.958 16.966 103.029 16.9558C103.112 16.9455 103.184 16.9403 103.245 16.9403C103.369 16.9403 103.471 16.9712 103.553 17.0328C103.636 17.0842 103.702 17.151 103.754 17.2332C103.816 17.3052 103.857 17.3874 103.877 17.4799C103.898 17.5621 103.908 17.634 103.908 17.6956C103.908 17.7881 103.898 17.9012 103.877 18.0348C103.857 18.1581 103.78 18.302 103.646 18.4664C103.595 18.5177 103.42 18.6565 103.122 18.8826C102.834 19.1086 102.459 19.3758 101.997 19.6841C101.534 19.9924 100.995 20.3212 100.378 20.6706C99.7717 21.0097 99.1244 21.3232 98.436 21.611C97.7577 21.8986 97.0485 22.1349 96.3086 22.32C95.5687 22.5153 94.8392 22.6128 94.1199 22.6128C93.5034 22.6128 92.9536 22.4947 92.4706 22.2583C91.9978 22.022 91.592 21.7033 91.2528 21.3026C90.924 20.9018 90.6723 20.4394 90.4976 19.9153C90.3229 19.3912 90.2354 18.8414 90.2354 18.266C90.2354 17.8241 90.3229 17.3411 90.4976 16.817C90.6723 16.2827 90.924 15.7483 91.2528 15.2139C91.5817 14.6796 91.9824 14.1606 92.4551 13.6571C92.938 13.1433 93.4775 12.6911 94.0736 12.3006C94.6697 11.9101 95.3221 11.5967 96.0313 11.3604C96.7506 11.124 97.5161 11.0058 98.3279 11.0058Z" fill="#5B6F82"/>
</svg>
