<svg xmlns="http://www.w3.org/2000/svg" width="188" height="38" viewBox="0 0 188 38" fill="none">
											<path d="M132.759 5.33022H129.701V3.51682H137.888V5.33022H134.83V14.4H132.759V5.33022Z" fill="#919EB7"/>
											<path d="M141.571 1.70244C142.344 1.22845 143.1 0.754654 143.758 0.248416L144.531 1.45748C143.791 1.99655 143.182 2.35593 142.295 2.81399L141.571 1.70244ZM139.286 3.51682H145.994V5.33022H141.357V7.96146H145.632V9.77564H141.357V12.5858H145.994V14.4H139.286V3.51682Z" fill="#919EB7"/>
											<path d="M147.638 6.50692C147.638 4.51305 148.805 3.35293 151.534 3.35293C152.554 3.35293 153.606 3.48386 154.51 3.71251L154.28 5.49386C153.392 5.33029 152.356 5.21587 151.6 5.21587C150.17 5.21587 149.709 5.70638 149.709 6.86649V11.05C149.709 12.2102 150.17 12.7009 151.6 12.7009C152.356 12.7009 153.392 12.5859 154.28 12.4227L154.51 14.2038C153.606 14.4327 152.554 14.5636 151.534 14.5636C148.805 14.5636 147.638 13.4031 147.638 11.4096V6.50692Z" fill="#919EB7"/>
											<path d="M158.259 6.14747V14.4H156.236V3.51682H158.998L163.158 11.7852V3.51682H165.18V14.4H162.418L158.259 6.14747Z" fill="#919EB7"/>
											<path d="M167.481 14.4H169.553V3.51676H167.481V14.4Z" fill="#919EB7"/>
											<path d="M171.608 6.50692C171.608 4.51305 172.775 3.35293 175.505 3.35293C176.524 3.35293 177.576 3.48386 178.48 3.71251L178.25 5.49386C177.363 5.33029 176.327 5.21587 175.57 5.21587C174.14 5.21587 173.68 5.70638 173.68 6.86649V11.05C173.68 12.2102 174.14 12.7009 175.57 12.7009C176.327 12.7009 177.363 12.5859 178.25 12.4227L178.48 14.2038C177.576 14.4327 176.524 14.5636 175.505 14.5636C172.775 14.5636 171.608 13.4031 171.608 11.4096V6.50692Z" fill="#919EB7"/>
											<path d="M181.785 11.099C181.785 12.1288 182.311 12.7496 183.856 12.7496C185.402 12.7496 185.928 12.1288 185.928 11.099V6.81754C185.928 5.78797 185.402 5.16692 183.856 5.16692C182.311 5.16692 181.785 5.78797 181.785 6.81754V11.099ZM188 11.2132C188 13.0272 186.948 14.5636 183.856 14.5636C180.766 14.5636 179.714 13.0272 179.714 11.2132V6.70312C179.714 4.88913 180.766 3.35293 183.856 3.35293C186.948 3.35293 188 4.88913 188 6.70312V11.2132Z" fill="#919EB7"/>
											<path d="M133.683 27.2737H138.615V28.1397H132.713V17.256H133.683V27.2737Z" fill="#919EB7"/>
											<path d="M140.818 28.1397H141.788V17.2561H140.818V28.1397Z" fill="#919EB7"/>
											<path d="M147.575 28.3032C146.622 28.3032 145.421 28.1398 144.484 27.7808L144.665 26.9958C145.652 27.2899 146.654 27.4367 147.608 27.4367C149.482 27.4367 149.992 26.8816 149.992 25.4924C149.992 23.8092 149.976 23.6299 147.542 23.0737C144.895 22.4694 144.599 21.9954 144.599 19.8057C144.599 18.0242 145.257 17.0931 148.003 17.0931C148.956 17.0931 150.091 17.2561 150.831 17.4686L150.715 18.2858C149.91 18.106 148.89 17.9589 148.035 17.9589C145.865 17.9589 145.569 18.482 145.569 19.8381C145.569 21.603 145.618 21.6849 147.92 22.2566C150.798 22.9756 150.962 23.3842 150.962 25.4437C150.962 27.2244 150.353 28.3032 147.575 28.3032Z" fill="#919EB7"/>
											<path d="M159.412 24.5282C159.412 23.6131 158.87 22.9921 157.604 22.9921H154.546V27.2898H157.883C158.919 27.2898 159.412 26.7834 159.412 25.9174V24.5282ZM159.067 19.2661C159.067 18.5142 158.64 18.106 157.702 18.106H154.546V22.1422H157.374C158.574 22.1422 159.067 21.5215 159.067 20.6549V19.2661ZM153.576 28.1397V17.256H157.686C159.166 17.256 160.037 17.9588 160.037 19.3969V20.7045C160.037 21.5704 159.675 22.1422 158.788 22.4693C159.643 22.5837 160.382 23.2867 160.382 24.4954V25.9174C160.382 27.4207 159.281 28.1397 157.867 28.1397H153.576Z" fill="#919EB7"/>
											<path d="M169.112 25.0348V20.3612C169.112 18.8086 168.356 17.9589 166.252 17.9589C164.147 17.9589 163.391 18.8086 163.391 20.3612V25.0348C163.391 26.5872 164.147 27.4367 166.252 27.4367C168.356 27.4367 169.112 26.5872 169.112 25.0348ZM166.252 28.3032C163.44 28.3032 162.421 26.9302 162.421 25.0676V20.3285C162.421 18.4657 163.44 17.0931 166.252 17.0931C169.063 17.0931 170.083 18.4657 170.083 20.3285V25.0676C170.083 26.9302 169.063 28.3032 166.252 28.3032Z" fill="#919EB7"/>
											<path d="M173.897 24.4467H178.402L176.149 17.8119L173.897 24.4467ZM178.697 25.2799H173.601L172.581 28.1397H171.628L175.442 17.256H176.873L180.687 28.1397H179.733L178.697 25.2799Z" fill="#919EB7"/>
											<path fill-rule="evenodd" clip-rule="evenodd" d="M107.418 37.4173C107.418 37.4173 92.1181 29.8432 92.1181 15.7031C92.1181 6.15973 92.1181 -1.90735e-05 92.1181 -1.90735e-05H122.774C122.774 -1.90735e-05 122.774 6.15973 122.774 15.7031C122.774 29.8432 107.418 37.4173 107.418 37.4173Z" fill="#919EB7"/>
											<path d="M115.606 11.8144H114.33V21.4988H111.567L111.567 11.8144H110.294V9.87264H115.606V11.8144Z" fill="#F6F8FA"/>
											<path d="M103.274 21.4924H100.513L100.516 9.87262H103.271L103.274 21.4924Z" fill="#F6F8FA"/>
											<path d="M110.177 3.28839C107.892 3.28839 106.04 4.48347 106.04 6.78951L106.039 24.5877C106.039 26.5409 106.039 27.5095 104.664 27.5095C103.386 27.5095 103.274 26.545 103.274 25.1217H103.273C103.273 24.3534 102.655 23.73 101.893 23.73C101.132 23.73 100.514 24.3534 100.514 25.1217H100.512C100.512 27.0812 102.38 28.0892 104.664 28.0892C106.949 28.0892 108.801 26.8936 108.801 24.5877L108.802 6.78951C108.802 4.83624 108.802 3.86806 110.177 3.86806C111.455 3.86806 111.567 4.83352 111.567 6.25491H111.569C111.569 7.02418 112.186 7.64658 112.947 7.64658C113.709 7.64658 114.327 7.02418 114.327 6.25491H114.33C114.33 4.29543 112.461 3.28839 110.177 3.28839Z" fill="#F6F8FA"/>
											<path d="M1.09843 22.9134H2.19685V19.6004H4.1811C6.2938 19.6004 7.24606 18.316 7.24606 16.7126C7.24606 15.1093 6.2938 13.8425 4.16339 13.8425H1.09843V22.9134ZM2.19685 18.626V14.8169H4.12795C5.60285 14.8169 6.16535 15.623 6.16535 16.7126C6.16535 17.8022 5.60285 18.626 4.14567 18.626H2.19685ZM12.1881 23.0551C14.0306 23.0551 15.2708 21.6555 15.2708 19.5472C15.2708 17.4213 14.0306 16.0217 12.1881 16.0217C10.3456 16.0217 9.10541 17.4213 9.10541 19.5472C9.10541 21.6555 10.3456 23.0551 12.1881 23.0551ZM12.1881 22.1161C10.7885 22.1161 10.1507 20.9114 10.1507 19.5472C10.1507 18.1831 10.7885 16.9606 12.1881 16.9606C13.5877 16.9606 14.2255 18.1831 14.2255 19.5472C14.2255 20.9114 13.5877 22.1161 12.1881 22.1161ZM18.7999 22.9134H19.8275L21.3157 17.687H21.4219L22.9101 22.9134H23.9377L26.0105 16.1102H24.9121L23.4416 21.3012H23.3708L21.9357 16.1102H20.8196L19.3668 21.3189H19.296L17.8255 16.1102H16.7271L18.7999 22.9134ZM30.637 23.0551C32.0189 23.0551 33.0287 22.3642 33.3476 21.3366L32.3378 21.0532C32.072 21.7618 31.4564 22.1161 30.637 22.1161C29.4101 22.1161 28.5641 21.3233 28.5154 19.8661H33.4539V19.4232C33.4539 16.8898 31.948 16.0217 30.5307 16.0217C28.6882 16.0217 27.4657 17.4744 27.4657 19.565C27.4657 21.6555 28.6704 23.0551 30.637 23.0551ZM28.5154 18.9626C28.5863 17.904 29.3348 16.9606 30.5307 16.9606C31.6645 16.9606 32.3909 17.811 32.3909 18.9626H28.5154ZM35.6676 22.9134H36.7129V18.6083C36.7129 17.687 37.4392 17.0138 38.4314 17.0138C38.7104 17.0138 38.9983 17.0669 39.0692 17.0847V16.0217C38.9496 16.0128 38.675 16.0039 38.52 16.0039C37.705 16.0039 36.9963 16.4646 36.7483 17.1378H36.6774V16.1102H35.6676V22.9134ZM43.5771 23.0551C44.959 23.0551 45.9689 22.3642 46.2878 21.3366L45.2779 21.0532C45.0122 21.7618 44.3965 22.1161 43.5771 22.1161C42.3503 22.1161 41.5043 21.3233 41.4556 19.8661H46.3941V19.4232C46.3941 16.8898 44.8882 16.0217 43.4708 16.0217C41.6283 16.0217 40.4059 17.4744 40.4059 19.565C40.4059 21.6555 41.6106 23.0551 43.5771 23.0551ZM41.4556 18.9626C41.5265 17.904 42.275 16.9606 43.4708 16.9606C44.6047 16.9606 45.3311 17.811 45.3311 18.9626H41.4556ZM51.1766 23.0551C52.4877 23.0551 52.9306 22.2402 53.1609 21.8681H53.2849V22.9134H54.2948V13.8425H53.2495V17.1909H53.1609C52.9306 16.8366 52.5231 16.0217 51.1944 16.0217C49.4759 16.0217 48.2889 17.3858 48.2889 19.5295C48.2889 21.691 49.4759 23.0551 51.1766 23.0551ZM51.3184 22.1161C50.0074 22.1161 49.3341 20.9646 49.3341 19.5118C49.3341 18.0768 49.9896 16.9606 51.3184 16.9606C52.594 16.9606 53.2672 17.9882 53.2672 19.5118C53.2672 21.0532 52.5763 22.1161 51.3184 22.1161ZM61.2512 22.9134H62.261V21.8681H62.385C62.6153 22.2402 63.0582 23.0551 64.3693 23.0551C66.0701 23.0551 67.2571 21.691 67.2571 19.5295C67.2571 17.3858 66.0701 16.0217 64.3516 16.0217C63.0228 16.0217 62.6153 16.8366 62.385 17.1909H62.2964V13.8425H61.2512V22.9134ZM62.2787 19.5118C62.2787 17.9882 62.9519 16.9606 64.2275 16.9606C65.5563 16.9606 66.2118 18.0768 66.2118 19.5118C66.2118 20.9646 65.5386 22.1161 64.2275 22.1161C62.9697 22.1161 62.2787 21.0532 62.2787 19.5118ZM69.9092 25.4646C70.8526 25.4646 71.517 24.9641 71.9112 23.9055L74.8078 16.128L73.6651 16.1102L71.7872 21.5315H71.7163L69.8384 16.1102H68.7045L71.2202 22.9488L71.0254 23.4803C70.6445 24.5167 70.175 24.6142 69.4132 24.4193L69.1474 25.3406C69.2537 25.3937 69.5549 25.4646 69.9092 25.4646Z" fill="#919EB7"/>
										</svg>
