<svg width="188" height="38" viewBox="0 0 188 38" fill="none" xmlns="http://www.w3.org/2000/svg">
<path d="M132.759 5.33025H129.701V3.51685H137.889V5.33025H134.831V14.4H132.759V5.33025Z" fill="#5B6F82"/>
<path d="M141.571 1.70247C142.344 1.22848 143.1 0.754684 143.758 0.248446L144.531 1.45751C143.791 1.99658 143.183 2.35596 142.295 2.81402L141.571 1.70247ZM139.286 3.51685H145.994V5.33025H141.358V7.96149H145.632V9.77567H141.358V12.5858H145.994V14.4H139.286V3.51685Z" fill="#5B6F82"/>
<path d="M147.638 6.50695C147.638 4.51308 148.805 3.35296 151.534 3.35296C152.554 3.35296 153.606 3.48389 154.51 3.71254L154.28 5.49389C153.392 5.33032 152.356 5.2159 151.6 5.2159C150.17 5.2159 149.71 5.70641 149.71 6.86652V11.0501C149.71 12.2102 150.17 12.7009 151.6 12.7009C152.356 12.7009 153.392 12.5859 154.28 12.4227L154.51 14.2039C153.606 14.4327 152.554 14.5636 151.534 14.5636C148.805 14.5636 147.638 13.4031 147.638 11.4096V6.50695Z" fill="#5B6F82"/>
<path d="M158.259 6.1475V14.4H156.236V3.51685H158.998L163.158 11.7853V3.51685H165.18V14.4H162.418L158.259 6.1475Z" fill="#5B6F82"/>
<path d="M167.481 14.4001H169.553V3.51679H167.481V14.4001Z" fill="#5B6F82"/>
<path d="M171.608 6.50695C171.608 4.51308 172.775 3.35296 175.505 3.35296C176.524 3.35296 177.576 3.48389 178.48 3.71254L178.25 5.49389C177.363 5.33032 176.327 5.2159 175.57 5.2159C174.14 5.2159 173.68 5.70641 173.68 6.86652V11.0501C173.68 12.2102 174.14 12.7009 175.57 12.7009C176.327 12.7009 177.363 12.5859 178.25 12.4227L178.48 14.2039C177.576 14.4327 176.524 14.5636 175.505 14.5636C172.775 14.5636 171.608 13.4031 171.608 11.4096V6.50695Z" fill="#5B6F82"/>
<path d="M181.785 11.099C181.785 12.1288 182.311 12.7496 183.856 12.7496C185.402 12.7496 185.928 12.1288 185.928 11.099V6.81757C185.928 5.788 185.402 5.16695 183.856 5.16695C182.311 5.16695 181.785 5.788 181.785 6.81757V11.099ZM188 11.2132C188 13.0272 186.948 14.5636 183.856 14.5636C180.766 14.5636 179.714 13.0272 179.714 11.2132V6.70315C179.714 4.88916 180.766 3.35296 183.856 3.35296C186.948 3.35296 188 4.88916 188 6.70315V11.2132Z" fill="#5B6F82"/>
<path d="M133.683 27.2737H138.615V28.1397H132.713V17.256H133.683V27.2737Z" fill="#5B6F82"/>
<path d="M140.818 28.1397H141.788V17.2561H140.818V28.1397Z" fill="#5B6F82"/>
<path d="M147.575 28.3032C146.622 28.3032 145.421 28.1398 144.484 27.7808L144.665 26.9958C145.652 27.2899 146.654 27.4367 147.608 27.4367C149.482 27.4367 149.992 26.8816 149.992 25.4924C149.992 23.8092 149.976 23.6299 147.542 23.0737C144.895 22.4694 144.599 21.9954 144.599 19.8057C144.599 18.0242 145.257 17.0931 148.003 17.0931C148.956 17.0931 150.091 17.2561 150.831 17.4686L150.715 18.2858C149.91 18.106 148.89 17.9589 148.035 17.9589C145.865 17.9589 145.569 18.482 145.569 19.8381C145.569 21.603 145.618 21.6849 147.92 22.2566C150.798 22.9756 150.962 23.3842 150.962 25.4437C150.962 27.2244 150.353 28.3032 147.575 28.3032Z" fill="#5B6F82"/>
<path d="M159.413 24.5282C159.413 23.6131 158.87 22.9921 157.604 22.9921H154.546V27.2898H157.884C158.919 27.2898 159.413 26.7834 159.413 25.9174V24.5282ZM159.067 19.2661C159.067 18.5142 158.64 18.106 157.702 18.106H154.546V22.1422H157.374C158.574 22.1422 159.067 21.5215 159.067 20.6549V19.2661ZM153.576 28.1397V17.256H157.686C159.166 17.256 160.037 17.9588 160.037 19.3969V20.7045C160.037 21.5704 159.676 22.1422 158.788 22.4693C159.643 22.5837 160.382 23.2867 160.382 24.4954V25.9174C160.382 27.4207 159.281 28.1397 157.867 28.1397H153.576Z" fill="#5B6F82"/>
<path d="M169.112 25.0348V20.3612C169.112 18.8086 168.356 17.9589 166.252 17.9589C164.147 17.9589 163.391 18.8086 163.391 20.3612V25.0348C163.391 26.5872 164.147 27.4367 166.252 27.4367C168.356 27.4367 169.112 26.5872 169.112 25.0348ZM166.252 28.3032C163.44 28.3032 162.421 26.9302 162.421 25.0676V20.3285C162.421 18.4657 163.44 17.0931 166.252 17.0931C169.063 17.0931 170.083 18.4657 170.083 20.3285V25.0676C170.083 26.9302 169.063 28.3032 166.252 28.3032Z" fill="#5B6F82"/>
<path d="M173.897 24.4467H178.402L176.149 17.8119L173.897 24.4467ZM178.697 25.2799H173.601L172.581 28.1397H171.628L175.442 17.256H176.873L180.687 28.1397H179.733L178.697 25.2799Z" fill="#5B6F82"/>
<path fill-rule="evenodd" clip-rule="evenodd" d="M107.418 37.4173C107.418 37.4173 92.1182 29.8432 92.1182 15.7031C92.1182 6.15976 92.1182 1.14441e-05 92.1182 1.14441e-05H122.774C122.774 1.14441e-05 122.774 6.15976 122.774 15.7031C122.774 29.8432 107.418 37.4173 107.418 37.4173Z" fill="#5B6F82"/>
<path d="M115.607 11.8144H114.33V21.4988H111.568L111.567 11.8144H110.294V9.87264H115.607V11.8144Z" fill="white"/>
<path d="M103.274 21.4924H100.513L100.516 9.87265H103.271L103.274 21.4924Z" fill="white"/>
<path d="M110.177 3.28845C107.892 3.28845 106.04 4.48353 106.04 6.78957L106.039 24.5877C106.039 26.541 106.039 27.5096 104.664 27.5096C103.386 27.5096 103.274 26.5451 103.274 25.1218H103.273C103.273 24.3535 102.655 23.7301 101.893 23.7301C101.132 23.7301 100.514 24.3535 100.514 25.1218H100.512C100.512 27.0813 102.38 28.0892 104.664 28.0892C106.949 28.0892 108.801 26.8936 108.801 24.5877L108.802 6.78957C108.802 4.8363 108.802 3.86812 110.177 3.86812C111.455 3.86812 111.567 4.83358 111.567 6.25497H111.569C111.569 7.02424 112.186 7.64664 112.947 7.64664C113.709 7.64664 114.327 7.02424 114.327 6.25497H114.33C114.33 4.29549 112.461 3.28845 110.177 3.28845Z" fill="white"/>
<path d="M1.09843 22.9132H2.19685V19.6002H4.1811C6.2938 19.6002 7.24606 18.3158 7.24606 16.7125C7.24606 15.1091 6.2938 13.8424 4.16339 13.8424H1.09843V22.9132ZM2.19685 18.6258V14.8168H4.12795C5.60285 14.8168 6.16535 15.6229 6.16535 16.7125C6.16535 17.802 5.60285 18.6258 4.14567 18.6258H2.19685ZM12.1881 23.055C14.0306 23.055 15.2708 21.6554 15.2708 19.5471C15.2708 17.4211 14.0306 16.0215 12.1881 16.0215C10.3456 16.0215 9.10541 17.4211 9.10541 19.5471C9.10541 21.6554 10.3456 23.055 12.1881 23.055ZM12.1881 22.116C10.7885 22.116 10.1507 20.9113 10.1507 19.5471C10.1507 18.1829 10.7885 16.9605 12.1881 16.9605C13.5877 16.9605 14.2255 18.1829 14.2255 19.5471C14.2255 20.9113 13.5877 22.116 12.1881 22.116ZM18.7999 22.9132H19.8275L21.3157 17.6869H21.4219L22.9101 22.9132H23.9377L26.0105 16.1101H24.9121L23.4416 21.301H23.3708L21.9357 16.1101H20.8196L19.3668 21.3188H19.296L17.8255 16.1101H16.7271L18.7999 22.9132ZM30.637 23.055C32.0189 23.055 33.0287 22.364 33.3476 21.3365L32.3378 21.053C32.072 21.7617 31.4564 22.116 30.637 22.116C29.4101 22.116 28.5641 21.3232 28.5154 19.866H33.4539V19.4231C33.4539 16.8896 31.948 16.0215 30.5307 16.0215C28.6882 16.0215 27.4657 17.4743 27.4657 19.5648C27.4657 21.6554 28.6704 23.055 30.637 23.055ZM28.5154 18.9625C28.5863 17.9039 29.3348 16.9605 30.5307 16.9605C31.6645 16.9605 32.3909 17.8109 32.3909 18.9625H28.5154ZM35.6676 22.9132H36.7129V18.6081C36.7129 17.6869 37.4392 17.0136 38.4314 17.0136C38.7104 17.0136 38.9983 17.0668 39.0692 17.0845V16.0215C38.9496 16.0126 38.675 16.0038 38.52 16.0038C37.705 16.0038 36.9963 16.4644 36.7483 17.1376H36.6774V16.1101H35.6676V22.9132ZM43.5771 23.055C44.959 23.055 45.9689 22.364 46.2878 21.3365L45.2779 21.053C45.0122 21.7617 44.3965 22.116 43.5771 22.116C42.3503 22.116 41.5043 21.3232 41.4556 19.866H46.3941V19.4231C46.3941 16.8896 44.8882 16.0215 43.4708 16.0215C41.6283 16.0215 40.4059 17.4743 40.4059 19.5648C40.4059 21.6554 41.6106 23.055 43.5771 23.055ZM41.4556 18.9625C41.5265 17.9039 42.275 16.9605 43.4708 16.9605C44.6047 16.9605 45.3311 17.8109 45.3311 18.9625H41.4556ZM51.1766 23.055C52.4877 23.055 52.9306 22.24 53.1609 21.868H53.2849V22.9132H54.2948V13.8424H53.2495V17.1908H53.1609C52.9306 16.8365 52.5231 16.0215 51.1944 16.0215C49.4759 16.0215 48.2889 17.3857 48.2889 19.5294C48.2889 21.6908 49.4759 23.055 51.1766 23.055ZM51.3184 22.116C50.0074 22.116 49.3341 20.9644 49.3341 19.5117C49.3341 18.0766 49.9896 16.9605 51.3184 16.9605C52.594 16.9605 53.2672 17.988 53.2672 19.5117C53.2672 21.053 52.5763 22.116 51.3184 22.116ZM61.2512 22.9132H62.261V21.868H62.385C62.6153 22.24 63.0582 23.055 64.3693 23.055C66.0701 23.055 67.2571 21.6908 67.2571 19.5294C67.2571 17.3857 66.0701 16.0215 64.3516 16.0215C63.0228 16.0215 62.6153 16.8365 62.385 17.1908H62.2964V13.8424H61.2512V22.9132ZM62.2787 19.5117C62.2787 17.988 62.9519 16.9605 64.2275 16.9605C65.5563 16.9605 66.2118 18.0766 66.2118 19.5117C66.2118 20.9644 65.5386 22.116 64.2275 22.116C62.9697 22.116 62.2787 21.053 62.2787 19.5117ZM69.9092 25.4644C70.8526 25.4644 71.517 24.9639 71.9112 23.9054L74.8078 16.1278L73.6651 16.1101L71.7872 21.5313H71.7163L69.8384 16.1101H68.7045L71.2202 22.9487L71.0254 23.4802C70.6445 24.5166 70.175 24.614 69.4132 24.4191L69.1474 25.3404C69.2537 25.3936 69.5549 25.4644 69.9092 25.4644Z" fill="#5B6F82"/>
</svg>
