<svg width="427" height="286" viewBox="0 0 427 286" fill="none" xmlns="http://www.w3.org/2000/svg">
<g clip-path="url(#clip0)">
<mask id="mask0" mask-type="alpha" maskUnits="userSpaceOnUse" x="0" y="0" width="427" height="287">
<path d="M213.5 286.002C331.413 286.002 427 190.415 427 72.5015C427 -45.4115 304.221 16.4515 186.309 16.4515C68.396 16.4515 0 -45.4125 0 72.5015C0 190.416 95.587 286.002 213.5 286.002Z" fill="white"/>
</mask>
<g mask="url(#mask0)">
<path d="M213.5 286.002C331.413 286.002 427 190.415 427 72.5015C427 -45.4115 304.221 16.4515 186.309 16.4515C68.396 16.4515 0 -45.4125 0 72.5015C0 190.416 95.587 286.002 213.5 286.002Z" fill="#4E8FF8"/>
<path fill-rule="evenodd" clip-rule="evenodd" d="M64.5 129.77C182.413 129.77 278 34.182 278 -83.73C278 -201.644 155.221 -139.782 37.309 -139.782C-80.604 -139.782 -149 -201.644 -149 -83.73C-149 34.183 -53.413 129.77 64.5 129.77V129.77Z" fill="#1274ED"/>
<path fill-rule="evenodd" clip-rule="evenodd" d="M381.5 501.77C499.413 501.77 595 406.182 595 288.27C595 170.356 472.221 232.218 354.309 232.218C236.396 232.218 168 170.356 168 288.27C168 406.183 263.587 501.77 381.5 501.77Z" fill="#75ABF3"/>
</g>
</g>
<defs>
<clipPath id="clip0">
<rect width="427" height="286" fill="white"/>
</clipPath>
</defs>
</svg>
