<svg width="231" height="235" viewBox="0 0 231 235" fill="none" xmlns="http://www.w3.org/2000/svg">
<mask id="mask0" mask-type="alpha" maskUnits="userSpaceOnUse" x="0" y="0" width="231" height="235">
<path d="M197.352 235C257.226 235 216.821 168.283 216.821 108.411C216.821 48.5368 168.284 0 108.411 0C48.5368 0 0 48.5368 0 108.411C0 168.284 137.48 235 197.352 235Z" fill="white"/>
</mask>
<g mask="url(#mask0)">
<path d="M197.352 235C257.226 235 216.821 168.283 216.821 108.411C216.821 48.5368 168.284 0 108.411 0C48.5368 0 0 48.5368 0 108.411C0 168.284 137.48 235 197.352 235Z" fill="#7CE8DD"/>
<path d="M30.1141 216.821C89.9876 216.821 138.525 168.284 138.525 108.411C138.525 48.5371 89.9876 0 30.1141 0C-29.7594 0 -78.2965 48.5371 -78.2965 108.411C-78.2965 168.284 -29.7594 216.821 30.1141 216.821Z" fill="#3BDDCC"/>
<path opacity="0.7" d="M266.007 196.745C325.881 196.745 374.418 148.208 374.418 88.3345C374.418 28.461 325.881 -20.076 266.007 -20.076C206.134 -20.076 157.597 28.461 157.597 88.3345C157.597 148.208 206.134 196.745 266.007 196.745Z" fill="#B1F1EA"/>
</g>
</svg>
