<svg width="60" height="51" viewBox="0 0 60 51" fill="none" xmlns="http://www.w3.org/2000/svg">
<mask id="mask0" mask-type="alpha" maskUnits="userSpaceOnUse" x="0" y="0" width="60" height="51">
<path d="M31.4754 43.146C48.8587 43.146 59.0656 60.4791 59.0656 43.146C59.0656 25.8129 48.8597 0 31.4754 0C14.0921 0 0 14.0515 0 31.3846C0 48.7177 14.0921 43.146 31.4754 43.146V43.146Z" fill="white"/>
</mask>
<g mask="url(#mask0)">
<path d="M31.4754 43.146C48.8587 43.146 59.0656 60.4791 59.0656 43.146C59.0656 25.8129 48.8597 0 31.4754 0C14.0921 0 0 14.0515 0 31.3846C0 48.7177 14.0921 43.146 31.4754 43.146V43.146Z" fill="#FF6D8B"/>
<path fill-rule="evenodd" clip-rule="evenodd" d="M1.96721 43.146C19.3505 43.146 29.5574 60.4791 29.5574 43.146C29.5574 25.8129 19.3515 0 1.96721 0C-15.4161 0 -29.5082 14.0515 -29.5082 31.3846C-29.5082 48.7177 -15.4161 43.146 1.96721 43.146V43.146Z" fill="#FF4F73"/>
<path fill-rule="evenodd" clip-rule="evenodd" d="M72.7869 30.396C90.1701 30.396 100.377 47.7291 100.377 30.396C100.377 13.0629 90.1711 -12.75 72.7869 -12.75C55.4036 -12.75 41.3115 1.30148 41.3115 18.6346C41.3115 35.9677 55.4036 30.396 72.7869 30.396Z" fill="#FFA3B5" fill-opacity="0.8"/>
</g>
</svg>
