<svg width="178" height="126" viewBox="0 0 178 126" fill="none" xmlns="http://www.w3.org/2000/svg">
<mask id="mask0" mask-type="alpha" maskUnits="userSpaceOnUse" x="0" y="0" width="178" height="126">
<path d="M104.112 125.661C144.917 125.661 177.995 92.397 177.995 51.363C177.995 10.329 135.006 43.938 94.2008 43.938C53.396 43.938 0 -28.44 0 12.593C0 53.627 63.3073 125.661 104.112 125.661Z" fill="white"/>
</mask>
<g mask="url(#mask0)">
<path d="M104.112 125.661C144.917 125.661 177.995 92.397 177.995 51.363C177.995 10.329 135.006 43.938 94.2008 43.938C53.396 43.938 0 -28.44 0 12.593C0 53.627 63.3073 125.661 104.112 125.661Z" fill="#838DEA"/>
<path fill-rule="evenodd" clip-rule="evenodd" d="M201.565 211.661C242.369 211.661 275.447 178.397 275.447 137.363C275.447 96.329 232.458 129.938 191.653 129.938C150.849 129.938 97.4525 57.56 97.4525 98.593C97.4525 139.627 160.76 211.661 201.565 211.661Z" fill="#626CD5"/>
<path opacity="0.64" fill-rule="evenodd" clip-rule="evenodd" d="M43.4529 56.661C84.2577 56.661 117.336 23.397 117.336 -17.637C117.336 -58.671 74.3463 -25.062 33.5416 -25.062C-7.26317 -25.062 -60.6592 -97.44 -60.6592 -56.407C-60.6592 -15.373 2.64815 56.661 43.4529 56.661Z" fill="#B1B6F1"/>
</g>
</svg>
