<svg width="102" height="91" viewBox="0 0 102 91" fill="none" xmlns="http://www.w3.org/2000/svg">
<mask id="mask0" mask-type="alpha" maskUnits="userSpaceOnUse" x="0" y="0" width="102" height="91">
<path fill-rule="evenodd" clip-rule="evenodd" d="M57.3789 90.9432C76.2702 90.3922 98.3285 83.3668 101.468 64.6856C104.168 48.6226 79.0004 48.1842 66.2654 38.0657C49.7272 24.9255 41.103 -7.51289 22.0518 1.58646C-0.583723 12.3977 -4.61973 44.1443 4.61787 67.51C12.4529 87.3281 36.121 91.5631 57.3789 90.9432Z" fill="#C4C4C4"/>
</mask>
<g mask="url(#mask0)">
<path fill-rule="evenodd" clip-rule="evenodd" d="M57.3789 90.9432C76.2702 90.3922 98.3285 83.3668 101.468 64.6856C104.168 48.6226 79.0004 48.1842 66.2654 38.0657C49.7272 24.9255 41.103 -7.51289 22.0518 1.58646C-0.583723 12.3977 -4.61973 44.1443 4.61787 67.51C12.4529 87.3281 36.121 91.5631 57.3789 90.9432Z" fill="#838DEA"/>
<path fill-rule="evenodd" clip-rule="evenodd" d="M93.1513 55.7983C112.043 55.2474 134.101 48.222 137.24 29.5408C139.94 13.4778 114.773 13.0393 102.038 2.92084C85.4996 -10.2193 76.8755 -42.6577 57.8242 -33.5584C35.1887 -22.7471 31.1527 8.9995 40.3903 32.3652C48.2254 52.1832 71.8935 56.4183 93.1513 55.7983Z" fill="#626CD5"/>
<path fill-rule="evenodd" clip-rule="evenodd" d="M-0.359158 102.867C18.5322 102.316 40.5905 95.2909 43.73 76.6097C46.4295 60.5468 21.2624 60.1083 8.52731 49.9898C-8.01087 36.8496 -16.635 4.41125 -35.6863 13.5106C-58.3218 24.3218 -62.3578 56.0685 -53.1202 79.4341C-45.2851 99.2522 -21.617 103.487 -0.359158 102.867Z" fill="#A0A7EE"/>
</g>
</svg>
