<svg width="342" height="342" viewBox="0 0 342 342" fill="none" xmlns="http://www.w3.org/2000/svg"><g filter="url(#a)"><mask id="b" maskUnits="userSpaceOnUse" x="24" y="8" width="294" height="294"><path fill-rule="evenodd" clip-rule="evenodd" d="M170.616 8.622c66.339.428 118.311 51.662 138.296 114.533 19.437 61.151 5.585 132.568-48.766 167.132-47.94 30.487-102.655-8.281-148.665-41.578-45.783-33.132-98.268-72.704-84.802-127.376C42.737 56.141 103.088 8.186 170.616 8.622z" fill="#C4C4C4"/></mask><g mask="url(#b)" fill-rule="evenodd" clip-rule="evenodd"><path d="M170.616 8.622c66.339.428 118.311 51.662 138.296 114.533 19.437 61.151 5.585 132.568-48.766 167.132-47.94 30.487-102.655-8.281-148.665-41.578-45.783-33.132-98.268-72.704-84.802-127.376C42.737 56.141 103.088 8.186 170.616 8.622z" fill="#838DEA"/><path d="M31.084-114.997c66.339.428 118.311 51.662 138.295 114.533 19.437 61.15 5.586 132.568-48.765 167.132-47.94 30.487-102.656-8.281-148.666-41.578-45.783-33.132-98.267-72.704-84.801-127.376 16.057-65.192 76.408-113.147 143.937-112.711z" fill="#A0A7EE"/><path d="M342.287 72.448c66.338.428 118.311 51.662 138.295 114.533 19.437 61.151 5.585 132.568-48.766 167.132-47.94 30.487-102.655-8.281-148.665-41.578-45.783-33.131-98.268-72.703-84.801-127.376 16.057-65.191 76.408-113.147 143.937-112.711z" fill="#626CD5"/></g></g><path d="M263.858 205.151a2.034 2.034 0 0 1-1.88-1.259l-18.534-45.053-18.533 45.053a2.032 2.032 0 0 1-3.758-1.546l20.413-49.62a2.03 2.03 0 0 1 3.757 0l20.413 49.62a2.031 2.031 0 0 1-1.878 2.805z" fill="#4E5660"/><path d="M244.726 166.82a8.055 8.055 0 1 0-2.58-15.903 8.055 8.055 0 0 0 2.58 15.903z" fill="#A0A7EE"/><path d="M292.234 184.686l-105.667 9.244c-7.512.658-13.068 7.28-12.411 14.791l5.708 65.249c.658 7.512 7.279 13.068 14.791 12.411l105.667-9.244c7.512-.658 13.068-7.28 12.411-14.791l-5.709-65.25c-.657-7.511-7.279-13.068-14.79-12.41z" fill="#E0B799"/><path d="M219.255 191.07l-32.688 2.86c-7.512.657-13.068 7.28-12.411 14.791l5.708 65.249c.658 7.512 7.279 13.068 14.791 12.411l48.877-4.276c-22.575-20.194-27.111-62.247-24.277-91.035z" fill="#D1986F"/><path d="M289.702 196.7l-98.556 8.622a5.476 5.476 0 0 0-4.976 5.931l5.086 58.137a5.476 5.476 0 0 0 5.931 4.977l98.556-8.623a5.473 5.473 0 0 0 4.976-5.93l-5.086-58.138a5.474 5.474 0 0 0-5.931-4.976z" fill="#A2DDFD"/><path d="M218.547 202.925l-27.401 2.397a5.475 5.475 0 0 0-4.976 5.93l5.087 58.138a5.474 5.474 0 0 0 5.93 4.977l37.016-3.239c-12.247-18.667-16.178-45.641-15.656-68.203z" fill="#7ACDF9"/><path d="M241.616 214.632l2.203 25.179 17.969-1.573c2.66-.232 3.711-3.565 1.665-5.282l-21.837-18.324zm.312 3.573l1.891 21.606-14.397 1.259c-2.66.233-4.274-2.867-2.557-4.913l15.063-17.952z" fill="#fff"/><path d="M244.903 254.262a2.032 2.032 0 0 1-2.022-1.855l-3.419-39.081a2.032 2.032 0 0 1 4.048-.354l3.419 39.081a2.032 2.032 0 0 1-2.026 2.209z" fill="#D1986F"/><path d="M267.861 250.222l-45.912 4.017c-2.727.238-4.21 3.303-2.704 5.589l6.664 10.121a3.614 3.614 0 0 0 3.334 1.613l34.443-3.013a3.615 3.615 0 0 0 3.003-2.168l4.806-11.124c1.086-2.513-.907-5.274-3.634-5.035z" fill="#F6EE86"/><path d="M221.949 254.239c-2.727.238-4.21 3.303-2.704 5.589l6.664 10.121a3.616 3.616 0 0 0 3.334 1.613l4.959-.434c-3.406-5.191-6.167-11.026-8.37-17.229l-3.883.34z" fill="#EED076"/><path d="M319.106 299.189H290.91c-7.4 0-13.398-5.998-13.398-13.398v-8.532h54.992v8.532c0 7.4-5.999 13.398-13.398 13.398z" fill="#FF737D"/><path d="M290.332 277.259h-12.82v8.532c0 7.4 5.998 13.398 13.398 13.398h14.299c-4.13-9.307-13.68-11.338-14.877-21.93z" fill="#F46262"/><path d="M319.106 291.436H290.91c-7.399 0-13.398-5.999-13.398-13.399v-3.764c0-7.399 5.999-13.398 13.398-13.398h28.196c7.399 0 13.398 5.999 13.398 13.398v3.765c0 7.399-5.999 13.398-13.398 13.398z" fill="#FF929F"/><path d="M290.213 275.446c-.285-13.611 3.229-14.571 3.229-14.571h-2.532c-7.399 0-13.398 5.999-13.398 13.398v3.765c0 7.399 5.999 13.398 13.398 13.398h8.585c-4.401-4.347-9.11-7.819-9.282-15.99z" fill="#FF737D"/><path d="M291.722 266.072H287.6a1.71 1.71 0 0 0-1.711 1.711v17.215a1.71 1.71 0 0 0 1.711 1.711h3.832a4.801 4.801 0 0 0 4.795-4.796v-2.928c0-1.131-.394-2.17-1.05-2.991a4.485 4.485 0 0 0 1.05-2.888v-2.529a4.51 4.51 0 0 0-4.505-4.505zm-2.41 3.422h2.41c.597 0 1.084.486 1.084 1.084v2.528c0 .598-.487 1.084-1.084 1.084h-2.41v-4.696zm3.493 12.419c0 .758-.616 1.374-1.373 1.374h-2.121v-5.675h2.121c.757 0 1.373.616 1.373 1.373v2.928z" fill="#fff"/><path d="M294.07 285.915a18.198 18.198 0 0 1-1.929-2.827 1.37 1.37 0 0 1-.709.199h-2.12v-5.675h1.064a19.292 19.292 0 0 1-.162-2.166c-.01-.431-.015-.85-.016-1.256h-.886v-4.696h1.053c.112-1.336.273-2.466.463-3.422H287.6a1.71 1.71 0 0 0-1.711 1.711v17.215a1.71 1.71 0 0 0 1.711 1.711h3.832c.974 0 1.881-.293 2.638-.794z" fill="#CCF8FF"/><path d="M308.794 266.072a1.71 1.71 0 0 0-1.711 1.711v13.757a1.75 1.75 0 0 1-1.747 1.747 1.75 1.75 0 0 1-1.747-1.747v-13.757a1.71 1.71 0 1 0-3.422 0v13.757a5.175 5.175 0 0 0 5.169 5.169 5.175 5.175 0 0 0 5.169-5.169v-13.757a1.71 1.71 0 0 0-1.711-1.711zm14.34.159a1.711 1.711 0 0 0-2.272.834l-1.905 4.117-1.905-4.117a1.71 1.71 0 0 0-3.106 1.437l3.3 7.131v9.365a1.71 1.71 0 1 0 3.422 0v-9.364l3.3-7.132a1.71 1.71 0 0 0-.834-2.271z" fill="#fff"/><path d="M326.83 296.747l-12.944-8.618c-1.573-1.047-3.648.243-3.405 2.117l2.001 15.421c.157 1.213 1.687 1.652 2.464.707l1.581-1.924a1.325 1.325 0 0 1 2.148.142l2.593 4.171a2.62 2.62 0 1 0 4.45-2.767l-2.593-4.17a1.324 1.324 0 0 1 .823-1.989l2.425-.567c1.192-.278 1.475-1.845.457-2.523z" fill="#ABEBF4"/><path d="M316.657 299.587c-2.587-1.509-3.856-8.565-4.31-11.808-1.107.169-2.033 1.18-1.866 2.467l2.001 15.421c.157 1.213 1.688 1.652 2.464.707l1.581-1.923a1.324 1.324 0 0 1 2.148.141l2.593 4.171a2.62 2.62 0 0 0 3.609.842s-5.249-8.285-8.22-10.018z" fill="#8ED7E8"/><path d="M95.002 135.165c-5.02 0-9.836.874-14.311 2.477a42.787 42.787 0 0 0-24.727 23.137 42.314 42.314 0 0 0-3.527 16.952h42.565v-42.566z" fill="#D4D4FF"/><path d="M134.041 160.779c-4.604-10.558-13.47-19.105-24.733-23.137a42.408 42.408 0 0 0-14.305-2.477v42.566h42.566a42.331 42.331 0 0 0-3.528-16.952z" fill="#EFEDFF"/><path d="M120.087 144.353l-.229-1.155a42.463 42.463 0 0 0-10.55-5.556 42.41 42.41 0 0 0-14.306-2.477c-5.02 0-9.836.874-14.311 2.477a42.491 42.491 0 0 0-10.55 5.562c-2.232 11.222-3.515 22.069-3.515 34.527h56.747v-.005c0-11.205-1.1-22.383-3.286-33.373z" fill="#5C586F"/><path d="M95.002 135.165c-5.022 0-9.842.875-14.31 2.477a42.524 42.524 0 0 0-10.547 5.559l-.003.003c-2.233 11.222-3.516 22.069-3.516 34.527H77.4c.02-18.496 11.057-34.411 26.902-41.539a42.616 42.616 0 0 0-9.299-1.027z" fill="#423E4F"/><path d="M92.366 149.557h5.273v28.174h-5.273v-28.174z" fill="#423E4F"/><path d="M106.533 153.073H83.469c-5.653 0-8.995-6.334-5.804-11l3.026-4.431 14.311-7.697 14.306 7.697 3.029 4.431c3.191 4.666-.151 11-5.804 11z" fill="#EFEDFF"/><path d="M95.002 129.945l-14.311 7.697c2.512 6.59 7.54 11.81 14.311 15.431 6.772-3.621 11.793-8.841 14.306-15.431l-14.306-7.697z" fill="#FFCBBE"/><path d="M105.55 163.699a2.636 2.636 0 1 0 0-5.272 2.636 2.636 0 0 0 0 5.272zm0 8.935a2.637 2.637 0 1 0-.001-5.273 2.637 2.637 0 0 0 .001 5.273z" fill="#423E4F"/><path d="M43.976 101.338c7.006 0 12.685-5.68 12.685-12.685 0-7.006-5.68-12.685-12.685-12.685-7.006 0-12.685 5.68-12.685 12.685 0 7.006 5.68 12.685 12.685 12.685zm102.046 0c7.005 0 12.685-5.68 12.685-12.685 0-7.006-5.68-12.685-12.685-12.685-7.006 0-12.686 5.68-12.686 12.685 0 7.006 5.68 12.685 12.686 12.685z" fill="#FFCBBE"/><path d="M118.395 43.298a50.667 50.667 0 0 0-14.939-4.97 51.38 51.38 0 0 0-8.457-.698 50.797 50.797 0 0 0-23.387 5.665c-16.414 8.48-27.635 25.608-27.635 45.358a50.779 50.779 0 0 0 6.637 25.176c6.483 11.404 17.23 20.067 30.078 23.813a51.065 51.065 0 0 0 14.307 2.034 51.236 51.236 0 0 0 14.309-2.034c12.849-3.746 23.595-12.41 30.079-23.815a50.785 50.785 0 0 0 6.635-25.174c0-19.747-11.217-36.873-27.627-45.355z" fill="#FFDDCF"/><path d="M60.89 88.653c0-25.298 18.412-46.296 42.565-50.326a51.328 51.328 0 0 0-8.457-.697c-28.178 0-51.023 22.843-51.023 51.023 0 28.178 22.845 51.023 51.023 51.023a51.35 51.35 0 0 0 8.457-.7c-24.153-4.03-42.566-25.026-42.566-50.323z" fill="#FFCBBE"/><path d="M118.394 43.298c1.182 5.07 1.613 11.433-.64 18.95a5.46 5.46 0 0 0 3.051 6.576l10.487 4.557c2.708 1.177 4.518 3.765 4.74 6.71a66.376 66.376 0 0 1-2.406 23.379 8.38 8.38 0 0 0 2.974 8.986 8.23 8.23 0 0 0 2.786 1.371 50.773 50.773 0 0 0 6.636-25.174c0-19.747-11.218-36.873-27.628-45.355z" fill="#D6948C"/><path d="M56.378 103.469a66.39 66.39 0 0 1-2.406-23.38c.223-2.944 2.033-5.531 4.74-6.708L69.2 68.824a5.46 5.46 0 0 0 3.05-6.576c-2.252-7.519-1.82-13.883-.638-18.953-16.414 8.48-27.636 25.608-27.636 45.357a50.776 50.776 0 0 0 6.637 25.176 8.22 8.22 0 0 0 2.792-1.373 8.381 8.381 0 0 0 2.973-8.986z" fill="#CE857A"/><path d="M67.183 114.097c5.608 0 10.154-3.621 10.154-8.087 0-4.465-4.546-8.086-10.154-8.086s-10.154 3.621-10.154 8.086c0 4.466 4.546 8.087 10.154 8.087zm55.59 0c5.631 0 10.195-3.621 10.195-8.087 0-4.465-4.564-8.086-10.195-8.086s-10.196 3.621-10.196 8.086c0 4.466 4.565 8.087 10.196 8.087z" fill="#FFCBBE"/><path d="M73.043 91.42a2.637 2.637 0 0 0-2.636 2.637v4.219a2.637 2.637 0 0 0 5.273 0v-4.219a2.637 2.637 0 0 0-2.637-2.637zm43.911 0a2.637 2.637 0 0 0-2.637 2.637v4.219a2.638 2.638 0 0 0 5.274 0v-4.219a2.637 2.637 0 0 0-2.637-2.637z" fill="#313D40"/><path d="M111.832 103.969c-2.421 0-4.691-1.039-6.4-2.753a6.995 6.995 0 0 0-4.969-2.063 7.004 7.004 0 0 0-5.46 2.61 7.007 7.007 0 0 0-5.461-2.61 6.994 6.994 0 0 0-4.97 2.063c-1.709 1.714-3.979 2.753-6.4 2.753a1.726 1.726 0 0 0-1.688 2.068c.96 4.826 5.22 8.463 10.328 8.463 3.309 0 6.26-1.528 8.19-3.914a10.511 10.511 0 0 0 8.191 3.914c5.108 0 9.367-3.637 10.328-8.463a1.726 1.726 0 0 0-1.689-2.068z" fill="#CE857A"/><path d="M143.018 131.729l-10.547 39.363a5.273 5.273 0 0 0 10.188 2.729l10.547-39.362-4.218-4.131-5.97 1.401z" fill="#423E4F"/><path d="M156.722 121.338a5.272 5.272 0 0 0-3.729-6.458 5.272 5.272 0 0 0-6.458 3.728l-3.516 13.121 10.188 2.73 3.515-13.121z" fill="#EFEDFF"/><path d="M134.147 165.827a7.031 7.031 0 1 0 .001-14.063 7.031 7.031 0 0 0-.001 14.063z" fill="#FFBF9D"/><path d="M145.003 168.391c5.825 0 10.547-4.722 10.547-10.547s-4.722-10.547-10.547-10.547-10.547 4.722-10.547 10.547 4.722 10.547 10.547 10.547z" fill="#FFD4BD"/><path d="M142.271 10.254A156.874 156.874 0 0 0 94.999 3c-1.275 0-2.548.023-3.822.054a158.028 158.028 0 0 0-43.436 7.212c-5.087 1.597-8.172 6.754-7.191 11.995a293.14 293.14 0 0 1 4.89 46.227c13.89 5.597 28.906 8.993 44.556 9.586a131.805 131.805 0 0 0 54.562-9.6 292.85 292.85 0 0 1 1.612-23.984 292.61 292.61 0 0 1 3.28-22.244c.981-5.236-2.099-10.39-7.179-11.992z" fill="#5C586F"/><path d="M82.854 21.162c-1.369-7.314 2.106-14.525 8.323-18.108a158.027 158.027 0 0 0-43.435 7.211c-5.088 1.598-8.173 6.755-7.192 11.996a293.188 293.188 0 0 1 4.89 46.227c13.89 5.597 28.906 8.993 44.556 9.585a478.816 478.816 0 0 0-7.142-56.911z" fill="#423E4F"/><path d="M144.558 68.473c.209-8.016.747-16.017 1.612-23.983-15.337 8.028-32.769 12.578-51.247 12.578-18.413 0-35.789-4.517-51.087-12.493.86 7.943 1.395 15.92 1.604 23.913 15.342 6.182 32.057 9.679 49.483 9.679a131.8 131.8 0 0 0 49.635-9.694z" fill="#FF8E9E"/><path d="M89.996 78.073A478.806 478.806 0 0 0 88.23 57.66c-.03-.265-.061-.531-.09-.797a110.08 110.08 0 0 1-44.303-12.287c.86 7.942 1.395 15.92 1.603 23.912 14.318 5.77 29.383 9.012 44.556 9.587z" fill="#EA5B70"/><path d="M159.085 57.923a7.87 7.87 0 0 0-9.084-1.486c-16.889 8.459-35.638 12.936-55.078 12.936-19.403 0-38.12-4.462-54.985-12.89a7.86 7.86 0 0 0-9.065 1.486c-3.826 3.826-2.738 10.266 2.118 12.654a146.342 146.342 0 0 0 12.55 5.44c15.351 5.84 31.981 9.135 49.382 9.135a138.61 138.61 0 0 0 49.533-9.135 141.645 141.645 0 0 0 12.537-5.484c4.84-2.406 5.914-8.835 2.092-12.656z" fill="#423E4F"/><path d="M181.026 103.734a17.56 17.56 0 0 0-4.795-2.031 17.574 17.574 0 0 0-2.032-4.795 2.777 2.777 0 0 0-4.756 0 17.61 17.61 0 0 0-2.032 4.795 17.541 17.541 0 0 0-4.794 2.031 2.766 2.766 0 0 0-1.343 2.378c0 .915.447 1.83 1.343 2.378 1.47.9 3.083 1.594 4.795 2.035a17.573 17.573 0 0 0 2.031 4.792 2.777 2.777 0 0 0 4.756 0c.9-1.471 1.59-3.08 2.031-4.792a17.608 17.608 0 0 0 4.796-2.035 2.777 2.777 0 0 0 0-4.756zM49.49 140.327a20.493 20.493 0 0 0-5.595-2.37 20.5 20.5 0 0 0-2.37-5.594 3.24 3.24 0 0 0-5.549 0 20.5 20.5 0 0 0-2.37 5.594 20.498 20.498 0 0 0-5.594 2.37 3.229 3.229 0 0 0-1.566 2.774c0 1.068.522 2.136 1.566 2.775a20.536 20.536 0 0 0 5.596 2.374 20.499 20.499 0 0 0 2.369 5.59 3.24 3.24 0 0 0 5.549 0 20.485 20.485 0 0 0 2.37-5.59 20.532 20.532 0 0 0 5.594-2.374 3.24 3.24 0 0 0 0-5.549zM21.7 116.03h-2.11a2.637 2.637 0 0 0 0 5.274h2.11a2.637 2.637 0 0 0 0-5.274zm-11.954 0h-2.11a2.637 2.637 0 0 0 0 5.274h2.11a2.637 2.637 0 0 0 0-5.274zm4.922 4.922a2.637 2.637 0 0 0-2.636 2.637v2.11a2.636 2.636 0 0 0 5.273 0v-2.11a2.637 2.637 0 0 0-2.637-2.637zm0-4.57a2.637 2.637 0 0 0 2.637-2.637v-2.109a2.637 2.637 0 0 0-5.274 0v2.109a2.637 2.637 0 0 0 2.637 2.637zm167.7 22.471h-2.109a2.637 2.637 0 0 0 0 5.274h2.109a2.637 2.637 0 1 0 0-5.274zm-11.953 0h-2.11a2.637 2.637 0 0 0 0 5.274h2.11a2.637 2.637 0 0 0 0-5.274zm4.922 4.922a2.637 2.637 0 0 0-2.637 2.637v2.11a2.637 2.637 0 0 0 5.274 0v-2.11a2.637 2.637 0 0 0-2.637-2.637zm0-4.57a2.637 2.637 0 0 0 2.637-2.637v-2.109a2.637 2.637 0 0 0-5.274 0v2.109a2.637 2.637 0 0 0 2.637 2.637z" fill="#FFE871"/><path d="M61.753 204.21h-35.98c-9.441 0-17.095-6.032-17.095-13.472v-8.579h70.17v8.579c0 7.44-7.653 13.472-17.095 13.472z" fill="#FF737D"/><path d="M24.994 182.159H8.678v8.579c0 7.44 7.634 13.472 17.05 13.472h18.2c-5.257-9.359-17.412-11.4-18.934-22.051z" fill="#F46262"/><path d="M61.753 196.423h-35.98c-9.441 0-17.095-6.035-17.095-13.478v-3.786c0-7.444 7.654-13.477 17.096-13.477h35.979c9.442 0 17.096 6.033 17.096 13.477v3.787c0 7.442-7.654 13.477-17.096 13.477z" fill="#FF929F"/><path d="M21.439 180.322c-.287-13.676 3.244-14.64 3.244-14.64h-2.544c-7.435 0-13.461 6.026-13.461 13.461v3.782c0 7.435 6.026 13.462 13.461 13.462h8.626c-4.423-4.367-9.153-7.856-9.326-16.065z" fill="#FF737D"/><path d="M22.955 170.903h-4.142a1.72 1.72 0 0 0-1.719 1.719v17.296c0 .95.77 1.72 1.72 1.72h3.85a4.824 4.824 0 0 0 4.817-4.818v-2.943a4.79 4.79 0 0 0-1.055-3.004 4.508 4.508 0 0 0 1.055-2.902v-2.541a4.532 4.532 0 0 0-4.526-4.527zm-2.422 3.438h2.422c.6 0 1.088.489 1.088 1.089v2.541c0 .6-.488 1.088-1.088 1.088h-2.422v-4.718zm3.51 12.479a1.38 1.38 0 0 1-1.38 1.379h-2.13v-5.701h2.13c.761 0 1.38.619 1.38 1.379v2.943z" fill="#fff"/><path d="M25.314 190.84a18.327 18.327 0 0 1-1.939-2.84 1.37 1.37 0 0 1-.711.199h-2.131v-5.701h1.07a19.611 19.611 0 0 1-.164-2.176c-.01-.434-.014-.854-.016-1.263h-.89v-4.718h1.059c.112-1.342.274-2.477.465-3.438h-3.244a1.72 1.72 0 0 0-1.719 1.719v17.296c0 .95.77 1.72 1.72 1.72h3.85c.978 0 1.889-.294 2.65-.798z" fill="#CCF8FF"/><path d="M40.086 173.387c-.944 0-1.71.679-1.71 1.516v12.186c0 .853-.782 1.547-1.744 1.547-.963 0-1.746-.694-1.746-1.547v-12.186c0-.837-.765-1.516-1.71-1.516-.943 0-1.71.679-1.71 1.516v12.186c0 2.525 2.318 4.579 5.166 4.579 2.847 0 5.164-2.054 5.164-4.579v-12.186c0-.838-.766-1.516-1.71-1.516z" fill="#fff"/><path d="M33.108 187.241c.951 0 1.723-.62 1.723-1.386v-11.148c0-.78.789-1.415 1.76-1.415.97 0 1.758.635 1.758 1.415v11.148c0 .766.772 1.386 1.723 1.386.952 0 1.724-.62 1.724-1.386v-11.148c0-2.31-2.335-4.189-5.206-4.189-2.87 0-5.205 1.879-5.205 4.189v11.148c0 .766.771 1.386 1.723 1.386zm20.914-13.608c-.944 0-1.71.679-1.71 1.516v12.186c0 .853-.782 1.547-1.745 1.547-.962 0-1.745-.694-1.745-1.547v-12.186c0-.837-.766-1.516-1.71-1.516s-1.71.679-1.71 1.516v12.186c0 2.525 2.317 4.579 5.165 4.579s5.165-2.054 5.165-4.579v-12.186c0-.837-.766-1.516-1.71-1.516z" fill="#fff"/><path d="M47.044 187.487c.951 0 1.723-.621 1.723-1.386v-11.148c0-.781.789-1.416 1.759-1.416.97 0 1.76.635 1.76 1.416v11.148c0 .765.77 1.386 1.722 1.386s1.724-.621 1.724-1.386v-11.148c0-2.31-2.335-4.189-5.206-4.189-2.87 0-5.205 1.879-5.205 4.189v11.148c0 .766.771 1.386 1.723 1.386z" fill="#fff"/><path d="M14.59 201.565l13.057-8.664c1.587-1.053 3.68.244 3.435 2.128l-2.018 15.505c-.159 1.219-1.702 1.661-2.486.711l-1.595-1.934a1.338 1.338 0 0 0-2.167.142l-2.615 4.194a2.649 2.649 0 0 1-3.64.846 2.63 2.63 0 0 1-.85-3.628l2.616-4.193a1.33 1.33 0 0 0-.83-2l-2.446-.57c-1.202-.28-1.488-1.855-.46-2.537z" fill="#ABEBF4"/><path d="M24.813 204.409c2.626-1.519 3.914-8.621 4.375-11.885 1.123.17 2.064 1.188 1.894 2.483l-2.03 15.522c-.16 1.221-1.714 1.663-2.502.712l-1.605-1.937a1.35 1.35 0 0 0-2.18.143l-2.632 4.198a2.673 2.673 0 0 1-3.663.847s5.327-8.339 8.343-10.083z" fill="#8ED7E8"/><path stroke="#fff" stroke-width="3.802" stroke-linecap="round" d="M60.912 172.829v16.938m8.697-16.583l-7.933 10.345m7.971 6.093l-4.566-8.836"/><defs><filter id="a" x=".532" y=".619" width="340.72" height="340.72" filterUnits="userSpaceOnUse" color-interpolation-filters="sRGB"><feFlood flood-opacity="0" result="BackgroundImageFix"/><feColorMatrix in="SourceAlpha" values="0 0 0 0 0 0 0 0 0 0 0 0 0 0 0 0 0 0 127 0"/><feOffset/><feGaussianBlur stdDeviation=".5"/><feColorMatrix values="0 0 0 0 0 0 0 0 0 0 0 0 0 0 0 0 0 0 0.04 0"/><feBlend in2="BackgroundImageFix" result="effect1_dropShadow"/><feColorMatrix in="SourceAlpha" values="0 0 0 0 0 0 0 0 0 0 0 0 0 0 0 0 0 0 127 0"/><feOffset dy="2"/><feGaussianBlur stdDeviation="3"/><feColorMatrix values="0 0 0 0 0 0 0 0 0 0 0 0 0 0 0 0 0 0 0.04 0"/><feBlend in2="effect1_dropShadow" result="effect2_dropShadow"/><feColorMatrix in="SourceAlpha" values="0 0 0 0 0 0 0 0 0 0 0 0 0 0 0 0 0 0 127 0"/><feOffset dy="16"/><feGaussianBlur stdDeviation="12"/><feColorMatrix values="0 0 0 0 0 0 0 0 0 0 0 0 0 0 0 0 0 0 0.06 0"/><feBlend in2="effect2_dropShadow" result="effect3_dropShadow"/><feBlend in="SourceGraphic" in2="effect3_dropShadow" result="shape"/></filter></defs></svg>