<svg width="420" height="352" viewBox="0 0 420 352" fill="none" xmlns="http://www.w3.org/2000/svg"><g filter="url(#a)"><mask id="b" maskUnits="userSpaceOnUse" x="45" y="8" width="342" height="304"><path fill-rule="evenodd" clip-rule="evenodd" d="M384.741 114.918c13.781 81.99-39.139 167.989-118.721 191.765-75.298 22.496-144.747-34.587-188.376-100.017C39.946 150.131 29.397 71.333 76.338 22.22c38.37-40.144 94.057 15.813 147.212 31.79 60.812 18.278 150.655-1.776 161.191 60.908z" fill="#7BE6DB"/></mask><g mask="url(#b)" fill-rule="evenodd" clip-rule="evenodd"><path d="M384.741 114.918c13.781 81.99-39.139 167.989-118.721 191.765-75.298 22.496-144.747-34.587-188.376-100.017C39.946 150.131 29.397 71.333 76.338 22.22c38.37-40.144 94.057 15.813 147.212 31.79 60.812 18.278 150.655-1.776 161.191 60.908z" fill="#7BE6DB"/><path d="M146.693 208.39c-64.115 52.93-165.053 50.099-225.434-6.933-57.132-53.962-42.421-142.649-7.572-213.147C-56.2-72.605 6.767-121.14 72.77-105.044c53.951 13.157 33.334 89.362 46.075 143.384 14.576 61.804 76.865 129.583 27.848 170.05z" fill="#A1EEE6"/><path d="M278.538 102.48c76.543-32.459 172.486-.973 214.105 70.904 39.38 68.009-.001 148.823-53.5 206.463-46.227 49.804-120.416 78.377-179.093 44.134-47.962-27.989-6.478-95.156-3.292-150.569 3.646-63.394-36.739-146.117 21.78-170.932z" fill="#38D3C4"/></g></g><path d="M318.515 271.235c0-20.596 14.955-30.16 14.955-30.16h45.127s14.954 9.563 14.954 30.16h-75.036z" fill="#FF97C0"/><path d="M371.486 241.075h7.111s14.954 9.563 14.954 30.16h-7.111c0-20.596-14.954-30.16-14.954-30.16z" fill="#FF71A7"/><path d="M347.568 238.447a9.8 9.8 0 0 1 8.466 4.861 9.797 9.797 0 0 1 8.465-4.861c5.415 0 9.805 4.39 9.805 9.805s-4.39 9.805-9.805 9.805a9.796 9.796 0 0 1-8.465-4.86 9.799 9.799 0 0 1-8.466 4.86c-5.415 0-9.805-4.39-9.805-9.805s4.39-9.805 9.805-9.805z" fill="#ECECEC"/><path d="M380.873 271.235V260.5a2.052 2.052 0 1 0-4.103 0v10.735h4.103zm-45.576 0V260.5a2.052 2.052 0 0 0-4.103 0v10.735h4.103zm36.509-115.274a4.017 4.017 0 0 0 4.001-3.702c.25-3.096 1.435-8.264 3.291-10.06a4.017 4.017 0 1 0-5.589-5.774c-2.136 2.068-3.748 5.313-4.791 9.645a39.196 39.196 0 0 0-.922 5.563 4.018 4.018 0 0 0 4.01 4.328z" fill="#FF71A7"/><path d="M320.135 141.622c10.044-5.888 22.721-5.068 33.635-2.499 10.607 2.496 20.183 8.396 31.099 10.124 4.858.769 9.944.941 14.651 2.458 8.188 2.638 8.415 10.274 6.592 17.619l-50.079 8.542-50.078-8.542c.443-10.888 4.359-21.945 14.18-27.702z" fill="#FF97C0"/><path d="M397.907 169.324c1.621-7.151 1.616-15.192-4.166-18.915 1.961.301 3.901.69 5.78 1.295 8.188 2.638 8.414 10.275 6.591 17.62h-8.205z" fill="#FF71A7"/><path d="M406.112 169.324c5.034 8.69 7.72 18.587 7.72 28.899H298.236c0-10.312 2.685-20.209 7.719-28.9h100.157v.001z" fill="#5C586F"/><path d="M406.112 169.323c5.034 8.691 7.72 18.588 7.72 28.9h-8.206c0-10.312-2.685-20.209-7.719-28.9h8.205z" fill="#423E4F"/><path d="M298.235 198.223c0 9.613-2.963 15.238-5.375 18.225-1.433 1.773-.858 4.412 1.195 5.403 7.307 3.528 25.16 9.286 61.979 7.566 36.818 1.72 54.671-4.038 61.978-7.566 2.053-.991 2.628-3.63 1.196-5.403-2.413-2.987-5.376-8.612-5.376-18.225H298.235z" fill="#5C586F"/><path d="M413.832 198.223c0 9.613 2.963 15.238 5.376 18.225 1.432 1.773.857 4.412-1.196 5.403a49.05 49.05 0 0 1-4.876 2.014c-2.277-3.147-4.775-8.61-4.775-17.437l5.471-8.205z" fill="#423E4F"/><path d="M308.147 213.535c-6.978 0-12.634-5.657-12.634-12.634s5.656-12.633 12.634-12.633c6.977 0 12.633 5.656 12.633 12.633 0 6.977-5.656 12.634-12.633 12.634z" fill="#FFCABD"/><path d="M307.609 198.224c0 26.743 21.681 48.421 48.424 48.421 26.744 0 48.424-21.678 48.424-48.421 0-3.41-.353-6.737-1.023-9.946 0 0-27.247 1.947-47.401-10.411-20.154 12.359-47.4 10.411-47.4 10.411a48.626 48.626 0 0 0-1.024 9.946z" fill="#FFDCCE"/><path d="M308.633 188.278s.108.008.315.019l-.322.014.007-.033zm87.619 9.946a48.68 48.68 0 0 0-1.017-9.914c4.142.162 7.04.034 7.919-.015l.218-.013.062-.004.001.003c.159-.007.319-.013.485-.013 6.978 0 12.634 5.656 12.634 12.634 0 6.977-5.656 12.633-12.634 12.633-.69 0-1.314-.057-1.882-.164-6.36 19.324-24.552 33.274-46.005 33.274-1.382 0-2.75-.061-4.102-.174 24.823-2.083 44.321-22.886 44.321-48.247z" fill="#FFCABD"/><path d="M381.785 216.112c-5.247 0-9.501-3.387-9.501-7.567 0-4.179 4.254-7.567 9.501-7.567 5.248 0 9.502 3.388 9.502 7.567 0 4.18-4.254 7.567-9.502 7.567zm-51.503 0c-5.248 0-9.502-3.387-9.502-7.567 0-4.179 4.254-7.567 9.502-7.567 5.247 0 9.502 3.388 9.502 7.567 0 4.18-4.255 7.567-9.502 7.567z" fill="#FFAACB"/><path d="M371.725 202.363a2.052 2.052 0 0 0 2.051-2.052 2.475 2.475 0 0 1 2.472-2.471 2.474 2.474 0 0 1 2.471 2.471 2.052 2.052 0 0 0 4.103 0 6.581 6.581 0 0 0-6.574-6.574 6.581 6.581 0 0 0-6.574 6.574c0 1.133.918 2.052 2.051 2.052zm-40.428 0a2.052 2.052 0 0 0 2.051-2.052 2.474 2.474 0 0 1 2.471-2.471 2.475 2.475 0 0 1 2.472 2.471 2.052 2.052 0 1 0 4.103 0 6.582 6.582 0 0 0-6.575-6.574 6.581 6.581 0 0 0-6.574 6.574c0 1.133.919 2.052 2.052 2.052zm24.736 7.472a8.418 8.418 0 0 0 6.345-2.89 2.051 2.051 0 0 0-3.093-2.696 4.31 4.31 0 0 1-6.502 0 2.052 2.052 0 0 0-3.094 2.696 8.416 8.416 0 0 0 6.344 2.89zM76.743 74.375a4.018 4.018 0 0 0 4.002-3.703c.249-3.095 1.434-8.263 3.29-10.06a4.018 4.018 0 1 0-5.59-5.773c-2.135 2.068-3.747 5.313-4.79 9.645a39.218 39.218 0 0 0-.922 5.563 4.018 4.018 0 0 0 4.01 4.328z" fill="#423E4F"/><path d="M23.453 189.649c0-20.597 14.954-30.161 14.954-30.161h45.127s14.954 9.564 14.954 30.161H23.454z" fill="#5C586F"/><path d="M77.243 159.488h6.291s14.954 9.564 14.954 30.161h-6.29c0-20.597-14.955-30.161-14.955-30.161zm8.567 30.161v-10.735a2.052 2.052 0 1 0-4.103 0v10.735h4.103zm-45.576 0v-10.735a2.052 2.052 0 1 0-4.103 0v10.735h4.103z" fill="#423E4F"/><path d="M60.97 176.198c-7.36 0-13.326-5.967-13.326-13.327s5.967-13.327 13.327-13.327 13.327 5.967 13.327 13.327-5.967 13.327-13.327 13.327z" fill="#FFDCCE"/><path d="M15.63 80.518h90.681c7.917 9.916 12.657 22.474 12.657 36.12H2.973c0-13.646 4.74-26.204 12.657-36.12z" fill="#E3986D"/><path d="M106.311 80.518c7.917 9.916 12.657 22.474 12.657 36.12h-8.206c0-13.646-4.74-26.204-12.656-36.12h8.205z" fill="#D97C40"/><path d="M13.084 131.948c-6.978 0-12.634-5.656-12.634-12.633 0-6.977 5.656-12.633 12.634-12.633 6.977 0 12.633 5.656 12.633 12.633 0 6.977-5.656 12.633-12.633 12.633zm95.774 0c-6.977 0-12.633-5.656-12.633-12.633 0-6.977 5.656-12.633 12.633-12.633 6.977 0 12.633 5.656 12.633 12.633 0 6.977-5.656 12.633-12.633 12.633z" fill="#FFCABD"/><path d="M60.97 165.059c-26.743 0-48.423-21.679-48.423-48.421 0-26.743 21.68-48.422 48.424-48.422s48.424 21.68 48.424 48.422c0 26.742-21.68 48.421-48.424 48.421z" fill="#E3986D"/><path d="M60.97 77.789c21.423 0 38.852 17.429 38.852 38.848v.051c-.004 2.994-1.654 5.744-4.258 7.221l-.094.053a16.621 16.621 0 0 1-17.133-.426c-5.233-3.332-12.07-6.899-17.366-6.899-5.296 0-12.134 3.567-17.366 6.899a16.621 16.621 0 0 1-17.134.426l-.094-.053c-2.603-1.477-4.254-4.227-4.258-7.221v-.051c0-21.42 17.43-38.848 38.852-38.848z" fill="#FFDCCE"/><path d="M10.892 87.738c.443-10.888 4.36-21.945 14.18-27.702 10.044-5.888 22.72-5.068 33.635-2.5 10.607 2.497 20.183 8.397 31.099 10.125 4.858.77 9.944.94 14.652 2.457 8.188 2.639 8.414 10.275 6.591 17.62H10.892z" fill="#5C586F"/><path d="M99.217 68.908c1.777.289 3.534.66 5.241 1.21 8.188 2.639 8.415 10.275 6.592 17.62h-8.206c1.569-6.323 1.614-14.886-3.627-18.83zM82.71 114.826a2.052 2.052 0 0 0 2.052-2.052v-4.724a2.052 2.052 0 1 0-4.103 0v4.724c0 1.133.918 2.052 2.051 2.052zm-43.479 0a2.052 2.052 0 0 0 2.051-2.052v-4.724a2.052 2.052 0 1 0-4.102 0v4.724c0 1.133.918 2.052 2.051 2.052zm21.739 16.436a9.652 9.652 0 0 0 7.279-3.315 2.05 2.05 0 1 0-3.094-2.696 5.549 5.549 0 0 1-4.184 1.908 5.552 5.552 0 0 1-4.185-1.908 2.051 2.051 0 1 0-3.094 2.696 9.653 9.653 0 0 0 7.279 3.315z" fill="#423E4F"/><path d="M198.697 108.943l-3.218-.734a1.54 1.54 0 0 0-1.867 1.725l.477 3.267c.071.488-.028.986-.281 1.41l-1.692 2.835a1.54 1.54 0 0 0 1.063 2.308l3.255.556c.486.083.929.331 1.254.703l2.173 2.485a1.54 1.54 0 0 0 2.524-.298l1.534-2.923a2.143 2.143 0 0 1 1.056-.976l3.036-1.299a1.54 1.54 0 0 0 .496-2.492l-2.306-2.362a2.147 2.147 0 0 1-.602-1.307l-.297-3.288a1.54 1.54 0 0 0-2.217-1.242l-2.959 1.463a2.145 2.145 0 0 1-1.429.169z" fill="#FFE662"/><path opacity=".15" d="M207.034 114.002c-2.822-.237-7.796 1.347-13.01-1.238l-.414-2.83a1.54 1.54 0 0 1 1.867-1.724l3.219.733c.481.11.986.05 1.428-.168l2.959-1.464c.971-.48 2.12.165 2.218 1.243l.297 3.288c.044.491.257.952.601 1.306l.835.854z" fill="#DA8C11"/><path opacity=".15" d="M200.387 123.889a1.52 1.52 0 0 1-.527-.392l-2.173-2.485a2.144 2.144 0 0 0-1.255-.703l-3.254-.556a1.54 1.54 0 0 1-1.063-2.308l1.692-2.835c.253-.423.352-.922.281-1.41l-.477-3.267a1.54 1.54 0 0 1 1.866-1.724l3.219.733c.481.11.986.05 1.428-.168l2.959-1.464a1.54 1.54 0 0 1 1.857.382c-10.335 6.726-6.816 13.418-4.553 16.197z" fill="#CC830F"/><path d="M272.064 175.594l-3.219-.733a1.54 1.54 0 0 0-1.867 1.725l.477 3.266c.072.489-.027.987-.281 1.411l-1.692 2.834a1.54 1.54 0 0 0 1.064 2.308l3.254.556c.486.083.93.331 1.254.703l2.173 2.485a1.54 1.54 0 0 0 2.524-.298l1.534-2.923a2.15 2.15 0 0 1 1.057-.976l3.035-1.298a1.541 1.541 0 0 0 .496-2.493l-2.306-2.362a2.15 2.15 0 0 1-.602-1.306l-.297-3.288a1.541 1.541 0 0 0-2.217-1.243l-2.959 1.464a2.149 2.149 0 0 1-1.428.168z" fill="#FFE662"/><path opacity=".15" d="M280.4 180.654c-2.822-.238-7.796 1.347-13.01-1.238l-.413-2.83a1.54 1.54 0 0 1 1.867-1.725l3.218.734c.482.109.986.05 1.429-.169l2.959-1.463a1.54 1.54 0 0 1 2.217 1.242l.297 3.288c.044.492.257.953.602 1.306l.834.855z" fill="#DA8C11"/><path opacity=".15" d="M273.753 190.54a1.54 1.54 0 0 1-.527-.391l-2.173-2.486a2.15 2.15 0 0 0-1.254-.703l-3.254-.555a1.541 1.541 0 0 1-1.064-2.309l1.692-2.834c.253-.424.353-.922.281-1.411l-.477-3.266a1.54 1.54 0 0 1 1.867-1.725l3.218.734c.482.109.986.05 1.429-.169l2.959-1.463a1.539 1.539 0 0 1 1.856.381c-10.334 6.727-6.816 13.419-4.553 16.197z" fill="#CC830F"/><path d="M200.553 156.023l-1.648 5.106a2.504 2.504 0 0 0 2.525 3.27l5.357-.306a3.494 3.494 0 0 1 2.243.657l4.347 3.145a2.503 2.503 0 0 0 3.889-1.391l1.365-5.189a3.484 3.484 0 0 1 1.318-1.93l4.335-3.162a2.505 2.505 0 0 0-.122-4.13l-4.513-2.901a3.49 3.49 0 0 1-1.429-1.85l-1.667-5.1a2.504 2.504 0 0 0-3.965-1.16l-4.154 3.395a3.493 3.493 0 0 1-2.201.788l-5.365.01a2.504 2.504 0 0 0-2.329 3.412l1.945 5a3.49 3.49 0 0 1 .069 2.336z" fill="#FFE662"/><path opacity=".15" d="M209.936 143.249c-.788 4.535 1.065 12.814-3.865 20.885l-4.641.264a2.503 2.503 0 0 1-2.525-3.269l1.648-5.106a3.49 3.49 0 0 0-.069-2.336l-1.945-5a2.504 2.504 0 0 1 2.328-3.412l5.366-.01a3.493 3.493 0 0 0 2.201-.788l1.502-1.228z" fill="#DA8C11"/><path opacity=".15" d="M224.992 155.426a2.503 2.503 0 0 1-.71.797l-4.335 3.162a3.483 3.483 0 0 0-1.317 1.93l-1.365 5.189a2.504 2.504 0 0 1-3.89 1.391l-4.347-3.145a3.494 3.494 0 0 0-2.243-.657l-5.357.305c-1.756.101-3.065-1.594-2.525-3.269l1.648-5.106a3.483 3.483 0 0 0-.068-2.336l-1.946-5a2.503 2.503 0 0 1 .883-2.951c9.412 17.694 20.749 12.955 25.572 9.69z" fill="#CC830F"/><path d="M222.057 217.448l-1.649 5.106a2.504 2.504 0 0 0 2.526 3.269l5.356-.305a3.487 3.487 0 0 1 2.243.656l4.347 3.146a2.505 2.505 0 0 0 3.89-1.392l1.365-5.189a3.483 3.483 0 0 1 1.318-1.93l4.334-3.162a2.503 2.503 0 0 0-.121-4.129l-4.513-2.902a3.485 3.485 0 0 1-1.429-1.85l-1.668-5.099a2.503 2.503 0 0 0-3.964-1.161l-4.155 3.395a3.488 3.488 0 0 1-2.2.788l-5.366.01a2.504 2.504 0 0 0-2.329 3.412l1.946 5c.291.748.315 1.573.069 2.337z" fill="#FFE662"/><path opacity=".15" d="M231.44 204.673c-.789 4.535 1.065 12.815-3.866 20.885l-4.641.265a2.504 2.504 0 0 1-2.525-3.269l1.648-5.106a3.486 3.486 0 0 0-.068-2.337l-1.946-5a2.504 2.504 0 0 1 2.329-3.412l5.365-.01a3.493 3.493 0 0 0 2.201-.787l1.503-1.229z" fill="#DA8C11"/><path opacity=".15" d="M246.496 216.85a2.503 2.503 0 0 1-.71.797l-4.335 3.162a3.493 3.493 0 0 0-1.318 1.93l-1.365 5.189a2.504 2.504 0 0 1-3.889 1.392l-4.347-3.146a3.487 3.487 0 0 0-2.243-.656l-5.357.305a2.504 2.504 0 0 1-2.525-3.269l1.648-5.106a3.486 3.486 0 0 0-.069-2.337l-1.945-5a2.503 2.503 0 0 1 .883-2.951c9.411 17.694 20.749 12.956 25.572 9.69z" fill="#CC830F"/><path d="M127.006 156.653l-2.74 7.427c-.899 2.436.928 5.014 3.524 4.973l7.916-.124a5.145 5.145 0 0 1 3.267 1.104l6.217 4.901c2.038 1.607 5.055.666 5.818-1.815l2.328-7.567a5.15 5.15 0 0 1 2.059-2.766l6.583-4.398c2.158-1.442 2.195-4.602.072-6.095l-6.477-4.552a5.146 5.146 0 0 1-1.995-2.813l-2.149-7.62c-.704-2.498-3.698-3.51-5.774-1.951l-6.33 4.753a5.145 5.145 0 0 1-3.293 1.027l-7.91-.311c-2.594-.102-4.481 2.433-3.64 4.889l2.564 7.489a5.15 5.15 0 0 1-.04 3.449z" fill="#FFE662"/><path opacity=".15" d="M141.615 138.391c-1.438 6.637.792 18.956-6.967 30.555l-6.858.108c-2.595.04-4.423-2.538-3.524-4.973l2.74-7.427a5.143 5.143 0 0 0 .04-3.449l-2.564-7.49c-.841-2.455 1.046-4.99 3.64-4.888l7.911.311a5.148 5.148 0 0 0 3.292-1.027l2.29-1.72z" fill="#DA8C11"/><path opacity=".15" d="M163.073 157.256a3.682 3.682 0 0 1-1.095 1.132l-6.583 4.398a5.15 5.15 0 0 0-2.059 2.766l-2.328 7.567c-.763 2.481-3.78 3.422-5.818 1.815l-6.217-4.901a5.146 5.146 0 0 0-3.268-1.104l-7.915.124c-2.596.041-4.423-2.537-3.524-4.973l2.74-7.427a5.146 5.146 0 0 0 .04-3.448l-2.564-7.49a3.692 3.692 0 0 1 1.481-4.297c12.8 26.657 29.802 20.36 37.11 15.838z" fill="#CC830F"/><defs><filter id="a" x="21.097" y="0" width="389.826" height="351.676" filterUnits="userSpaceOnUse" color-interpolation-filters="sRGB"><feFlood flood-opacity="0" result="BackgroundImageFix"/><feColorMatrix in="SourceAlpha" values="0 0 0 0 0 0 0 0 0 0 0 0 0 0 0 0 0 0 127 0"/><feOffset/><feGaussianBlur stdDeviation=".5"/><feColorMatrix values="0 0 0 0 0 0 0 0 0 0 0 0 0 0 0 0 0 0 0.04 0"/><feBlend in2="BackgroundImageFix" result="effect1_dropShadow"/><feColorMatrix in="SourceAlpha" values="0 0 0 0 0 0 0 0 0 0 0 0 0 0 0 0 0 0 127 0"/><feOffset dy="2"/><feGaussianBlur stdDeviation="3"/><feColorMatrix values="0 0 0 0 0 0 0 0 0 0 0 0 0 0 0 0 0 0 0.04 0"/><feBlend in2="effect1_dropShadow" result="effect2_dropShadow"/><feColorMatrix in="SourceAlpha" values="0 0 0 0 0 0 0 0 0 0 0 0 0 0 0 0 0 0 127 0"/><feOffset dy="16"/><feGaussianBlur stdDeviation="12"/><feColorMatrix values="0 0 0 0 0 0 0 0 0 0 0 0 0 0 0 0 0 0 0.06 0"/><feBlend in2="effect2_dropShadow" result="effect3_dropShadow"/><feBlend in="SourceGraphic" in2="effect3_dropShadow" result="shape"/></filter></defs></svg>