<svg width="348" height="341" viewBox="0 0 348 341" fill="none" xmlns="http://www.w3.org/2000/svg">
<g filter="url(#filter0_ddd)">
<mask id="mask0" mask-type="alpha" maskUnits="userSpaceOnUse" x="24" y="8" width="300" height="293">
<path fill-rule="evenodd" clip-rule="evenodd" d="M138.772 48.2404C92.7128 72.3148 22.3324 78.3818 24.0302 130.227C26.5605 207.493 70.1973 290.699 147.018 300.033C226.501 309.691 292.323 241.721 318.224 165.972C338.284 107.304 296.275 48.9845 244.478 15.0027C210.397 -7.35658 174.966 29.3223 138.772 48.2404Z" fill="#C4C4C4"/>
</mask>
<g mask="url(#mask0)">
<path fill-rule="evenodd" clip-rule="evenodd" d="M138.772 48.2404C92.7128 72.3148 22.3324 78.3818 24.0302 130.227C26.5605 207.493 70.1973 290.699 147.018 300.033C226.501 309.691 292.323 241.721 318.224 165.972C338.284 107.304 296.275 48.9845 244.478 15.0027C210.397 -7.35658 174.966 29.3223 138.772 48.2404Z" fill="#FF6D8B"/>
<path fill-rule="evenodd" clip-rule="evenodd" d="M202.349 -117.097C163.205 -82.9096 96.1999 -60.5366 109.986 -10.529C130.532 63.9977 192.434 134.678 269.305 125.771C348.841 116.554 396.924 35.0656 404.374 -44.6411C410.144 -106.376 355.65 -153.241 297.339 -174.154C258.971 -187.915 233.11 -143.961 202.349 -117.097Z" fill="#FF98AD"/>
<path fill-rule="evenodd" clip-rule="evenodd" d="M136.299 222.874C84.3277 222.844 19.1589 195.581 -3.37954 242.302C-36.9687 311.93 -36.8934 405.885 26.8391 449.779C92.7809 495.195 182.617 465.499 240.692 410.4C285.672 367.723 275.497 296.573 245.365 242.446C225.539 206.832 177.139 222.898 136.299 222.874Z" fill="#FF4F73"/>
</g>
</g>
<path d="M230.655 83.5086L225.136 102.638C224.798 103.811 223.573 104.487 222.401 104.148L213.14 101.477C211.968 101.139 211.292 99.9141 211.63 98.7418L217.149 79.6122C217.487 78.4398 218.711 77.7637 219.884 78.1019L229.144 80.7736C230.317 81.1118 230.993 82.3363 230.655 83.5086Z" fill="#7BD0A7"/>
<path d="M213.699 91.5661L211.629 98.7422C211.291 99.9146 211.967 101.139 213.139 101.477L222.4 104.149C223.572 104.487 224.797 103.811 225.135 102.639L226.071 99.3943C220.703 99.322 215.454 95.292 213.699 91.5661Z" fill="#68BF97"/>
<path d="M219.719 81.037C219.525 81.1442 219.281 81.0736 219.174 80.8798L218.876 80.3396C218.769 80.1458 218.839 79.9018 219.033 79.7947C219.227 79.6876 219.471 79.7581 219.578 79.9519L219.876 80.4922C219.983 80.686 219.913 80.9299 219.719 81.037Z" fill="#A5E1C5"/>
<path d="M214.407 99.4512L213.866 99.7496C213.672 99.8566 213.428 99.7862 213.321 99.5924C213.214 99.3984 213.285 99.1545 213.479 99.0475L214.019 98.7491C214.213 98.6421 214.457 98.7124 214.564 98.9063C214.671 99.1001 214.6 99.3442 214.407 99.4512Z" fill="#A5E1C5"/>
<path d="M228.804 83.204L228.264 83.5024C228.07 83.6094 227.826 83.5392 227.719 83.3452C227.612 83.1514 227.682 82.9073 227.876 82.8003L228.417 82.502C228.611 82.3948 228.854 82.4653 228.961 82.6591C229.069 82.8531 228.998 83.0969 228.804 83.204Z" fill="#A5E1C5"/>
<path d="M223.25 102.457C223.056 102.564 222.812 102.493 222.705 102.299L222.407 101.759C222.3 101.565 222.37 101.321 222.564 101.214C222.758 101.107 223.002 101.178 223.109 101.372L223.407 101.912C223.514 102.106 223.444 102.35 223.25 102.457Z" fill="#A5E1C5"/>
<path d="M218.544 82.512L214.355 97.032C215.256 97.8175 215.854 98.9006 216.039 100.081L220.69 101.423C221.475 100.522 222.559 99.9241 223.739 99.7392L227.928 85.2193C227.027 84.434 226.429 83.3509 226.244 82.1704L221.593 80.8285C220.808 81.7289 219.725 82.327 218.544 82.512Z" fill="#A5E1C5"/>
<path d="M223.739 99.7393L223.907 99.1578C220.462 98.4618 217.263 96.3237 215.25 93.9305L214.355 97.0321C215.256 97.8176 215.854 98.9007 216.039 100.081L220.69 101.423C221.475 100.522 222.559 99.9242 223.739 99.7393Z" fill="#91D6B5"/>
<path d="M219.757 99.3299C219.667 99.3796 219.558 99.3948 219.452 99.3641C219.239 99.3027 219.116 99.0805 219.177 98.8677L219.945 96.2071C220.006 95.9942 220.229 95.8715 220.441 95.933C220.654 95.9944 220.777 96.2165 220.716 96.4294L219.948 99.09C219.917 99.1964 219.846 99.2803 219.757 99.3299Z" fill="#7BD0A7"/>
<path d="M218.872 97.6337C218.782 97.6833 218.674 97.6987 218.567 97.668C218.354 97.6066 218.232 97.3843 218.293 97.1716L218.677 95.8413C218.738 95.6284 218.96 95.5057 219.173 95.5671C219.386 95.6285 219.509 95.8508 219.447 96.0635L219.064 97.3939C219.033 97.5003 218.962 97.5841 218.872 97.6337Z" fill="#7BD0A7"/>
<path d="M223.415 86.6501C223.325 86.6998 223.216 86.715 223.11 86.6843C222.897 86.623 222.774 86.4007 222.836 86.1879L223.603 83.5273C223.665 83.3144 223.887 83.1918 224.1 83.2532C224.312 83.3146 224.435 83.5369 224.374 83.7496L223.606 86.4101C223.575 86.5166 223.505 86.6005 223.415 86.6501Z" fill="#7BD0A7"/>
<path d="M222.147 86.2842C222.057 86.3338 221.948 86.3492 221.842 86.3185C221.629 86.2571 221.506 86.0348 221.567 85.8219L221.951 84.4917C222.013 84.2788 222.235 84.1562 222.448 84.2176C222.661 84.279 222.783 84.5011 222.722 84.714L222.338 86.0444C222.307 86.1507 222.236 86.2346 222.147 86.2842Z" fill="#7BD0A7"/>
<path d="M223.924 89.5895C224.772 91.1261 224.214 93.0593 222.678 93.9078C221.141 94.7562 219.208 94.1986 218.359 92.6621C217.511 91.1255 218.069 89.192 219.605 88.3436C221.142 87.4951 223.075 88.053 223.924 89.5895Z" fill="#7BD0A7"/>
<path d="M222.49 92.6814C222.4 92.7311 222.291 92.7465 222.185 92.7157C221.972 92.6543 221.849 92.432 221.91 92.2194L222.216 91.1591C222.24 91.0768 222.23 90.9903 222.189 90.9154C222.148 90.8404 222.08 90.7861 221.997 90.7623C221.828 90.7134 221.649 90.8117 221.601 90.9814L221.453 91.4925C221.282 92.0873 220.658 92.4316 220.063 92.26C219.775 92.1769 219.537 91.9865 219.392 91.7241C219.247 91.4615 219.213 91.1584 219.296 90.8704L219.602 89.81C219.663 89.5973 219.886 89.4745 220.099 89.5359C220.311 89.5973 220.434 89.8197 220.373 90.0323L220.067 91.0927C220.043 91.1749 220.053 91.2614 220.094 91.3364C220.135 91.4112 220.204 91.4656 220.286 91.4893C220.456 91.5383 220.634 91.44 220.683 91.2703L220.83 90.7591C220.913 90.4711 221.103 90.2325 221.366 90.0875C221.628 89.9426 221.932 89.9087 222.22 89.9918C222.508 90.0749 222.746 90.2651 222.891 90.5277C223.036 90.7901 223.07 91.0933 222.987 91.3814L222.681 92.4416C222.65 92.5481 222.579 92.6318 222.49 92.6814Z" fill="#A5E1C5"/>
<path d="M219.949 91.0768C219.859 91.1264 219.75 91.1418 219.644 91.1111L219.061 90.9429C218.848 90.8815 218.725 90.6593 218.787 90.4465C218.848 90.2336 219.07 90.1109 219.283 90.1722L219.866 90.3406C220.079 90.4018 220.202 90.6242 220.14 90.837C220.11 90.9433 220.039 91.0272 219.949 91.0768Z" fill="#A5E1C5"/>
<path d="M223.305 92.0451C223.215 92.0947 223.106 92.1101 223 92.0792L222.417 91.911C222.204 91.8496 222.081 91.6274 222.143 91.4146C222.204 91.2017 222.426 91.079 222.639 91.1404L223.222 91.3087C223.435 91.3701 223.558 91.5925 223.496 91.8053C223.466 91.9116 223.395 91.9955 223.305 92.0451Z" fill="#A5E1C5"/>
<path d="M294.591 50.0904H161.051C158.151 50.0904 155.799 47.7397 155.799 44.8384V40.0381C155.799 37.1379 158.151 34.7861 161.051 34.7861H294.591C297.492 34.7861 299.843 37.1379 299.843 40.0381V44.8384C299.843 47.7397 297.492 50.0904 294.591 50.0904Z" fill="#5B6F82"/>
<path d="M216.894 34.7861H161.051C158.151 34.7861 155.799 37.1379 155.799 40.0381V44.8384C155.799 47.7397 158.151 50.0904 161.051 50.0904H217.712C213.531 45.711 212.147 39.7502 216.894 34.7861Z" fill="#4A5D6F"/>
<path d="M196.768 73.1313L174.663 95.236L165.928 82.7308C162.272 77.4975 162.897 70.3949 167.412 65.8803C171.926 61.3657 179.029 60.7404 184.264 64.3956L196.768 73.1313Z" fill="#9BAFC3"/>
<path d="M173.76 62.3627C171.421 62.9023 169.211 64.0815 167.412 65.8805C162.897 70.3951 162.272 77.4966 165.928 82.731L174.663 95.2362L182.845 87.0544C175.756 80.2506 173.29 69.7818 173.76 62.3627Z" fill="#88A1B9"/>
<path d="M203.144 77.7382L179.271 101.612C177.753 103.129 175.295 103.129 173.778 101.612C172.262 100.096 172.262 97.6373 173.778 96.1207L197.652 72.2467C199.169 70.7301 201.628 70.7301 203.144 72.2467C204.661 73.7633 204.661 76.2217 203.144 77.7382Z" fill="#4A5D6F"/>
<path d="M173.919 74.0853H172.136C170.155 74.0853 168.548 72.4786 168.548 70.4971V50.0903H177.507V70.4971C177.507 72.4786 175.901 74.0853 173.919 74.0853Z" fill="#4A5D6F"/>
<path d="M199.657 81.2264L182.758 98.1242L237.229 169.39C246.059 180.942 263.041 182.07 273.322 171.79C283.602 161.51 282.473 144.527 270.922 135.698L199.657 81.2264Z" fill="#FBF7C1" fill-opacity="0.82"/>
<path d="M255.986 81.2264L272.884 98.1242L218.412 169.39C209.584 180.942 192.6 182.07 182.32 171.79C172.04 161.51 173.169 144.527 184.721 135.698L255.986 81.2264Z" fill="#FBF7C1" fill-opacity="0.82"/>
<path d="M258.875 73.1313L280.98 95.236L289.714 82.7308C293.371 77.4975 292.745 70.3949 288.231 65.8803C283.716 61.3657 276.613 60.7404 271.379 64.3956L258.875 73.1313Z" fill="#9BAFC4"/>
<path d="M275.633 62.4396C274.144 62.8231 272.702 63.4726 271.38 64.3957L258.875 73.1315L280.98 95.2362L281.935 93.869C276.266 85.374 273.298 71.0797 275.633 62.4396Z" fill="#88A1B9"/>
<path d="M252.499 77.7382L276.372 101.612C277.889 103.129 280.348 103.129 281.864 101.612C283.381 100.096 283.381 97.6373 281.864 96.1207L257.99 72.2467C256.474 70.7301 254.014 70.7301 252.499 72.2467C250.981 73.7633 250.981 76.2217 252.499 77.7382Z" fill="#4A5D6F"/>
<path d="M281.724 74.0853H283.506C285.489 74.0853 287.094 72.4786 287.094 70.4971V50.0903H278.135V70.4971C278.135 72.4786 279.741 74.0853 281.724 74.0853Z" fill="#4A5D6F"/>
<path d="M165.439 127.162L197.19 148.523C199.136 149.832 199.652 152.47 198.343 154.416L188.003 169.787C186.693 171.733 184.055 172.249 182.109 170.94L150.358 149.58C148.412 148.271 147.896 145.632 149.205 143.686L159.546 128.315C160.855 126.369 163.493 125.853 165.439 127.162Z" fill="#7BD0A7"/>
<path d="M170.199 162.928L182.11 170.941C184.056 172.25 186.694 171.734 188.003 169.788L198.344 154.417C199.653 152.471 199.137 149.833 197.191 148.524L191.806 144.901C188.513 154.68 178.049 161.912 170.199 162.928Z" fill="#68BF97"/>
<path d="M154.478 145.715C154.56 146.133 154.287 146.538 153.87 146.619L152.706 146.847C152.288 146.929 151.883 146.657 151.801 146.239C151.719 145.821 151.992 145.416 152.41 145.334L153.574 145.106C153.991 145.025 154.396 145.297 154.478 145.715Z" fill="#A5E1C5"/>
<path d="M185.042 166.276L185.27 167.441C185.351 167.858 185.079 168.263 184.661 168.345C184.243 168.427 183.839 168.154 183.757 167.737L183.529 166.572C183.447 166.155 183.72 165.75 184.138 165.668C184.555 165.586 184.96 165.859 185.042 166.276Z" fill="#A5E1C5"/>
<path d="M163.792 130.368L164.02 131.532C164.101 131.949 163.829 132.354 163.411 132.436C162.994 132.518 162.589 132.245 162.507 131.828L162.279 130.664C162.197 130.246 162.47 129.841 162.888 129.759C163.306 129.677 163.71 129.95 163.792 130.368Z" fill="#A5E1C5"/>
<path d="M195.748 151.865C195.829 152.283 195.557 152.688 195.139 152.77L193.975 152.997C193.557 153.079 193.153 152.807 193.071 152.389C192.989 151.971 193.261 151.566 193.679 151.484L194.843 151.257C195.261 151.175 195.666 151.448 195.748 151.865Z" fill="#A5E1C5"/>
<path d="M156.485 148.733L180.586 164.946C182.553 163.761 184.887 163.304 187.155 163.661L192.349 155.941C191.164 153.973 190.707 151.64 191.064 149.371L166.964 133.158C164.996 134.343 162.663 134.8 160.394 134.443L155.2 142.163C156.385 144.13 156.842 146.464 156.485 148.733Z" fill="#A5E1C5"/>
<path d="M191.064 149.371L190.098 148.722C186.797 154.615 181.001 159.209 175.438 161.483L180.586 164.946C182.553 163.761 184.887 163.304 187.155 163.661L192.349 155.941C191.164 153.974 190.707 151.64 191.064 149.371Z" fill="#91D6B5"/>
<path d="M187.97 156.416C188.008 156.61 187.972 156.818 187.853 156.995C187.615 157.348 187.137 157.442 186.783 157.204L182.367 154.233C182.014 153.995 181.92 153.516 182.158 153.163C182.396 152.81 182.874 152.716 183.228 152.954L187.644 155.925C187.82 156.044 187.932 156.223 187.97 156.416Z" fill="#7BD0A7"/>
<path d="M184.346 157.036C184.384 157.23 184.348 157.437 184.229 157.614C183.991 157.967 183.512 158.061 183.159 157.823L180.951 156.338C180.598 156.1 180.504 155.621 180.742 155.268C180.98 154.915 181.459 154.821 181.811 155.059L184.02 156.544C184.196 156.663 184.308 156.842 184.346 157.036Z" fill="#7BD0A7"/>
<path d="M166.924 142.257C166.962 142.451 166.925 142.659 166.807 142.836C166.569 143.189 166.09 143.283 165.737 143.045L161.321 140.074C160.968 139.837 160.874 139.358 161.112 139.005C161.349 138.651 161.828 138.558 162.181 138.795L166.597 141.766C166.774 141.885 166.886 142.064 166.924 142.257Z" fill="#7BD0A7"/>
<path d="M165.508 144.362C165.546 144.556 165.51 144.764 165.391 144.941C165.153 145.294 164.674 145.388 164.321 145.15L162.113 143.664C161.76 143.427 161.666 142.948 161.904 142.595C162.141 142.242 162.62 142.148 162.973 142.386L165.182 143.871C165.358 143.99 165.47 144.169 165.508 144.362Z" fill="#7BD0A7"/>
<path d="M172.602 143.057C175.913 142.409 179.121 144.568 179.769 147.879C180.417 151.19 178.258 154.399 174.947 155.047C171.637 155.694 168.427 153.535 167.78 150.225C167.132 146.914 169.291 143.705 172.602 143.057Z" fill="#7BD0A7"/>
<path d="M177.414 147.501C177.452 147.695 177.417 147.903 177.298 148.08C177.06 148.433 176.581 148.527 176.228 148.289L174.468 147.105C174.332 147.013 174.168 146.98 174.006 147.012C173.845 147.043 173.705 147.136 173.613 147.272C173.424 147.554 173.499 147.938 173.781 148.127L174.629 148.698C175.616 149.362 175.879 150.705 175.215 151.692C174.893 152.171 174.404 152.495 173.839 152.605C173.273 152.716 172.699 152.599 172.221 152.278L170.461 151.094C170.108 150.857 170.014 150.378 170.251 150.024C170.489 149.671 170.968 149.577 171.321 149.815L173.081 150.999C173.218 151.091 173.382 151.124 173.543 151.093C173.704 151.061 173.844 150.968 173.936 150.832C174.125 150.55 174.05 150.166 173.769 149.977L172.92 149.406C172.442 149.084 172.118 148.596 172.007 148.03C171.896 147.465 172.013 146.89 172.334 146.412C172.656 145.934 173.144 145.61 173.71 145.499C174.276 145.388 174.851 145.504 175.329 145.826L177.088 147.01C177.265 147.129 177.377 147.308 177.414 147.501Z" fill="#A5E1C5"/>
<path d="M172.983 151.205C173.021 151.399 172.985 151.607 172.866 151.783L172.215 152.751C171.977 153.105 171.498 153.198 171.145 152.96C170.792 152.723 170.698 152.244 170.935 151.891L171.587 150.923C171.824 150.57 172.303 150.476 172.657 150.714C172.833 150.832 172.945 151.011 172.983 151.205Z" fill="#A5E1C5"/>
<path d="M176.73 145.635C176.768 145.829 176.732 146.036 176.613 146.213L175.962 147.181C175.724 147.534 175.246 147.628 174.892 147.39C174.539 147.153 174.445 146.674 174.683 146.32L175.334 145.353C175.572 145 176.051 144.906 176.404 145.143C176.581 145.262 176.692 145.441 176.73 145.635Z" fill="#A5E1C5"/>
<path d="M250.485 123.487L273.756 109.276C275.182 108.405 277.044 108.855 277.915 110.281L284.795 121.547C285.666 122.973 285.216 124.835 283.79 125.706L260.519 139.917C259.093 140.788 257.231 140.338 256.36 138.912L249.48 127.646C248.609 126.22 249.059 124.358 250.485 123.487Z" fill="#7BD0A7"/>
<path d="M275.061 131.038L283.791 125.707C285.217 124.836 285.667 122.974 284.796 121.547L277.916 110.282C277.045 108.856 275.183 108.406 273.757 109.277L269.81 111.687C275.164 116.726 276.736 125.652 275.061 131.038Z" fill="#68BF97"/>
<path d="M259.241 136.101C259.536 136.172 259.717 136.469 259.646 136.763L259.447 137.585C259.376 137.88 259.079 138.061 258.784 137.99C258.489 137.919 258.308 137.622 258.38 137.327L258.578 136.505C258.65 136.211 258.946 136.029 259.241 136.101Z" fill="#A5E1C5"/>
<path d="M281.642 122.421L282.463 122.619C282.758 122.691 282.939 122.988 282.868 123.282C282.797 123.577 282.5 123.758 282.205 123.687L281.384 123.489C281.089 123.417 280.908 123.121 280.979 122.826C281.05 122.531 281.347 122.35 281.642 122.421Z" fill="#A5E1C5"/>
<path d="M252.072 125.507L252.893 125.706C253.188 125.777 253.369 126.074 253.298 126.369C253.227 126.663 252.93 126.845 252.635 126.773L251.813 126.575C251.518 126.503 251.337 126.207 251.409 125.912C251.48 125.617 251.777 125.436 252.072 125.507Z" fill="#A5E1C5"/>
<path d="M275.492 111.204C275.787 111.276 275.968 111.572 275.897 111.867L275.698 112.688C275.627 112.983 275.33 113.165 275.035 113.093C274.74 113.022 274.559 112.725 274.63 112.43L274.829 111.609C274.9 111.314 275.197 111.133 275.492 111.204Z" fill="#A5E1C5"/>
<path d="M261.792 135.698L279.455 124.911C279.273 123.285 279.671 121.638 280.576 120.275L277.121 114.617C275.494 114.8 273.847 114.401 272.484 113.496L254.821 124.283C255.004 125.909 254.606 127.556 253.7 128.919L257.156 134.577C258.782 134.395 260.429 134.793 261.792 135.698Z" fill="#A5E1C5"/>
<path d="M272.484 113.496L271.777 113.928C274.612 117.818 275.864 122.937 275.682 127.215L279.455 124.911C279.273 123.285 279.671 121.638 280.576 120.275L277.121 114.617C275.495 114.8 273.847 114.401 272.484 113.496Z" fill="#91D6B5"/>
<path d="M276.127 117.593C276.264 117.627 276.388 117.712 276.467 117.841C276.625 118.1 276.543 118.438 276.284 118.596L273.048 120.573C272.789 120.731 272.451 120.649 272.293 120.39C272.135 120.131 272.216 119.793 272.475 119.635L275.712 117.659C275.841 117.58 275.99 117.56 276.127 117.593Z" fill="#7BD0A7"/>
<path d="M275.451 120.125C275.587 120.158 275.711 120.243 275.79 120.372C275.949 120.631 275.867 120.969 275.608 121.127L273.99 122.115C273.731 122.274 273.393 122.192 273.235 121.933C273.077 121.674 273.158 121.336 273.417 121.178L275.036 120.19C275.165 120.111 275.314 120.092 275.451 120.125Z" fill="#7BD0A7"/>
<path d="M260.702 127.013C260.839 127.046 260.963 127.132 261.042 127.261C261.2 127.52 261.118 127.858 260.859 128.016L257.623 129.993C257.364 130.151 257.026 130.069 256.868 129.81C256.71 129.551 256.791 129.213 257.05 129.055L260.287 127.079C260.416 127 260.565 126.98 260.702 127.013Z" fill="#7BD0A7"/>
<path d="M261.644 128.556C261.781 128.589 261.905 128.674 261.984 128.804C262.142 129.063 262.06 129.401 261.801 129.559L260.183 130.547C259.924 130.705 259.586 130.623 259.428 130.364C259.27 130.106 259.352 129.768 259.611 129.61L261.229 128.621C261.358 128.542 261.508 128.523 261.644 128.556Z" fill="#7BD0A7"/>
<path d="M262.908 123.574C263.472 121.238 265.824 119.802 268.161 120.366C270.497 120.931 271.934 123.283 271.369 125.619C270.804 127.956 268.452 129.392 266.115 128.828C263.779 128.263 262.343 125.911 262.908 123.574Z" fill="#7BD0A7"/>
<path d="M267.216 121.779C267.353 121.812 267.477 121.897 267.556 122.026C267.714 122.285 267.632 122.623 267.373 122.781L266.084 123.569C265.984 123.63 265.914 123.726 265.886 123.84C265.858 123.954 265.877 124.072 265.938 124.172C266.064 124.379 266.335 124.444 266.541 124.318L267.163 123.938C267.886 123.496 268.834 123.726 269.276 124.449C269.49 124.8 269.555 125.213 269.459 125.612C269.362 126.011 269.116 126.348 268.766 126.562L267.475 127.35C267.217 127.508 266.879 127.426 266.721 127.167C266.563 126.908 266.644 126.57 266.903 126.413L268.193 125.625C268.293 125.564 268.363 125.467 268.391 125.353C268.418 125.24 268.4 125.122 268.339 125.022C268.213 124.815 267.942 124.75 267.735 124.876L267.114 125.255C266.763 125.469 266.351 125.534 265.951 125.438C265.552 125.342 265.215 125.095 265.001 124.745C264.787 124.394 264.722 123.982 264.818 123.582C264.915 123.183 265.161 122.846 265.511 122.632L266.801 121.844C266.931 121.765 267.08 121.746 267.216 121.779Z" fill="#A5E1C5"/>
<path d="M268.297 125.75C268.434 125.783 268.558 125.868 268.637 125.997L269.07 126.707C269.228 126.966 269.147 127.304 268.888 127.462C268.629 127.62 268.291 127.538 268.133 127.28L267.7 126.57C267.541 126.311 267.623 125.973 267.882 125.815C268.011 125.736 268.161 125.717 268.297 125.75Z" fill="#A5E1C5"/>
<path d="M265.804 121.667C265.941 121.7 266.065 121.785 266.144 121.915L266.577 122.625C266.735 122.883 266.654 123.221 266.395 123.379C266.136 123.538 265.798 123.456 265.64 123.197L265.207 122.488C265.048 122.229 265.13 121.89 265.389 121.732C265.518 121.653 265.668 121.634 265.804 121.667Z" fill="#A5E1C5"/>
<path d="M196.94 200.902L251.968 189.139C255.341 188.418 258.658 190.568 259.379 193.94L265.074 220.58C265.795 223.952 263.645 227.27 260.273 227.991L205.245 239.754C201.873 240.475 198.555 238.325 197.834 234.953L192.139 208.313C191.418 204.941 193.568 201.623 196.94 200.902Z" fill="#7BD0A7"/>
<path d="M239.631 232.403L260.274 227.991C263.646 227.27 265.796 223.952 265.075 220.58L259.38 193.94C258.66 190.568 255.342 188.419 251.969 189.139L242.636 191.134C249.616 204.607 246.576 223.063 239.631 232.403Z" fill="#68BF97"/>
<path d="M205.366 231.447C205.891 231.788 206.041 232.489 205.701 233.015L204.753 234.479C204.412 235.004 203.711 235.154 203.185 234.814C202.659 234.473 202.51 233.771 202.85 233.246L203.798 231.782C204.139 231.257 204.84 231.107 205.366 231.447Z" fill="#A5E1C5"/>
<path d="M258.336 220.125L259.8 221.073C260.325 221.413 260.475 222.115 260.135 222.64C259.794 223.166 259.093 223.316 258.568 222.975L257.104 222.027C256.578 221.687 256.428 220.985 256.768 220.46C257.109 219.934 257.811 219.784 258.336 220.125Z" fill="#A5E1C5"/>
<path d="M198.647 205.918L200.111 206.867C200.637 207.207 200.787 207.908 200.446 208.434C200.106 208.959 199.404 209.109 198.879 208.769L197.415 207.821C196.889 207.48 196.74 206.779 197.08 206.253C197.42 205.728 198.122 205.578 198.647 205.918Z" fill="#A5E1C5"/>
<path d="M254.029 194.08C254.555 194.42 254.705 195.121 254.364 195.647L253.416 197.111C253.076 197.636 252.375 197.786 251.849 197.446C251.324 197.105 251.173 196.404 251.514 195.878L252.462 194.415C252.802 193.889 253.504 193.739 254.029 194.08Z" fill="#A5E1C5"/>
<path d="M210.608 232.408L252.376 223.479C253.132 220.188 255.034 217.253 257.728 215.217L254.868 201.838C251.577 201.082 248.642 199.181 246.606 196.486L204.838 205.414C204.083 208.706 202.181 211.641 199.487 213.676L202.347 227.055C205.638 227.812 208.573 229.713 210.608 232.408Z" fill="#A5E1C5"/>
<path d="M246.606 196.486L244.933 196.843C247.794 206.356 246.733 217.179 243.454 225.386L252.376 223.479C253.132 220.188 255.034 217.253 257.728 215.217L254.868 201.838C251.577 201.082 248.642 199.181 246.606 196.486Z" fill="#91D6B5"/>
<path d="M250.898 206.955C251.142 207.113 251.325 207.363 251.39 207.67C251.521 208.282 251.131 208.884 250.519 209.015L242.865 210.651C242.253 210.782 241.651 210.391 241.52 209.779C241.389 209.167 241.779 208.565 242.391 208.434L250.045 206.798C250.351 206.733 250.655 206.797 250.898 206.955Z" fill="#7BD0A7"/>
<path d="M247.851 211.421C248.094 211.579 248.278 211.83 248.343 212.136C248.474 212.748 248.084 213.35 247.472 213.481L243.645 214.299C243.033 214.43 242.43 214.04 242.3 213.428C242.169 212.815 242.559 212.213 243.171 212.082L246.998 211.264C247.304 211.199 247.607 211.264 247.851 211.421Z" fill="#7BD0A7"/>
<path d="M214.422 214.752C214.666 214.91 214.849 215.16 214.915 215.467C215.046 216.078 214.656 216.681 214.043 216.812L206.39 218.448C205.778 218.579 205.176 218.189 205.045 217.576C204.914 216.964 205.304 216.362 205.916 216.231L213.569 214.595C213.876 214.53 214.179 214.594 214.422 214.752Z" fill="#7BD0A7"/>
<path d="M215.202 218.4C215.446 218.558 215.629 218.808 215.695 219.114C215.826 219.727 215.436 220.329 214.823 220.46L210.996 221.277C210.384 221.408 209.782 221.018 209.651 220.406C209.52 219.794 209.91 219.192 210.523 219.061L214.35 218.243C214.656 218.178 214.959 218.242 215.202 218.4Z" fill="#7BD0A7"/>
<path d="M221.069 209.563C223.766 205.4 229.327 204.211 233.491 206.908C237.654 209.605 238.843 215.167 236.146 219.33C233.449 223.494 227.887 224.683 223.724 221.986C219.56 219.289 218.372 213.727 221.069 209.563Z" fill="#7BD0A7"/>
<path d="M230.686 209.013C230.929 209.171 231.113 209.421 231.178 209.727C231.309 210.339 230.919 210.942 230.307 211.072L227.257 211.724C227.02 211.775 226.818 211.914 226.686 212.117C226.554 212.321 226.51 212.562 226.56 212.799C226.665 213.287 227.147 213.6 227.635 213.496L229.106 213.181C230.816 212.815 232.506 213.91 232.871 215.621C233.049 216.449 232.892 217.298 232.432 218.008C231.971 218.72 231.261 219.209 230.432 219.386L227.382 220.038C226.77 220.169 226.168 219.779 226.037 219.166C225.906 218.554 226.296 217.952 226.908 217.821L229.959 217.17C230.195 217.119 230.398 216.979 230.529 216.776C230.661 216.573 230.705 216.331 230.655 216.094C230.55 215.606 230.068 215.293 229.579 215.398L228.109 215.712C227.281 215.889 226.433 215.734 225.721 215.273C225.01 214.812 224.521 214.102 224.344 213.273C224.167 212.444 224.323 211.597 224.784 210.885C225.244 210.174 225.954 209.685 226.783 209.508L229.833 208.856C230.139 208.79 230.442 208.855 230.686 209.013Z" fill="#A5E1C5"/>
<path d="M230.076 217.484C230.319 217.642 230.503 217.892 230.568 218.198L230.927 219.876C231.058 220.488 230.668 221.09 230.055 221.221C229.443 221.352 228.841 220.961 228.71 220.35L228.352 218.672C228.22 218.06 228.611 217.457 229.223 217.327C229.529 217.261 229.832 217.326 230.076 217.484Z" fill="#A5E1C5"/>
<path d="M228.012 207.83C228.256 207.987 228.439 208.238 228.505 208.544L228.863 210.222C228.994 210.834 228.604 211.436 227.992 211.567C227.38 211.698 226.777 211.308 226.646 210.695L226.288 209.018C226.157 208.406 226.548 207.803 227.16 207.672C227.465 207.607 227.769 207.672 228.012 207.83Z" fill="#A5E1C5"/>
<path d="M145.213 268.755C148.713 268.755 151.443 265.685 150.993 262.214C147.787 237.479 126.64 218.373 101.032 218.373C75.4235 218.373 54.2773 237.479 51.0708 262.214C50.6208 265.685 53.3506 268.755 56.8507 268.755H145.213Z" fill="#F8FFFC"/>
<path d="M121.81 232.412C121.81 220.936 112.507 211.634 101.032 211.634C89.5567 211.634 80.2542 220.936 80.2542 232.412C80.2542 243.887 89.5567 249.745 101.032 249.745C112.507 249.745 121.81 243.887 121.81 232.412Z" fill="#FFDCCE"/>
<path d="M45.9251 206.075C57.8649 206.075 67.5441 197.104 67.5441 186.037C67.5441 174.97 57.8649 165.999 45.9251 165.999C33.9853 165.999 24.3062 174.97 24.3062 186.037C24.3062 197.104 33.9853 206.075 45.9251 206.075Z" fill="#FFDCCE"/>
<path d="M156.149 206.075C168.089 206.075 177.768 197.104 177.768 186.037C177.768 174.97 168.089 165.999 156.149 165.999C144.209 165.999 134.53 174.97 134.53 186.037C134.53 197.104 144.209 206.075 156.149 206.075Z" fill="#FFCABD"/>
<path d="M160.809 186.037C160.809 216.982 134.046 236.696 101.032 236.696C68.0181 236.696 41.2551 216.982 41.2551 186.037C41.2551 155.092 68.0181 130.005 101.032 130.005C134.046 130.005 160.809 155.091 160.809 186.037Z" fill="#FFDCCE"/>
<path d="M128.012 231.795C55.6943 230.166 56.7701 156.737 77.4778 134.526C56.1762 143.095 41.2551 162.932 41.2551 186.037C41.2551 216.982 68.0181 236.695 101.032 236.695C110.74 236.696 119.907 234.989 128.012 231.795Z" fill="#FFCABD"/>
<path d="M135.137 172.888C136.392 172.888 137.409 173.904 137.41 175.159C137.411 177.432 136.527 179.569 134.92 181.177C133.314 182.785 131.177 183.672 128.905 183.673L128.9 183.673C124.21 183.673 120.393 179.858 120.391 175.168C120.39 173.912 121.407 172.894 122.662 172.894C122.663 172.894 122.663 172.894 122.664 172.894C123.918 172.894 124.936 173.91 124.936 175.165C124.938 177.35 126.716 179.127 128.9 179.127C128.901 179.127 128.902 179.127 128.902 179.127C129.961 179.127 130.956 178.714 131.704 177.965C132.453 177.216 132.865 176.22 132.864 175.161C132.863 173.906 133.88 172.888 135.135 172.887C135.136 172.888 135.136 172.888 135.137 172.888Z" fill="#4E5660"/>
<path d="M79.3888 172.916C80.6437 172.916 81.661 173.933 81.6617 175.188C81.6626 177.461 80.7786 179.598 79.1725 181.206C77.5661 182.814 75.4296 183.701 73.1565 183.701L73.152 183.701C68.4618 183.701 64.6453 179.887 64.6429 175.197C64.6423 173.941 65.6593 172.923 66.9145 172.923C66.9148 172.923 66.9154 172.923 66.9157 172.923C68.1706 172.923 69.1879 173.939 69.1885 175.194C69.1897 177.379 70.9676 179.156 73.1523 179.156C73.1529 179.156 73.1535 179.156 73.1544 179.156C74.2132 179.155 75.2084 178.742 75.9566 177.993C76.7048 177.244 77.1166 176.249 77.1163 175.19C77.1157 173.935 78.1327 172.917 79.3882 172.916C79.3879 172.916 79.3885 172.916 79.3888 172.916Z" fill="#4E5660"/>
<path d="M89.1816 124.817C97.1256 124.173 104.187 124.779 111.248 125.7C121.399 127.024 130.534 127.077 140.748 134.693C155.589 145.758 161.34 162.449 162.034 174.864C162.196 177.747 159.131 179.678 156.574 178.336C146.854 173.233 136.834 162.905 129.152 149.994C122.265 153.498 108.803 154.306 101.032 154.306C93.2608 154.306 79.7994 153.498 72.9113 149.994C65.2298 162.905 55.2098 173.233 45.4895 178.336C42.9333 179.678 39.8684 177.747 40.0296 174.864C40.7241 162.449 46.4749 145.758 61.3161 134.693C74.6178 126.583 77.2657 125.783 89.1816 124.817Z" fill="#5C586F"/>
<path d="M74.9591 127.386C69.9874 129.536 65.1988 131.797 61.3156 134.692C46.4745 145.757 40.7237 162.449 40.0291 174.864C39.8679 177.746 42.9328 179.677 45.489 178.336C55.2093 173.232 65.2297 162.905 72.9108 149.994C74.7888 150.949 77.1571 151.702 79.7635 152.295C74.3982 146.366 72.6748 134.335 74.9591 127.386Z" fill="#423E4F"/>
<path d="M68.7417 228.971C59.3099 237.861 52.9651 248.551 50.8733 260.206C50.0653 264.709 54.967 268.691 61.252 268.691H85.4189C88.9499 253.3 77.8862 237.218 68.7417 228.971Z" fill="#FFE248"/>
<rect x="140.817" y="251.037" width="24.7144" height="26.4798" fill="#FF4F73"/>
<path d="M133.005 228.971C142.672 237.861 149.176 248.551 151.32 260.206C152.148 264.709 147.124 268.691 140.681 268.691H115.911C112.291 253.3 123.631 237.218 133.005 228.971Z" fill="#FFE248"/>
<path d="M107.152 187.303C105.734 186.511 104.121 186.484 102.744 187.085C101.41 187.668 99.9022 187.668 98.568 187.085C97.1921 186.485 95.5789 186.511 94.1604 187.303C91.6526 188.703 84.928 195.189 86.2671 197.812C87.6053 200.433 96.5017 198.197 99.0085 196.797C99.0153 196.794 99.0221 196.79 99.0289 196.787C100.657 195.941 102.297 196.794 102.304 196.797C104.811 198.197 113.707 200.433 115.046 197.812C116.384 195.189 109.659 188.703 107.152 187.303Z" fill="#423E4F"/>
<defs>
<filter id="filter0_ddd" x="0" y="0" width="347.333" height="340.952" filterUnits="userSpaceOnUse" color-interpolation-filters="sRGB">
<feFlood flood-opacity="0" result="BackgroundImageFix"/>
<feColorMatrix in="SourceAlpha" type="matrix" values="0 0 0 0 0 0 0 0 0 0 0 0 0 0 0 0 0 0 127 0"/>
<feOffset/>
<feGaussianBlur stdDeviation="0.5"/>
<feColorMatrix type="matrix" values="0 0 0 0 0 0 0 0 0 0 0 0 0 0 0 0 0 0 0.04 0"/>
<feBlend mode="normal" in2="BackgroundImageFix" result="effect1_dropShadow"/>
<feColorMatrix in="SourceAlpha" type="matrix" values="0 0 0 0 0 0 0 0 0 0 0 0 0 0 0 0 0 0 127 0"/>
<feOffset dy="2"/>
<feGaussianBlur stdDeviation="3"/>
<feColorMatrix type="matrix" values="0 0 0 0 0 0 0 0 0 0 0 0 0 0 0 0 0 0 0.04 0"/>
<feBlend mode="normal" in2="effect1_dropShadow" result="effect2_dropShadow"/>
<feColorMatrix in="SourceAlpha" type="matrix" values="0 0 0 0 0 0 0 0 0 0 0 0 0 0 0 0 0 0 127 0"/>
<feOffset dy="16"/>
<feGaussianBlur stdDeviation="12"/>
<feColorMatrix type="matrix" values="0 0 0 0 0 0 0 0 0 0 0 0 0 0 0 0 0 0 0.06 0"/>
<feBlend mode="normal" in2="effect2_dropShadow" result="effect3_dropShadow"/>
<feBlend mode="normal" in="SourceGraphic" in2="effect3_dropShadow" result="shape"/>
</filter>
</defs>
</svg>
