<?xml version="1.0" standalone="no"?>
<!DOCTYPE svg PUBLIC "-//W3C//DTD SVG 20010904//EN"
 "http://www.w3.org/TR/2001/REC-SVG-20010904/DTD/svg10.dtd">
<svg version="1.0" xmlns="http://www.w3.org/2000/svg"
 width="266.000000pt" height="266.000000pt" viewBox="0 0 266.000000 266.000000"
 preserveAspectRatio="xMidYMid meet">
<metadata>
Created by potrace 1.11, written by Peter Selinger 2001-2013
</metadata>
<g transform="translate(0.000000,266.000000) scale(0.100000,-0.100000)"
fill="#000000" stroke="none">
<path d="M565 2634 c-11 -3 -49 -15 -85 -26 -242 -77 -419 -318 -420 -573 0
-105 36 -174 153 -290 107 -106 231 -191 402 -275 217 -106 408 -163 555 -164
115 -1 158 19 184 84 24 59 20 125 -18 325 -19 99 -39 241 -45 315 -11 154
-33 228 -91 319 -55 84 -101 133 -178 186 -102 69 -193 98 -327 101 -60 2
-119 1 -130 -2z"/>
<path d="M2030 1811 c-208 -67 -330 -230 -330 -439 0 -87 18 -133 63 -166 27
-20 40 -21 240 -18 243 3 269 -1 410 -65 53 -24 107 -43 119 -41 39 5 50 43
44 148 -7 125 -36 234 -90 345 -87 174 -192 256 -330 254 -39 0 -96 -8 -126
-18z"/>
<path d="M456 1058 c-23 -33 -21 -141 5 -224 85 -278 388 -638 648 -768 173
-88 317 -87 501 1 59 28 94 54 160 122 131 132 190 270 190 442 0 190 -74 222
-336 148 -410 -116 -491 -101 -864 159 -208 145 -270 169 -304 120z"/>
</g>
</svg>
